  0
SECTION
  2
HEADER
  9
$ACADVER
  1
AC1015
  9
$ACADMAINTVER
 70
     6
  9
$DWGCODEPAGE
  3
ANSI_1252
  9
$INSBASE
 10
0.0
 20
0.0
 30
0.0
  9
$EXTMIN
 10
0.0256660394
 20
0.0
 30
0.0
  9
$EXTMAX
 10
35.9735028427
 20
25.5203166414
 30
0.0
  9
$LIMMIN
 10
0.0
 20
0.0
  9
$LIMMAX
 10
12.0
 20
9.0
  9
$ORTHOMODE
 70
     0
  9
$REGENMODE
 70
     1
  9
$FILLMODE
 70
     1
  9
$QTEXTMODE
 70
     0
  9
$MIRRTEXT
 70
     1
  9
$LTSCALE
 40
1.0
  9
$ATTMODE
 70
     1
  9
$TEXTSIZE
 40
0.1377952756
  9
$TRACEWID
 40
0.05
  9
$TEXTSTYLE
  7
Standard
  9
$CLAYER
  8
0
  9
$CELTYPE
  6
ByLayer
  9
$CECOLOR
 62
   256
  9
$CELTSCALE
 40
1.0
  9
$DISPSILH
 70
     0
  9
$DIMSCALE
 40
1.0
  9
$DIMASZ
 40
0.13
  9
$DIMEXO
 40
0.0
  9
$DIMDLI
 40
0.38
  9
$DIMRND
 40
0.0
  9
$DIMDLE
 40
0.0
  9
$DIMEXE
 40
0.0393700787
  9
$DIMTP
 40
0.0
  9
$DIMTM
 40
0.0
  9
$DIMTXT
 40
0.1377952756
  9
$DIMCEN
 40
0.09
  9
$DIMTSZ
 40
0.0
  9
$DIMTOL
 70
     0
  9
$DIMLIM
 70
     0
  9
$DIMTIH
 70
     1
  9
$DIMTOH
 70
     1
  9
$DIMSE1
 70
     0
  9
$DIMSE2
 70
     0
  9
$DIMTAD
 70
     1
  9
$DIMZIN
 70
     1
  9
$DIMBLK
  1

  9
$DIMASO
 70
     1
  9
$DIMSHO
 70
     1
  9
$DIMPOST
  1

  9
$DIMAPOST
  1

  9
$DIMALT
 70
     0
  9
$DIMALTD
 70
     2
  9
$DIMALTF
 40
25.4
  9
$DIMLFAC
 40
1.0
  9
$DIMTOFL
 70
     0
  9
$DIMTVP
 40
0.0
  9
$DIMTIX
 70
     0
  9
$DIMSOXD
 70
     0
  9
$DIMSAH
 70
     0
  9
$DIMBLK1
  1

  9
$DIMBLK2
  1

  9
$DIMSTYLE
  2
Standard
  9
$DIMCLRD
 70
     0
  9
$DIMCLRE
 70
     0
  9
$DIMCLRT
 70
     0
  9
$DIMTFAC
 40
1.0
  9
$DIMGAP
 40
0.06
  9
$DIMJUST
 70
     0
  9
$DIMSD1
 70
     0
  9
$DIMSD2
 70
     0
  9
$DIMTOLJ
 70
     1
  9
$DIMTZIN
 70
     1
  9
$DIMALTZ
 70
     0
  9
$DIMALTTZ
 70
     0
  9
$DIMUPT
 70
     0
  9
$DIMDEC
 70
     2
  9
$DIMTDEC
 70
     2
  9
$DIMALTU
 70
     2
  9
$DIMALTTD
 70
     2
  9
$DIMTXSTY
  7
Standard
  9
$DIMAUNIT
 70
     0
  9
$DIMADEC
 70
     2
  9
$DIMALTRND
 40
0.0
  9
$DIMAZIN
 70
     0
  9
$DIMDSEP
 70
    46
  9
$DIMATFIT
 70
     3
  9
$DIMFRAC
 70
     0
  9
$DIMLDRBLK
  1

  9
$DIMLUNIT
 70
     2
  9
$DIMLWD
 70
    -2
  9
$DIMLWE
 70
    -2
  9
$DIMTMOVE
 70
     0
  9
$LUNITS
 70
     2
  9
$LUPREC
 70
     2
  9
$SKETCHINC
 40
0.1
  9
$FILLETRAD
 40
0.0
  9
$AUNITS
 70
     0
  9
$AUPREC
 70
     2
  9
$MENU
  1
.
  9
$ELEVATION
 40
0.0
  9
$PELEVATION
 40
0.0
  9
$THICKNESS
 40
0.0
  9
$LIMCHECK
 70
     0
  9
$CHAMFERA
 40
0.0
  9
$CHAMFERB
 40
0.0
  9
$CHAMFERC
 40
0.0
  9
$CHAMFERD
 40
0.0
  9
$SKPOLY
 70
     0
  9
$TDCREATE
 40
2460250.977223125
  9
$TDUCREATE
 40
2460251.143889792
  9
$TDUPDATE
 40
2460250.977400868
  9
$TDUUPDATE
 40
2460251.144067535
  9
$TDINDWG
 40
0.0000000116
  9
$TDUSRTIMER
 40
0.0000000116
  9
$USRTIMER
 70
     1
  9
$ANGBASE
 50
0.0
  9
$ANGDIR
 70
     0
  9
$PDMODE
 70
     0
  9
$PDSIZE
 40
-1.0
  9
$PLINEWID
 40
0.0
  9
$SPLFRAME
 70
     0
  9
$SPLINETYPE
 70
     6
  9
$SPLINESEGS
 70
     8
  9
$HANDSEED
  5
77
  9
$SURFTAB1
 70
     6
  9
$SURFTAB2
 70
     6
  9
$SURFTYPE
 70
     6
  9
$SURFU
 70
     6
  9
$SURFV
 70
     6
  9
$UCSBASE
  2

  9
$UCSNAME
  2

  9
$UCSORG
 10
0.0
 20
0.0
 30
0.0
  9
$UCSXDIR
 10
1.0
 20
0.0
 30
0.0
  9
$UCSYDIR
 10
0.0
 20
1.0
 30
0.0
  9
$UCSORTHOREF
  2

  9
$UCSORTHOVIEW
 70
     0
  9
$UCSORGTOP
 10
0.0
 20
0.0
 30
0.0
  9
$UCSORGBOTTOM
 10
0.0
 20
0.0
 30
0.0
  9
$UCSORGLEFT
 10
0.0
 20
0.0
 30
0.0
  9
$UCSORGRIGHT
 10
0.0
 20
0.0
 30
0.0
  9
$UCSORGFRONT
 10
0.0
 20
0.0
 30
0.0
  9
$UCSORGBACK
 10
0.0
 20
0.0
 30
0.0
  9
$PUCSBASE
  2

  9
$PUCSNAME
  2

  9
$PUCSORG
 10
0.0
 20
0.0
 30
0.0
  9
$PUCSXDIR
 10
1.0
 20
0.0
 30
0.0
  9
$PUCSYDIR
 10
0.0
 20
1.0
 30
0.0
  9
$PUCSORTHOREF
  2

  9
$PUCSORTHOVIEW
 70
     0
  9
$PUCSORGTOP
 10
0.0
 20
0.0
 30
0.0
  9
$PUCSORGBOTTOM
 10
0.0
 20
0.0
 30
0.0
  9
$PUCSORGLEFT
 10
0.0
 20
0.0
 30
0.0
  9
$PUCSORGRIGHT
 10
0.0
 20
0.0
 30
0.0
  9
$PUCSORGFRONT
 10
0.0
 20
0.0
 30
0.0
  9
$PUCSORGBACK
 10
0.0
 20
0.0
 30
0.0
  9
$USERI1
 70
     0
  9
$USERI2
 70
     0
  9
$USERI3
 70
     0
  9
$USERI4
 70
     0
  9
$USERI5
 70
     0
  9
$USERR1
 40
0.0
  9
$USERR2
 40
0.0
  9
$USERR3
 40
0.0
  9
$USERR4
 40
0.0
  9
$USERR5
 40
0.0
  9
$WORLDVIEW
 70
     1
  9
$SHADEDGE
 70
     3
  9
$SHADEDIF
 70
    70
  9
$TILEMODE
 70
     1
  9
$MAXACTVP
 70
    64
  9
$PINSBASE
 10
0.0
 20
0.0
 30
0.0
  9
$PLIMCHECK
 70
     0
  9
$PEXTMIN
 10
1.0000000000E+20
 20
1.0000000000E+20
 30
1.0000000000E+20
  9
$PEXTMAX
 10
-1.0000000000E+20
 20
-1.0000000000E+20
 30
-1.0000000000E+20
  9
$PLIMMIN
 10
0.0
 20
0.0
  9
$PLIMMAX
 10
12.0
 20
9.0
  9
$UNITMODE
 70
     0
  9
$VISRETAIN
 70
     1
  9
$PLINEGEN
 70
     0
  9
$PSLTSCALE
 70
     1
  9
$TREEDEPTH
 70
  3020
  9
$CMLSTYLE
  2
Standard
  9
$CMLJUST
 70
     0
  9
$CMLSCALE
 40
1.0
  9
$PROXYGRAPHICS
 70
     1
  9
$MEASUREMENT
 70
     0
  9
$CELWEIGHT
370
    -1
  9
$ENDCAPS
280
     0
  9
$JOINSTYLE
280
     0
  9
$LWDISPLAY
290
     1
  9
$INSUNITS
 70
     1
  9
$HYPERLINKBASE
  1

  9
$STYLESHEET
  1

  9
$XEDIT
290
     1
  9
$CEPSNTYPE
380
     0
  9
$PSTYLEMODE
290
     1
  9
$FINGERPRINTGUID
  2
{5222a010-065b-4e8b-908d-971b53e4f79d}
  9
$VERSIONGUID
  2
{FAEB1C32-E019-11D5-929B-00C0DF256EC4}
  9
$EXTNAMES
290
     1
  9
$PSVPSCALE
 40
0.0
  9
$OLESTARTUP
290
     0
  0
ENDSEC
  0
SECTION
  2
CLASSES
  0
CLASS
  1
ACDBDICTIONARYWDFLT
  2
AcDbDictionaryWithDefault
  3
ObjectDBX Classes
 90
        0
280
     0
281
     0
  0
CLASS
  1
VISUALSTYLE
  2
AcDbVisualStyle
  3
ObjectDBX Classes
 90
     4095
280
     0
281
     0
  0
CLASS
  1
MATERIAL
  2
AcDbMaterial
  3
ObjectDBX Classes
 90
     1153
280
     0
281
     0
  0
CLASS
  1
SCALE
  2
AcDbScale
  3
ObjectDBX Classes
 90
     1153
280
     0
281
     0
  0
CLASS
  1
TABLESTYLE
  2
AcDbTableStyle
  3
ObjectDBX Classes
 90
     4095
280
     0
281
     0
  0
CLASS
  1
MLEADERSTYLE
  2
AcDbMLeaderStyle
  3
ACDB_MLEADERSTYLE_CLASS
 90
     4095
280
     0
281
     0
  0
CLASS
  1
SUN
  2
AcDbSun
  3
SCENEOE
 90
     1153
280
     0
281
     0
  0
CLASS
  1
ACDBPLACEHOLDER
  2
AcDbPlaceHolder
  3
ObjectDBX Classes
 90
        0
280
     0
281
     0
  0
CLASS
  1
LAYOUT
  2
AcDbLayout
  3
ObjectDBX Classes
 90
        0
280
     0
281
     0
  0
ENDSEC
  0
SECTION
  2
TABLES
  0
TABLE
  2
VPORT
  5
8
330
0
100
AcDbSymbolTable
 70
     1
  0
VPORT
  5
29
330
8
100
AcDbSymbolTableRecord
100
AcDbViewportTableRecord
  2
*Active
 70
     0
 10
0.0
 20
0.0
 11
1.0
 21
1.0
 12
17.999584441
 22
12.7601583207
 13
0.0
 23
0.0
 14
0.5
 24
0.5
 15
0.5
 25
0.5
 16
0.0
 26
0.0
 36
1.0
 17
0.0
 27
0.0
 37
0.0
 40
26.0307229742
 41
1.4085968175
 42
50.0
 43
0.0
 44
0.0
 50
0.0
 51
0.0
 71
     0
 72
   100
 73
     1
 74
     3
 75
     0
 76
     0
 77
     0
 78
     0
281
     0
 65
     1
110
0.0
120
0.0
130
0.0
111
1.0
121
0.0
131
0.0
112
0.0
122
1.0
132
0.0
 79
     0
146
0.0
  0
ENDTAB
  0
TABLE
  2
LTYPE
  5
5
330
0
100
AcDbSymbolTable
 70
     6
  0
LTYPE
  5
14
330
5
100
AcDbSymbolTableRecord
100
AcDbLinetypeTableRecord
  2
ByBlock
 70
     0
  3

 72
    65
 73
     0
 40
0.0
  0
LTYPE
  5
15
330
5
100
AcDbSymbolTableRecord
100
AcDbLinetypeTableRecord
  2
ByLayer
 70
     0
  3

 72
    65
 73
     0
 40
0.0
  0
LTYPE
  5
16
330
5
100
AcDbSymbolTableRecord
100
AcDbLinetypeTableRecord
  2
Continuous
 70
     0
  3
Solid line
 72
    65
 73
     0
 40
0.0
  0
LTYPE
  5
5E
330
5
100
AcDbSymbolTableRecord
100
AcDbLinetypeTableRecord
  2
HIDDEN
 70
     0
  3
Hidden __ __ __ __ __ __ __ __ __ __ __ __ __ __
 72
    65
 73
     2
 40
0.075
 49
0.05
 74
     0
 49
-0.025
 74
     0
  0
LTYPE
  5
5F
330
5
100
AcDbSymbolTableRecord
100
AcDbLinetypeTableRecord
  2
PHANTOM
 70
     0
  3
Phantom ______  __  __  ______  __  __  ______
 72
    65
 73
     6
 40
0.5
 49
0.25
 74
     0
 49
-0.05
 74
     0
 49
0.05
 74
     0
 49
-0.05
 74
     0
 49
0.05
 74
     0
 49
-0.05
 74
     0
  0
LTYPE
  5
60
330
5
100
AcDbSymbolTableRecord
100
AcDbLinetypeTableRecord
  2
CENTER
 70
     0
  3
Center ____ _ ____ _ ____ _ ____ _ ____ _ ____
 72
    65
 73
     4
 40
0.4
 49
0.25
 74
     0
 49
-0.05
 74
     0
 49
0.05
 74
     0
 49
-0.05
 74
     0
  0
LTYPE
  5
61
330
5
100
AcDbSymbolTableRecord
100
AcDbLinetypeTableRecord
  2
CENTERX2
 70
     0
  3
Center (2x) ________  __  ________  __  _____
 72
    65
 73
     4
 40
0.8
 49
0.5
 74
     0
 49
-0.1
 74
     0
 49
0.1
 74
     0
 49
-0.1
 74
     0
  0
LTYPE
  5
62
330
5
100
AcDbSymbolTableRecord
100
AcDbLinetypeTableRecord
  2
DOT2
 70
     0
  3
Dot (.5x) ........................................
 72
    65
 73
     2
 40
0.025
 49
0.0
 74
     0
 49
-0.025
 74
     0
  0
ENDTAB
  0
TABLE
  2
LAYER
  5
2
330
0
100
AcDbSymbolTable
 70
     1
  0
LAYER
  5
10
330
2
100
AcDbSymbolTableRecord
100
AcDbLayerTableRecord
  2
0
 70
     0
 62
     7
  6
Continuous
370
    -3
390
F
  0
ENDTAB
  0
TABLE
  2
STYLE
  5
3
330
0
100
AcDbSymbolTable
 70
     2
  0
STYLE
  5
11
330
3
100
AcDbSymbolTableRecord
100
AcDbTextStyleTableRecord
  2
Standard
 70
     0
 40
0.0
 41
1.0
 50
0.0
 71
     0
 42
0.1377952756
  3
txt
  4

  0
STYLE
  5
73
330
3
100
AcDbSymbolTableRecord
100
AcDbTextStyleTableRecord
  2
SLDTEXTSTYLE0
 70
     0
 40
0.0
 41
0.7
 50
0.0
 71
     0
 42
0.1377952756
  3
TXT
  4

  0
ENDTAB
  0
TABLE
  2
VIEW
  5
6
330
0
100
AcDbSymbolTable
 70
     0
  0
ENDTAB
  0
TABLE
  2
UCS
  5
7
330
0
100
AcDbSymbolTable
 70
     0
  0
ENDTAB
  0
TABLE
  2
APPID
  5
9
330
0
100
AcDbSymbolTable
 70
     1
  0
APPID
  5
12
330
9
100
AcDbSymbolTableRecord
100
AcDbRegAppTableRecord
  2
ACAD
 70
     0
  0
ENDTAB
  0
TABLE
  2
DIMSTYLE
  5
A
330
0
100
AcDbSymbolTable
 70
     1
100
AcDbDimStyleTable
  0
DIMSTYLE
105
27
330
A
100
AcDbSymbolTableRecord
100
AcDbDimStyleTableRecord
  2
Standard
 70
     0
178
     0
340
11
  0
ENDTAB
  0
TABLE
  2
BLOCK_RECORD
  5
1
330
0
100
AcDbSymbolTable
 70
     1
  0
BLOCK_RECORD
  5
1F
330
1
100
AcDbSymbolTableRecord
100
AcDbBlockTableRecord
  2
*Model_Space
340
22
  0
BLOCK_RECORD
  5
1B
330
1
100
AcDbSymbolTableRecord
100
AcDbBlockTableRecord
  2
*Paper_Space
340
1E
  0
BLOCK_RECORD
  5
23
330
1
100
AcDbSymbolTableRecord
100
AcDbBlockTableRecord
  2
*Paper_Space0
340
26
  0
ENDTAB
  0
ENDSEC
  0
SECTION
  2
BLOCKS
  0
BLOCK
  5
20
330
1F
100
AcDbEntity
  8
0
100
AcDbBlockBegin
  2
*Model_Space
 70
     0
 10
0.0
 20
0.0
 30
0.0
  3
*Model_Space
  1

  0
ENDBLK
  5
21
330
1F
100
AcDbEntity
  8
0
100
AcDbBlockEnd
  0
BLOCK
  5
1C
330
1B
100
AcDbEntity
 67
     1
  8
0
100
AcDbBlockBegin
  2
*Paper_Space
 70
     0
 10
0.0
 20
0.0
 30
0.0
  3
*Paper_Space
  1

  0
ENDBLK
  5
1D
330
1B
100
AcDbEntity
 67
     1
  8
0
100
AcDbBlockEnd
  0
BLOCK
  5
24
330
23
100
AcDbEntity
  8
0
100
AcDbBlockBegin
  2
*Paper_Space0
 70
     0
 10
0.0
 20
0.0
 30
0.0
  3
*Paper_Space0
  1

  0
ENDBLK
  5
25
330
23
100
AcDbEntity
  8
0
100
AcDbBlockEnd
  0
ENDSEC
  0
SECTION
  2
ENTITIES
  0
SPLINE
  5
63
330
1F
100
AcDbEntity
  8
0
  6
Continuous
 62
     7
370
    25
100
AcDbSpline
210
0.0
220
0.0
230
1.0
 70
     8
 71
     3
 72
    57
 73
    53
 74
     0
 42
0.00000001
 43
0.00000001
 40
0.0
 40
0.0
 40
0.0
 40
0.0
 40
0.033471212597569
 40
0.0464042507425649
 40
0.0615881229535948
 40
0.0754978661066235
 40
0.0867009248599927
 40
0.0987584143102869
 40
0.1108459866144104
 40
0.1237549487578697
 40
0.1351065111491224
 40
0.1438900219529221
 40
0.1598378191055646
 40
0.1926368850944117
 40
0.2187163687546486
 40
0.2283315415080741
 40
0.2429366842663472
 40
0.2542249691555942
 40
0.2719348655314997
 40
0.2813130931562599
 40
0.290672187545751
 40
0.3020180132506689
 40
0.3112239901709845
 40
0.3346550798731849
 40
0.3580769512072016
 40
0.371334649484499
 40
0.3925923450309901
 40
0.4217771126780474
 40
0.4400295230922719
 40
0.4546641262542466
 40
0.4646472355986813
 40
0.4757855409179893
 40
0.4926294314169114
 40
0.5279965416685419
 40
0.6024969293099156
 40
0.6259167753341229
 40
0.6438541687750425
 40
0.6562342165036039
 40
0.6666883243511561
 40
0.6814306471763261
 40
0.7001561438704377
 40
0.7279507303697541
 40
0.746474029695912
 40
0.7883086185205286
 40
0.8209444116284765
 40
0.869685768947009
 40
0.9150767115525736
 40
0.9364541391424719
 40
0.9549908603750703
 40
0.9708746329230108
 40
0.9877252999095181
 40
1.0
 40
1.0
 40
1.0
 40
1.0
 10
30.17409757430901
 20
0.0
 30
0.0
 10
30.62573201296981
 20
-0.0067877158495121
 30
0.0
 10
31.2513832748925
 20
-0.0260575493010043
 30
0.0
 10
32.07242571625868
 20
0.0833280758099112
 30
0.0
 10
32.6273055248359
 20
0.2291734424836434
 30
0.0
 10
33.06989704044629
 20
0.5642196121276919
 30
0.0
 10
33.37051933040314
 20
0.9683454312745239
 30
0.0
 10
33.56966352477309
 20
1.402935753084421
 30
0.0
 10
33.68906518661955
 20
1.89300977601415
 30
0.0
 10
33.66398199403414
 20
2.38344300921243
 30
0.0
 10
33.67071473514558
 20
2.829942676610442
 30
0.0
 10
33.55722637894084
 20
3.304044802783955
 30
0.0
 10
33.40076573415408
 20
4.061050495206466
 30
0.0
 10
33.11561819015796
 20
5.027602739432008
 30
0.0
 10
32.88196213594111
 20
5.919173086265477
 30
0.0
 10
32.726896455563
 20
6.576929347506661
 30
0.0
 10
32.58319288743375
 20
7.036869342096575
 30
0.0
 10
32.57289091120583
 20
7.625391808515105
 30
0.0
 10
32.59343037231436
 20
8.14785443228356
 30
0.0
 10
32.76680938552566
 20
8.610242816897333
 30
0.0
 10
32.96048767400991
 20
8.967441698305157
 30
0.0
 10
33.22244244003512
 20
9.27552515017374
 30
0.0
 10
33.63614757846359
 20
9.698735371942702
 30
0.0
 10
34.23906330464866
 20
10.15616500015601
 30
0.0
 10
34.76217766438208
 20
10.78554668083909
 30
0.0
 10
35.13092236990916
 20
11.47414153617518
 30
0.0
 10
35.44876211189921
 20
12.2699772805063
 30
0.0
 10
35.82742804600544
 20
13.11583965788956
 30
0.0
 10
36.00431474346506
 20
13.93829982841108
 30
0.0
 10
35.99773255346447
 20
14.52029744339933
 30
0.0
 10
35.84973264380096
 20
14.99024125317947
 30
0.0
 10
35.48027904003074
 20
15.36413828643253
 30
0.0
 10
34.71452724308566
 20
15.75582297808198
 30
0.0
 10
33.04695212272829
 20
16.14343655491213
 30
0.0
 10
31.36345114815303
 20
16.76780172369135
 30
0.0
 10
29.92691400870244
 20
17.37375203111795
 30
0.0
 10
29.28193817584006
 20
17.70035382449939
 30
0.0
 10
28.79091247488381
 20
17.94523350512884
 30
0.0
 10
28.35794280387283
 20
18.20650242765683
 30
0.0
 10
27.85388012660239
 20
18.51463562679211
 30
0.0
 10
27.1171909626202
 20
18.88766011900455
 30
0.0
 10
26.41685714700658
 20
19.41861826621101
 30
0.0
 10
25.51353877940508
 20
20.18780469976061
 30
0.0
 10
24.69462587053628
 20
21.13902700009194
 30
0.0
 10
23.48806085849292
 20
22.2766728281551
 30
0.0
 10
22.16953920453237
 20
23.3607453889554
 30
0.0
 10
20.95563567390608
 20
24.32535302119841
 30
0.0
 10
20.09488461586003
 20
25.0946433859545
 30
0.0
 10
19.39743761972559
 20
25.40350824837547
 30
0.0
 10
18.71552639671804
 20
25.5263153721521
 30
0.0
 10
18.10650689392045
 20
25.53226177881678
 30
0.0
 10
17.71856439689877
 20
25.47181522170803
 30
0.0
 10
17.55596474618703
 20
25.44373517352905
 30
0.0
  0
LINE
  5
64
330
1F
100
AcDbEntity
  8
0
  6
Continuous
 62
     7
370
    25
100
AcDbLine
 10
17.5559647462
 20
25.4437351735
 30
0.0
 11
10.6651204125
 21
24.2537249857
 31
0.0
  0
SPLINE
  5
65
330
1F
100
AcDbEntity
  8
0
  6
Continuous
 62
     7
370
    25
100
AcDbSpline
210
0.0
220
0.0
230
1.0
 70
     8
 71
     3
 72
    38
 73
    34
 74
     0
 42
0.00000001
 43
0.00000001
 40
0.0
 40
0.0
 40
0.0
 40
0.0
 40
0.0300434329775366
 40
0.0655416703181605
 40
0.1094059857686336
 40
0.1430524200558798
 40
0.1809733462267488
 40
0.2333966490998592
 40
0.2775985803810108
 40
0.315140715407733
 40
0.3640485452192034
 40
0.4250315501411119
 40
0.4505969447889798
 40
0.5169728614990132
 40
0.5429432221148152
 40
0.5704896275845306
 40
0.5837455086525682
 40
0.5911541349709935
 40
0.5980121302008937
 40
0.6041054265720792
 40
0.6127193266014648
 40
0.6282707169725712
 40
0.6739301105780999
 40
0.7266347819008127
 40
0.7848240828612447
 40
0.8294620961286574
 40
0.8629730299243208
 40
0.9269042932767124
 40
0.9372697660623995
 40
0.9506162907624676
 40
0.9644598403181759
 40
0.9811891111876669
 40
1.0
 40
1.0
 40
1.0
 40
1.0
 10
10.66512041254859
 20
24.25372498571265
 30
0.0
 10
10.40681119670832
 20
24.20911643216338
 30
0.0
 10
9.84369220338959
 20
24.05386024259578
 30
0.0
 10
8.933654422471923
 20
23.71431392695713
 30
0.0
 10
8.151571048718738
 20
23.06228228771618
 30
0.0
 10
7.556356557937919
 20
22.21601409634782
 30
0.0
 10
7.324733785331342
 20
21.11777433921567
 30
0.0
 10
7.496652804498445
 20
19.91878612195639
 30
0.0
 10
8.023896776173817
 20
18.83369800125532
 30
0.0
 10
8.872380558162101
 20
18.02217817017807
 30
0.0
 10
10.10323779386881
 20
17.50160427945711
 30
0.0
 10
11.33858634791118
 20
17.53394812358598
 30
0.0
 10
12.63499238747099
 20
17.94150764403848
 30
0.0
 10
13.45656865425723
 20
18.61668882931086
 30
0.0
 10
14.30949289030204
 20
19.24033103996505
 30
0.0
 10
14.79649100958924
 20
19.56861417854812
 30
0.0
 10
15.14167942382028
 20
19.82596732182767
 30
0.0
 10
15.37914028754329
 20
19.89322792251462
 30
0.0
 10
15.56653343138565
 20
19.87192298049617
 30
0.0
 10
15.71784350266913
 20
19.74583093560414
 30
0.0
 10
15.86184695617889
 20
19.52058978055584
 30
0.0
 10
16.21226092199437
 20
19.01360962253712
 30
0.0
 10
16.80650730463754
 20
18.20222796664184
 30
0.0
 10
17.63065372475725
 20
17.09306377181072
 30
0.0
 10
18.43978130877375
 20
15.9838711216984
 30
0.0
 10
19.1814174544258
 20
15.03559847145439
 30
0.0
 10
19.96141309077414
 20
14.05466614559082
 30
0.0
 10
20.55786707394037
 20
13.30791576043084
 30
0.0
 10
21.1230906321242
 20
12.77894285417632
 30
0.0
 10
21.38799879595364
 20
12.57778274951071
 30
0.0
 10
21.73496069401243
 20
12.39903876532618
 30
0.0
 10
22.16224987422816
 20
12.29313099356579
 30
0.0
 10
22.4795803213589
 20
12.29284604294183
 30
0.0
 10
22.6442952682813
 20
12.29855153056113
 30
0.0
  0
LINE
  5
66
330
1F
100
AcDbEntity
  8
0
  6
Continuous
 62
     7
370
    25
100
AcDbLine
 10
22.6442952683
 20
12.2985515306
 30
0.0
 11
26.2327771787
 21
12.4228513558
 31
0.0
  0
SPLINE
  5
67
330
1F
100
AcDbEntity
  8
0
  6
Continuous
 62
     7
370
    25
100
AcDbSpline
210
0.0
220
0.0
230
1.0
 70
     8
 71
     3
 72
    14
 73
    10
 74
     0
 42
0.00000001
 43
0.00000001
 40
0.0
 40
0.0
 40
0.0
 40
0.0
 40
0.2054100914526983
 40
0.3372126464243328
 40
0.4934520359804988
 40
0.6269555204596605
 40
0.7402317522017543
 40
0.8662407576130726
 40
1.0
 40
1.0
 40
1.0
 40
1.0
 10
26.23277717869945
 20
12.4228513557714
 30
0.0
 10
26.32676978013827
 20
12.42610712359232
 30
0.0
 10
26.48645215513417
 20
12.41535128075279
 30
0.0
 10
26.70990237551181
 20
12.36167686498838
 30
0.0
 10
26.88269442858108
 20
12.25339975894374
 30
0.0
 10
26.97882356082284
 20
12.08692106934554
 30
0.0
 10
27.02495806470293
 20
11.91893952239994
 30
0.0
 10
27.0408461947348
 20
11.74583784852275
 30
0.0
 10
27.04532421837285
 20
11.62462421133224
 30
0.0
 10
27.04649956935827
 20
11.56279755682613
 30
0.0
  0
LINE
  5
68
330
1F
100
AcDbEntity
  8
0
  6
Continuous
 62
     7
370
    25
100
AcDbLine
 10
27.0464995694
 20
11.5627975568
 30
0.0
 11
27.1430593089
 21
6.4834929674
 31
0.0
  0
SPLINE
  5
69
330
1F
100
AcDbEntity
  8
0
  6
Continuous
 62
     7
370
    25
100
AcDbSpline
210
0.0
220
0.0
230
1.0
 70
     8
 71
     3
 72
    40
 73
    36
 74
     0
 42
0.00000001
 43
0.00000001
 40
0.0
 40
0.0
 40
0.0
 40
0.0
 40
0.0117628763502146
 40
0.0199182429893692
 40
0.0241981668164685
 40
0.0296286802894752
 40
0.0377008074151716
 40
0.0583249293376946
 40
0.0965817684865442
 40
0.1457718390787173
 40
0.1839149187680713
 40
0.2211750241203942
 40
0.3479931409688655
 40
0.39958516357365
 40
0.4643393350345041
 40
0.5154718419494377
 40
0.5530268517131878
 40
0.619330531466557
 40
0.6362291322530284
 40
0.6486777334683662
 40
0.6594336956685749
 40
0.6683743714358692
 40
0.6755692003702074
 40
0.6830198968666523
 40
0.6941929988882778
 40
0.7292394561799157
 40
0.7691834387776104
 40
0.8115425132919653
 40
0.848998009984826
 40
0.896476060907176
 40
0.925477644562483
 40
0.9365868500185268
 40
0.9483247258014779
 40
0.9624462574228747
 40
1.0
 40
1.0
 40
1.0
 40
1.0
 10
27.14305930887556
 20
6.483492967437614
 30
0.0
 10
27.14608035748753
 20
6.324577604199417
 30
0.0
 10
27.14826064247674
 20
6.021696926790032
 30
0.0
 10
26.92956486417696
 20
5.711647963608397
 30
0.0
 10
26.66847833167164
 20
5.665917453041973
 30
0.0
 10
26.41464076341936
 20
5.680312669853526
 30
0.0
 10
25.94089278795592
 20
5.806244113765318
 30
0.0
 10
25.00884487707708
 20
6.017230295837858
 30
0.0
 10
23.51769418065079
 20
6.426680661002929
 30
0.0
 10
21.78835596782393
 20
6.909127847190128
 30
0.0
 10
20.09971562040516
 20
7.479128186376871
 30
0.0
 10
17.40718097989165
 20
8.532752379345919
 30
0.0
 10
14.53175120560057
 20
9.643413249123668
 30
0.0
 10
11.23518606079301
 20
10.75952564981608
 30
0.0
 10
8.889007759886729
 20
11.25317608192264
 30
0.0
 10
6.745921196347966
 20
11.7209955339919
 30
0.0
 10
4.553237852030754
 20
12.05243380737382
 30
0.0
 10
2.848892929966943
 20
12.29731444661398
 30
0.0
 10
1.487446440433652
 20
12.48070657377859
 30
0.0
 10
0.9110432671848213
 20
12.39024511869803
 30
0.0
 10
0.4987249469489485
 20
12.16840908398814
 30
0.0
 10
0.2344113725733942
 20
11.87665038081215
 30
0.0
 10
0.1073608462746673
 20
11.56135809010798
 30
0.0
 10
0.0136767627516272
 20
11.20175390070839
 30
0.0
 10
0.0470334636492398
 20
10.42890322469678
 30
0.0
 10
0.0143689178859083
 20
9.201561345307779
 30
0.0
 10
0.0524534746550302
 20
7.520406263824175
 30
0.0
 10
0.2668176692454613
 20
5.820877343357147
 30
0.0
 10
0.5697208269824624
 20
4.023576112355171
 30
0.0
 10
0.7897401508106333
 20
2.421008971000125
 30
0.0
 10
1.319321424429977
 20
1.21843280541339
 30
0.0
 10
1.920495462482444
 20
0.771389631688506
 30
0.0
 10
2.398762308909997
 20
0.5292921922078624
 30
0.0
 10
3.304960927355299
 20
0.4352113749620617
 30
0.0
 10
4.076617829919802
 20
0.3922249096383885
 30
0.0
 10
4.580838602511509
 20
0.3846468619148301
 30
0.0
  0
LINE
  5
6A
330
1F
100
AcDbEntity
  8
0
  6
Continuous
 62
     7
370
    25
100
AcDbLine
 10
4.5808386025
 20
0.3846468619
 30
0.0
 11
30.1740975743
 21
0.0
 31
0.0
  0
LINE
  5
6B
330
1F
100
AcDbEntity
  8
0
  6
Continuous
 62
     7
370
    25
100
AcDbLine
 10
17.6835963232
 20
24.7046748373
 30
0.0
 11
10.7927519896
 21
23.5146646495
 31
0.0
  0
SPLINE
  5
6C
330
1F
100
AcDbEntity
  8
0
  6
Continuous
 62
     7
370
    25
100
AcDbSpline
210
0.0
220
0.0
230
1.0
 70
     8
 71
     3
 72
   172
 73
   168
 74
     0
 42
0.00000001
 43
0.00000001
 40
0.0
 40
0.0
 40
0.0
 40
0.0
 40
0.00390625
 40
0.0078125
 40
0.015625
 40
0.0234375
 40
0.03125
 40
0.0390625
 40
0.04296875
 40
0.046875
 40
0.0546875
 40
0.05859375
 40
0.0625
 40
0.06640625
 40
0.0703125
 40
0.07421875
 40
0.078125
 40
0.0859375
 40
0.08984375
 40
0.09375
 40
0.09765625
 40
0.1015625
 40
0.10546875
 40
0.109375
 40
0.11328125
 40
0.1171875
 40
0.12109375
 40
0.123046875
 40
0.125
 40
0.12890625
 40
0.1328125
 40
0.134765625
 40
0.13671875
 40
0.140625
 40
0.142578125
 40
0.14453125
 40
0.1484375
 40
0.15234375
 40
0.15625
 40
0.1640625
 40
0.171875
 40
0.1796875
 40
0.1875
 40
0.1953125
 40
0.203125
 40
0.2109375
 40
0.21484375
 40
0.21875
 40
0.22265625
 40
0.2265625
 40
0.23046875
 40
0.234375
 40
0.23828125
 40
0.2421875
 40
0.244140625
 40
0.24609375
 40
0.25
 40
0.251953125
 40
0.25390625
 40
0.255859375
 40
0.2578125
 40
0.26171875
 40
0.265625
 40
0.26953125
 40
0.2734375
 40
0.27734375
 40
0.28125
 40
0.28515625
 40
0.2890625
 40
0.29296875
 40
0.296875
 40
0.30078125
 40
0.3046875
 40
0.30859375
 40
0.3125
 40
0.31640625
 40
0.3203125
 40
0.328125
 40
0.33203125
 40
0.3359375
 40
0.34375
 40
0.3515625
 40
0.359375
 40
0.3671875
 40
0.375
 40
0.3828125
 40
0.390625
 40
0.39453125
 40
0.3984375
 40
0.40625
 40
0.4140625
 40
0.421875
 40
0.4296875
 40
0.4375
 40
0.4453125
 40
0.453125
 40
0.45703125
 40
0.4609375
 40
0.462890625
 40
0.46484375
 40
0.466796875
 40
0.46875
 40
0.47265625
 40
0.4765625
 40
0.484375
 40
0.5
 40
0.515625
 40
0.5234375
 40
0.53125
 40
0.546875
 40
0.5625
 40
0.59375
 40
0.6015625
 40
0.609375
 40
0.6171875
 40
0.625
 40
0.6328125
 40
0.640625
 40
0.6484375
 40
0.65234375
 40
0.65625
 40
0.66015625
 40
0.6640625
 40
0.66796875
 40
0.671875
 40
0.6796875
 40
0.68359375
 40
0.6875
 40
0.69140625
 40
0.6953125
 40
0.69921875
 40
0.703125
 40
0.7109375
 40
0.71875
 40
0.7265625
 40
0.734375
 40
0.7421875
 40
0.75
 40
0.765625
 40
0.78125
 40
0.796875
 40
0.8125
 40
0.828125
 40
0.84375
 40
0.859375
 40
0.875
 40
0.890625
 40
0.8984375
 40
0.90625
 40
0.9140625
 40
0.91796875
 40
0.921875
 40
0.92578125
 40
0.9296875
 40
0.93359375
 40
0.9375
 40
0.94140625
 40
0.9453125
 40
0.953125
 40
0.9609375
 40
0.96875
 40
0.9765625
 40
0.984375
 40
0.9921875
 40
0.99609375
 40
0.998046875
 40
1.0
 40
1.0
 40
1.0
 40
1.0
 10
30.18536822065785
 20
0.7499153102390159
 30
0.0
 10
30.23853792537019
 20
0.7491162107539104
 30
0.0
 10
30.34554288258494
 20
0.7473117616637045
 30
0.0
 10
30.55420378877072
 20
0.7437789294952186
 30
0.0
 10
30.80856414741478
 20
0.7408583972954471
 30
0.0
 10
31.10204027791316
 20
0.7439036679176394
 30
0.0
 10
31.38349532586173
 20
0.7570545286424472
 30
0.0
 10
31.60874684674562
 20
0.7792402572313387
 30
0.0
 10
31.78479623919267
 20
0.8047756180862088
 30
0.0
 10
31.96141136709602
 20
0.8363302080161568
 30
0.0
 10
32.11608458297066
 20
0.8735639581352512
 30
0.0
 10
32.23724017731657
 20
0.9171038764185926
 30
0.0
 10
32.30872687319994
 20
0.9502682038692457
 30
0.0
 10
32.37900910682471
 20
0.9921582891624084
 30
0.0
 10
32.44939556200594
 20
1.044075303958717
 30
0.0
 10
32.51696259671096
 20
1.104475962412068
 30
0.0
 10
32.60092251674646
 20
1.194235695173178
 30
0.0
 10
32.67926223521398
 20
1.302143459668884
 30
0.0
 10
32.74897382423438
 20
1.424710542000358
 30
0.0
 10
32.79563476971652
 20
1.521599765736171
 30
0.0
 10
32.83686781805361
 20
1.623845496254716
 30
0.0
 10
32.87213613399057
 20
1.73003344588875
 30
0.0
 10
32.89805336595271
 20
1.830580489063856
 30
0.0
 10
32.91479120489546
 20
1.92548534004462
 30
0.0
 10
32.92253685624315
 20
2.012928683845808
 30
0.0
 10
32.92466196729794
 20
2.131819567911136
 30
0.0
 10
32.92213555190656
 20
2.251559773508341
 30
0.0
 10
32.91957506570942
 20
2.360526139585541
 30
0.0
 10
32.9179392124242
 20
2.477415369249788
 30
0.0
 10
32.91710835340649
 20
2.600678235817582
 30
0.0
 10
32.91282196319708
 20
2.699783124831601
 30
0.0
 10
32.90691360292143
 20
2.761288650780926
 30
0.0
 10
32.89890221836745
 20
2.817700603233212
 30
0.0
 10
32.88339057728138
 20
2.896057561901831
 30
0.0
 10
32.86216627206151
 20
2.989482771469004
 30
0.0
 10
32.83757235568562
 20
3.09677603531732
 30
0.0
 10
32.80831153454287
 20
3.229115328232012
 30
0.0
 10
32.77465863808079
 20
3.383334627061384
 30
0.0
 10
32.73057740360376
 20
3.583428159258323
 30
0.0
 10
32.6745619536303
 20
3.821009022349098
 30
0.0
 10
32.5981703938649
 20
4.113407160735853
 30
0.0
 10
32.51632724892628
 20
4.410275590512177
 30
0.0
 10
32.43103943356537
 20
4.712720048005805
 30
0.0
 10
32.34479821147148
 20
5.022250909328092
 30
0.0
 10
32.26117742418282
 20
5.333198583299694
 30
0.0
 10
32.19370338494057
 20
5.593481740910482
 30
0.0
 10
32.14134599287315
 20
5.801900652845902
 30
0.0
 10
32.10259138844138
 20
5.959717499107584
 30
0.0
 10
32.06572538220215
 20
6.11328275296467
 30
0.0
 10
32.03017543050868
 20
6.25762101699805
 30
0.0
 10
31.99415923899727
 20
6.39185478563665
 30
0.0
 10
31.94988397841222
 20
6.550311952460826
 30
0.0
 10
31.90398168917048
 20
6.729508528522378
 30
0.0
 10
31.86953231574771
 20
6.898469942255171
 30
0.0
 10
31.84916122635311
 20
7.045970775923543
 30
0.0
 10
31.83567405876814
 20
7.186132457658283
 30
0.0
 10
31.82959916074826
 20
7.318260668237391
 30
0.0
 10
31.82769648793068
 20
7.441610010534141
 30
0.0
 10
31.82763778839799
 20
7.529258130479618
 30
0.0
 10
31.82825069167883
 20
7.614354150688698
 30
0.0
 10
31.83039579534114
 20
7.733741690326269
 30
0.0
 10
31.83669074582826
 20
7.889883170469233
 30
0.0
 10
31.85424550482727
 20
8.089377210557993
 30
0.0
 10
31.8860868325445
 20
8.298840190325294
 30
0.0
 10
31.93965393814813
 20
8.52078836193003
 30
0.0
 10
32.00986176170804
 20
8.726910032732283
 30
0.0
 10
32.08941482046233
 20
8.916025137264583
 30
0.0
 10
32.17858859773036
 20
9.097972303479246
 30
0.0
 10
32.28347437775903
 20
9.281132991959156
 30
0.0
 10
32.40609123848522
 20
9.460794268941
 30
0.0
 10
32.53111493854365
 20
9.61871626119849
 30
0.0
 10
32.65522612549995
 20
9.760664303771977
 30
0.0
 10
32.77511430115383
 20
9.889724089504169
 30
0.0
 10
32.90183243248978
 20
10.01898919089556
 30
0.0
 10
33.03587480237952
 20
10.14654838493015
 30
0.0
 10
33.16774865848369
 20
10.26403769775134
 30
0.0
 10
33.3370283196507
 20
10.40928148564729
 30
0.0
 10
33.49366810317728
 20
10.54105367747689
 30
0.0
 10
33.63330752741536
 20
10.665078601815
 30
0.0
 10
33.7588953360068
 20
10.78365209697348
 30
0.0
 10
33.90614816184978
 20
10.93983680653047
 30
0.0
 10
34.06680470656447
 20
11.1399468685305
 30
0.0
 10
34.20645080441959
 20
11.34678630969385
 30
0.0
 10
34.33365747932387
 20
11.57408840750495
 30
0.0
 10
34.45379612873213
 20
11.82373720147326
 30
0.0
 10
34.57055038367806
 20
12.09368788599655
 30
0.0
 10
34.66949518826929
 20
12.33360777556409
 30
0.0
 10
34.75361147318802
 20
12.53416996995165
 30
0.0
 10
34.83620408708209
 20
12.72855684296737
 30
0.0
 10
34.93477984185426
 20
12.96265436637165
 30
0.0
 10
35.03967281172375
 20
13.23091884852245
 30
0.0
 10
35.1261015393811
 20
13.48745639969696
 30
0.0
 10
35.19136789150717
 20
13.73718460596457
 30
0.0
 10
35.23331762082397
 20
13.98026078718309
 30
0.0
 10
35.24951918774419
 20
14.21378009600899
 30
0.0
 10
35.23845338470861
 20
14.37744284033457
 30
0.0
 10
35.21510844094925
 20
14.49328070145166
 30
0.0
 10
35.19856979569194
 20
14.54368360537059
 30
0.0
 10
35.18659092562758
 20
14.57040767461261
 30
0.0
 10
35.18058417611582
 20
14.58144849488699
 30
0.0
 10
35.1726608320984
 20
14.59366706171253
 30
0.0
 10
35.15426436973596
 20
14.61758002228194
 30
0.0
 10
35.1173705905674
 20
14.65666643122644
 30
0.0
 10
35.02635432666121
 20
14.73264996429769
 30
0.0
 10
34.82607485928889
 20
14.86056179338081
 30
0.0
 10
34.41988203683164
 20
15.0280819424022
 30
0.0
 10
33.95757014380508
 20
15.16178589645505
 30
0.0
 10
33.55423276359485
 20
15.26841527133885
 30
0.0
 10
33.1300906210035
 20
15.38414887992053
 30
0.0
 10
32.60738677002527
 20
15.54277231541802
 30
0.0
 10
31.78350238846198
 20
15.81989671794042
 30
0.0
 10
31.07774068916322
 20
16.0884211999342
 30
0.0
 10
30.48270586861463
 20
16.32903137556244
 30
0.0
 10
30.18520372731094
 20
16.45169022628951
 30
0.0
 10
29.88430079125982
 20
16.58017393420234
 30
0.0
 10
29.58072392171386
 20
16.71668289777892
 30
0.0
 10
29.2805715400959
 20
16.86124841619739
 30
0.0
 10
28.99332052276941
 20
17.00545457394619
 30
0.0
 10
28.76111186738324
 20
17.12142411762663
 30
0.0
 10
28.56181777260949
 20
17.22352573393672
 30
0.0
 10
28.40654849367585
 20
17.30685486573409
 30
0.0
 10
28.25376872394797
 20
17.39434639052523
 30
0.0
 10
28.11024629291981
 20
17.48001152304629
 30
0.0
 10
27.97353791240077
 20
17.56305950837176
 30
0.0
 10
27.79625980391164
 20
17.67065696103219
 30
0.0
 10
27.62480807737543
 20
17.77285084106654
 30
0.0
 10
27.4586532286704
 20
17.86626126904797
 30
0.0
 10
27.32506318677085
 20
17.93890805307726
 30
0.0
 10
27.18484517596691
 20
18.01465902096113
 30
0.0
 10
27.03854769363426
 20
18.09507893166602
 30
0.0
 10
26.88672498526464
 20
18.181970743078
 30
0.0
 10
26.68088889943796
 20
18.3078659156674
 30
0.0
 10
26.43758756612957
 20
18.4715250883815
 30
0.0
 10
26.15998084068722
 20
18.67645344912826
 30
0.0
 10
25.89689308079449
 20
18.88442737469746
 30
0.0
 10
25.64199905978827
 20
19.09426080318574
 30
0.0
 10
25.38606365181871
 20
19.31592393246574
 30
0.0
 10
25.04895889556773
 20
19.6307935150382
 30
0.0
 10
24.66529344130878
 20
20.03035142125864
 30
0.0
 10
24.23804960302434
 20
20.49625380063357
 30
0.0
 10
23.82448679320943
 20
20.92339086404541
 30
0.0
 10
23.38505755022364
 20
21.34002790787043
 30
0.0
 10
22.92958281698235
 20
21.74692972917277
 30
0.0
 10
22.46086515985488
 20
22.14654176414176
 30
0.0
 10
21.98182040048871
 20
22.54159905477241
 30
0.0
 10
21.49574296897694
 20
22.93423355859054
 30
0.0
 10
21.08490691021969
 20
23.26465241179243
 30
0.0
 10
20.75456282584307
 20
23.53431342006468
 30
0.0
 10
20.50670211670263
 20
23.73982732580423
 30
0.0
 10
20.29972992348572
 20
23.91497888801339
 30
0.0
 10
20.13588947843915
 20
24.05672184307983
 30
0.0
 10
20.0212690306706
 20
24.15550945692835
 30
0.0
 10
19.91205427594339
 20
24.24676824611927
 30
0.0
 10
19.80822903560513
 20
24.32879168564064
 30
0.0
 10
19.70862410917101
 20
24.40112635529408
 30
0.0
 10
19.61483655576046
 20
24.46198080448794
 30
0.0
 10
19.51667220344136
 20
24.51745024476256
 30
0.0
 10
19.37918465793948
 20
24.58481994204735
 30
0.0
 10
19.19767391669734
 20
24.6552642434321
 30
0.0
 10
18.96976286158796
 20
24.71599239028928
 30
0.0
 10
18.7249412324044
 20
24.75596004443949
 30
0.0
 10
18.46893327257681
 20
24.77593798971667
 30
0.0
 10
18.21636768620171
 20
24.77480469448854
 30
0.0
 10
18.01093410159737
 20
24.75568108083218
 30
0.0
 10
17.85125320043483
 20
24.73246353040989
 30
0.0
 10
17.75687487191884
 20
24.71719647175641
 30
0.0
 10
17.70785747639445
 20
24.70886460247942
 30
0.0
 10
17.68359632323382
 20
24.70467483733143
 30
0.0
  0
LINE
  5
6D
330
1F
100
AcDbEntity
  8
0
  6
Continuous
 62
     7
370
    25
100
AcDbLine
 10
4.5921092489
 20
1.1345621722
 30
0.0
 11
30.1853682207
 21
0.7499153102
 31
0.0
  0
SPLINE
  5
6E
330
1F
100
AcDbEntity
  8
0
  6
Continuous
 62
     7
370
    25
100
AcDbSpline
210
0.0
220
0.0
230
1.0
 70
     8
 71
     3
 72
   137
 73
   133
 74
     0
 42
0.00000001
 43
0.00000001
 40
0.0
 40
0.0
 40
0.0
 40
0.0
 40
0.0009765625
 40
0.001953125
 40
0.00390625
 40
0.005859375
 40
0.0078125
 40
0.009765625
 40
0.01171875
 40
0.013671875
 40
0.015625
 40
0.017578125
 40
0.0185546875
 40
0.01953125
 40
0.0205078125
 40
0.021484375
 40
0.0224609375
 40
0.0234375
 40
0.0244140625
 40
0.025390625
 40
0.02734375
 40
0.029296875
 40
0.03125
 40
0.033203125
 40
0.03515625
 40
0.037109375
 40
0.0390625
 40
0.04296875
 40
0.046875
 40
0.05078125
 40
0.0546875
 40
0.0625
 40
0.0703125
 40
0.078125
 40
0.0859375
 40
0.09375
 40
0.1015625
 40
0.109375
 40
0.125
 40
0.140625
 40
0.15625
 40
0.171875
 40
0.1875
 40
0.203125
 40
0.21875
 40
0.234375
 40
0.25
 40
0.28125
 40
0.3125
 40
0.34375
 40
0.375
 40
0.390625
 40
0.40625
 40
0.4375
 40
0.453125
 40
0.46875
 40
0.5
 40
0.515625
 40
0.53125
 40
0.546875
 40
0.5625
 40
0.578125
 40
0.59375
 40
0.6015625
 40
0.609375
 40
0.6171875
 40
0.62109375
 40
0.625
 40
0.6328125
 40
0.640625
 40
0.64453125
 40
0.6484375
 40
0.65625
 40
0.66015625
 40
0.6640625
 40
0.666015625
 40
0.66796875
 40
0.669921875
 40
0.671875
 40
0.673828125
 40
0.67578125
 40
0.677734375
 40
0.6796875
 40
0.681640625
 40
0.68359375
 40
0.685546875
 40
0.6875
 40
0.69140625
 40
0.693359375
 40
0.6953125
 40
0.69921875
 40
0.703125
 40
0.7109375
 40
0.71875
 40
0.7265625
 40
0.734375
 40
0.75
 40
0.765625
 40
0.78125
 40
0.8125
 40
0.828125
 40
0.84375
 40
0.8515625
 40
0.859375
 40
0.875
 40
0.8828125
 40
0.890625
 40
0.8984375
 40
0.90625
 40
0.9140625
 40
0.921875
 40
0.923828125
 40
0.92578125
 40
0.9296875
 40
0.93359375
 40
0.935546875
 40
0.9375
 40
0.94140625
 40
0.9453125
 40
0.947265625
 40
0.94921875
 40
0.953125
 40
0.95703125
 40
0.9609375
 40
0.96484375
 40
0.96875
 40
0.97265625
 40
0.9765625
 40
0.984375
 40
0.9921875
 40
0.99609375
 40
1.0
 40
1.0
 40
1.0
 40
1.0
 10
27.89292382199919
 20
6.497748210608455
 30
0.0
 10
27.89319974645441
 20
6.483233834754601
 30
0.0
 10
27.89370260480639
 20
6.4552878634154
 30
0.0
 10
27.89440310340862
 20
6.390721122633979
 30
0.0
 10
27.89381259668716
 20
6.300516879395723
 30
0.0
 10
27.88767413391454
 20
6.176310755679471
 30
0.0
 10
27.87203060451401
 20
6.037273278598543
 30
0.0
 10
27.84193185798978
 20
5.884442813627212
 30
0.0
 10
27.79101979458216
 20
5.719311942739405
 30
0.0
 10
27.71470148466458
 20
5.549792546728544
 30
0.0
 10
27.60715706407437
 20
5.379196146378262
 30
0.0
 10
27.48124597754435
 20
5.238473084788956
 30
0.0
 10
27.35201830523108
 20
5.134199248630553
 30
0.0
 10
27.240068866676
 20
5.063324372341184
 30
0.0
 10
27.11284996326519
 20
5.004731334553831
 30
0.0
 10
26.99817763418322
 20
4.96813953010132
 30
0.0
 10
26.89461480239252
 20
4.945249096076612
 30
0.0
 10
26.80270322376727
 20
4.932205788434007
 30
0.0
 10
26.72395062294348
 20
4.925503862747112
 30
0.0
 10
26.62363477792677
 20
4.921384125785718
 30
0.0
 10
26.50326174886252
 20
4.924368794939041
 30
0.0
 10
26.36943992994428
 20
4.937653439872813
 30
0.0
 10
26.24679082221902
 20
4.957474655082608
 30
0.0
 10
26.13690994563888
 20
4.980457707686052
 30
0.0
 10
26.03874933315642
 20
5.004071818859432
 30
0.0
 10
25.95231038126262
 20
5.026224332459877
 30
0.0
 10
25.85046103064705
 20
5.052104873668621
 30
0.0
 10
25.71832958816123
 20
5.084638456238377
 30
0.0
 10
25.55897192323366
 20
5.122885107015472
 30
0.0
 10
25.39699474154727
 20
5.161257031547543
 30
0.0
 10
25.1783566995684
 20
5.213021960189066
 30
0.0
 10
24.89920481941098
 20
5.280871080518096
 30
0.0
 10
24.56795264396379
 20
5.365552590837647
 30
0.0
 10
24.23860379742395
 20
5.45262972861752
 30
0.0
 10
23.9114556313085
 20
5.541309259988952
 30
0.0
 10
23.58626857570194
 20
5.630829146908319
 30
0.0
 10
23.26285076074175
 20
5.720297610183588
 30
0.0
 10
22.82996331578138
 20
5.840697635722657
 30
0.0
 10
22.28733728378048
 20
5.994329366183261
 30
0.0
 10
21.63432725242801
 20
6.187355172303248
 30
0.0
 10
20.98085332137305
 20
6.393233004165073
 30
0.0
 10
20.33217685141129
 20
6.611580499911136
 30
0.0
 10
19.68655660441682
 20
6.843213117872141
 30
0.0
 10
19.05036322804432
 20
7.084737619739667
 30
0.0
 10
18.42298043880222
 20
7.329406288983061
 30
0.0
 10
17.80018560346636
 20
7.572344413287341
 30
0.0
 10
16.96880330159163
 20
7.895006972349822
 30
0.0
 10
15.9299976581873
 20
8.294038830638184
 30
0.0
 10
14.68210743436229
 20
8.762235723112488
 30
0.0
 10
13.42957030492348
 20
9.21591273567935
 30
0.0
 10
12.38645395396855
 20
9.578282719011417
 30
0.0
 10
11.55691051371265
 20
9.839308956053463
 30
0.0
 10
10.72938109151604
 20
10.07365079156324
 30
0.0
 10
9.879095965120252
 20
10.27466451261727
 30
0.0
 10
9.01367595892762
 20
10.46280103448232
 30
0.0
 10
8.136994328306768
 20
10.650577352142
 30
0.0
 10
7.269828632372749
 20
10.83728581745029
 30
0.0
 10
6.412820523736509
 20
11.0008750337613
 30
0.0
 10
5.766652751071899
 20
11.10909862247797
 30
0.0
 10
5.111014510096551
 20
11.20924632060969
 30
0.0
 10
4.449427988978405
 20
11.30701323111539
 30
0.0
 10
3.789145772444239
 20
11.40338864759797
 30
0.0
 10
3.23838007748358
 20
11.48221583439485
 30
0.0
 10
2.797459237941276
 20
11.5443520462629
 30
0.0
 10
2.466165407811167
 20
11.59056544690332
 30
0.0
 10
2.190689141371069
 20
11.62843044372484
 30
0.0
 10
1.968012418507614
 20
11.65903781123097
 30
0.0
 10
1.76335482001593
 20
11.68563495660507
 30
0.0
 10
1.54026910695222
 20
11.70462991987055
 30
0.0
 10
1.360344298817453
 20
11.6966785475645
 30
0.0
 10
1.231957689230192
 20
11.67407991180849
 30
0.0
 10
1.120610173470097
 20
11.64258992497463
 30
0.0
 10
1.027209786923197
 20
11.59706002414626
 30
0.0
 10
0.9536465980129806
 20
11.5423284642392
 30
0.0
 10
0.9172548158686058
 20
11.50629467912477
 30
0.0
 10
0.8956326627684025
 20
11.4795005773419
 30
0.0
 10
0.8836381769297135
 20
11.46190700903306
 30
0.0
 10
0.8738134928344641
 20
11.44478539997068
 30
0.0
 10
0.8592959072771872
 20
11.41452193690042
 30
0.0
 10
0.8431448904574893
 20
11.37441086445566
 30
0.0
 10
0.8245298898281522
 20
11.32083232121437
 30
0.0
 10
0.8079717834467884
 20
11.26694515348973
 30
0.0
 10
0.7955578734003367
 20
11.21939820517842
 30
0.0
 10
0.7865942239810868
 20
11.17610001185255
 30
0.0
 10
0.7813349263001694
 20
11.14105676095921
 30
0.0
 10
0.7774137564235163
 20
11.09809827180876
 30
0.0
 10
0.7743938518128568
 20
11.02769181678894
 30
0.0
 10
0.7751485707241513
 20
10.93851625753832
 30
0.0
 10
0.778207092391175
 20
10.83141852753291
 30
0.0
 10
0.7813759112730262
 20
10.71222891799555
 30
0.0
 10
0.7838900719286186
 20
10.56631072983661
 30
0.0
 10
0.7858068746266219
 20
10.3338914828004
 30
0.0
 10
0.7849037041310475
 20
10.04777540538281
 30
0.0
 10
0.7813558248987068
 20
9.710373045893096
 30
0.0
 10
0.7778682328525965
 20
9.378864088311081
 30
0.0
 10
0.7768511977706414
 20
8.943694889775132
 30
0.0
 10
0.7851295993702903
 20
8.401038686614404
 30
0.0
 10
0.814085732357715
 20
7.756843231816024
 30
0.0
 10
0.8853085464472279
 20
6.904997275271899
 30
0.0
 10
1.000390174688662
 20
6.042565447798808
 30
0.0
 10
1.137965851890799
 20
5.168863097198261
 30
0.0
 10
1.227309450492087
 20
4.617283675550465
 30
0.0
 10
1.296864361465589
 20
4.170079947537835
 30
0.0
 10
1.36338183484709
 20
3.732865157426648
 30
0.0
 10
1.43312323397458
 20
3.312929551383202
 30
0.0
 10
1.518568708755971
 20
2.909666687062442
 30
0.0
 10
1.593017420511895
 20
2.616489289794337
 30
0.0
 10
1.681774215024393
 20
2.327350158209409
 30
0.0
 10
1.782098319037106
 20
2.06228546224367
 30
0.0
 10
1.894423084409393
 20
1.838497951426298
 30
0.0
 10
1.984938756962883
 20
1.708748717987655
 30
0.0
 10
2.047199650258806
 20
1.637750952394795
 30
0.0
 10
2.08826827247051
 20
1.595270679476936
 30
0.0
 10
2.148084376733274
 20
1.541913643336988
 30
0.0
 10
2.221905564381042
 20
1.486660959460564
 30
0.0
 10
2.287970467863855
 20
1.442598604242875
 30
0.0
 10
2.359204035022847
 20
1.398212413423155
 30
0.0
 10
2.443842073535123
 20
1.350979791772883
 30
0.0
 10
2.521373423665952
 20
1.315460440080008
 30
0.0
 10
2.57832783647217
 20
1.294128465000797
 30
0.0
 10
2.630186642963507
 20
1.277716442071793
 30
0.0
 10
2.710041085610242
 20
1.258840066956266
 30
0.0
 10
2.830287885657345
 20
1.240231792941396
 30
0.0
 10
2.974546428407251
 20
1.225076083365129
 30
0.0
 10
3.141253537715255
 20
1.210390258838019
 30
0.0
 10
3.305709439533399
 20
1.196842829650847
 30
0.0
 10
3.471347871948431
 20
1.184472833601426
 30
0.0
 10
3.691619017925201
 20
1.169608651011957
 30
0.0
 10
3.965252461423836
 20
1.154185354624711
 30
0.0
 10
4.232355996585517
 20
1.143242564107921
 30
0.0
 10
4.440737250514176
 20
1.137308798850492
 30
0.0
 10
4.541349663573918
 20
1.135325049410472
 30
0.0
 10
4.592109248860345
 20
1.134562172153846
 30
0.0
  0
LINE
  5
6F
330
1F
100
AcDbEntity
  8
0
  6
Continuous
 62
     7
370
    25
100
AcDbLine
 10
27.7963640825
 20
11.5770528
 30
0.0
 11
27.892923822
 21
6.4977482106
 31
0.0
  0
SPLINE
  5
70
330
1F
100
AcDbEntity
  8
0
  6
Continuous
 62
     7
370
    25
100
AcDbSpline
210
0.0
220
0.0
230
1.0
 70
     8
 71
     3
 72
    24
 73
    20
 74
     0
 42
0.00000001
 43
0.00000001
 40
0.0
 40
0.0
 40
0.0
 40
0.0
 40
0.125
 40
0.1875
 40
0.21875
 40
0.25
 40
0.3125
 40
0.375
 40
0.4375
 40
0.46875
 40
0.5
 40
0.53125
 40
0.5625
 40
0.625
 40
0.6875
 40
0.75
 40
0.8125
 40
0.875
 40
1.0
 40
1.0
 40
1.0
 40
1.0
 10
26.20681383416008
 20
13.17240182421254
 30
0.0
 10
26.29579992307463
 20
13.17548417367795
 30
0.0
 10
26.42935182045927
 20
13.17169479158115
 30
0.0
 10
26.58505365047208
 20
13.15283383051326
 30
0.0
 10
26.6728358256072
 20
13.13813596836329
 30
0.0
 10
26.7695235334823
 20
13.11852225730488
 30
0.0
 10
26.90631601294171
 20
13.08153197147991
 30
0.0
 10
27.08856811350614
 20
13.00561272834179
 30
0.0
 10
27.23993113880873
 20
12.91272114474821
 30
0.0
 10
27.35855827835198
 20
12.8154754863145
 30
0.0
 10
27.44619916050175
 20
12.72706025223016
 30
0.0
 10
27.52039469911161
 20
12.63395526774762
 30
0.0
 10
27.60083033486621
 20
12.510897143503
 30
0.0
 10
27.67284130597095
 20
12.36231201339642
 30
0.0
 10
27.7289817237441
 20
12.19434854416823
 30
0.0
 10
27.76339017329781
 20
12.03465753529265
 30
0.0
 10
27.78076993023148
 20
11.89415091572605
 30
0.0
 10
27.79151685148674
 20
11.7438480144873
 30
0.0
 10
27.79505795994603
 20
11.64575839327932
 30
0.0
 10
27.7963640824819
 20
11.57705279999702
 30
0.0
  0
LINE
  5
71
330
1F
100
AcDbEntity
  8
0
  6
Continuous
 62
     7
370
    25
100
AcDbLine
 10
22.6183319237
 20
13.048101999
 30
0.0
 11
26.2068138342
 21
13.1724018242
 31
0.0
  0
SPLINE
  5
72
330
1F
100
AcDbEntity
  8
0
  6
Continuous
 62
     7
370
    25
100
AcDbSpline
210
0.0
220
0.0
230
1.0
 70
     8
 71
     3
 72
   106
 73
   102
 74
     0
 42
0.00000001
 43
0.00000001
 40
0.0
 40
0.0
 40
0.0
 40
0.0
 40
0.00390625
 40
0.0078125
 40
0.015625
 40
0.0234375
 40
0.03125
 40
0.046875
 40
0.0625
 40
0.0703125
 40
0.078125
 40
0.09375
 40
0.1015625
 40
0.109375
 40
0.125
 40
0.140625
 40
0.1484375
 40
0.15625
 40
0.171875
 40
0.1875
 40
0.21875
 40
0.25
 40
0.265625
 40
0.28125
 40
0.296875
 40
0.3125
 40
0.328125
 40
0.34375
 40
0.359375
 40
0.375
 40
0.40625
 40
0.421875
 40
0.4375
 40
0.4453125
 40
0.453125
 40
0.46875
 40
0.484375
 40
0.5
 40
0.515625
 40
0.5234375
 40
0.53125
 40
0.5390625
 40
0.546875
 40
0.5546875
 40
0.55859375
 40
0.5625
 40
0.56640625
 40
0.568359375
 40
0.5703125
 40
0.572265625
 40
0.57421875
 40
0.578125
 40
0.58203125
 40
0.5859375
 40
0.58984375
 40
0.591796875
 40
0.59375
 40
0.595703125
 40
0.59765625
 40
0.5986328125
 40
0.599609375
 40
0.6015625
 40
0.603515625
 40
0.60546875
 40
0.609375
 40
0.611328125
 40
0.61328125
 40
0.615234375
 40
0.6171875
 40
0.62109375
 40
0.625
 40
0.6328125
 40
0.640625
 40
0.6484375
 40
0.65625
 40
0.6640625
 40
0.671875
 40
0.6875
 40
0.703125
 40
0.71875
 40
0.734375
 40
0.75
 40
0.78125
 40
0.8125
 40
0.828125
 40
0.84375
 40
0.859375
 40
0.875
 40
0.890625
 40
0.90625
 40
0.921875
 40
0.9296875
 40
0.9375
 40
0.953125
 40
0.9609375
 40
0.96875
 40
0.9765625
 40
0.984375
 40
0.9921875
 40
0.99609375
 40
1.0
 40
1.0
 40
1.0
 40
1.0
 10
10.79275198959538
 20
23.51466464951502
 30
0.0
 10
10.76522675273749
 20
23.50991119541027
 30
0.0
 10
10.71078568082303
 20
23.49978106254941
 30
0.0
 10
10.59852774988699
 20
23.47614064669549
 30
0.0
 10
10.4547059886667
 20
23.44096071265697
 30
0.0
 10
10.27743936736168
 20
23.3909490502056
 30
0.0
 10
10.03195346887199
 20
23.3144581712636
 30
0.0
 10
9.741362202624144
 20
23.2129090508101
 30
0.0
 10
9.488157539334326
 20
23.09882265174348
 30
0.0
 10
9.308123972726657
 20
22.99654933597838
 30
0.0
 10
9.130454596107741
 20
22.87962234093444
 30
0.0
 10
8.960249982419977
 20
22.74333749563878
 30
0.0
 10
8.799665746116796
 20
22.59031168072723
 30
0.0
 10
8.645214030643674
 20
22.42591694117246
 30
0.0
 10
8.47448532338498
 20
22.21139656973411
 30
0.0
 10
8.349082842634802
 20
21.99838248422619
 30
0.0
 10
8.276150383743257
 20
21.8280957442748
 30
0.0
 10
8.21455600828781
 20
21.64234951526748
 30
0.0
 10
8.162199935672193
 20
21.38935615384746
 30
0.0
 10
8.131311254240874
 20
20.95506694321833
 30
0.0
 10
8.190272711950534
 20
20.40413518137798
 30
0.0
 10
8.369239795168431
 20
19.85667916296156
 30
0.0
 10
8.571067153051125
 20
19.47051676620863
 30
0.0
 10
8.74986582372165
 20
19.21349167055672
 30
0.0
 10
8.963469361124456
 20
18.98162852980594
 30
0.0
 10
9.207513058756263
 20
18.77863394002043
 30
0.0
 10
9.476689901332916
 20
18.60948777651295
 30
0.0
 10
9.769870645450837
 20
18.47395309573942
 30
0.0
 10
10.07943696441292
 20
18.37532047076222
 30
0.0
 10
10.50568691261321
 20
18.29547863812758
 30
0.0
 10
10.95468695804235
 20
18.29077475133562
 30
0.0
 10
11.40383533238768
 20
18.35846561765589
 30
0.0
 10
11.67704495510556
 20
18.42859602177363
 30
0.0
 10
11.8809230205268
 20
18.50011266323686
 30
0.0
 10
12.07257192996777
 20
18.58109979004704
 30
0.0
 10
12.31477957686856
 20
18.71135164780644
 30
0.0
 10
12.61609982347205
 20
18.91042260675248
 30
0.0
 10
12.92945309057796
 20
19.14282847658789
 30
0.0
 10
13.20481943784729
 20
19.3553653582989
 30
0.0
 10
13.43494362787532
 20
19.52838110254618
 30
0.0
 10
13.60768216239403
 20
19.65543683460779
 30
0.0
 10
13.7817843778396
 20
19.78077951514993
 30
0.0
 10
13.95781773313302
 20
19.90440157426362
 30
0.0
 10
14.10061726200647
 20
20.00306156476907
 30
0.0
 10
14.21243052768313
 20
20.08052992805491
 30
0.0
 10
14.29499692401005
 20
20.13807518679852
 30
0.0
 10
14.36255023416457
 20
20.18564638044636
 30
0.0
 10
14.41610214628074
 20
20.22378094924193
 30
0.0
 10
14.45527439560529
 20
20.25189752797737
 30
0.0
 10
14.49646462448425
 20
20.28177972696886
 30
0.0
 10
14.56176356614869
 20
20.32866058015674
 30
0.0
 10
14.66055111593144
 20
20.39645017636368
 30
0.0
 10
14.81356093934673
 20
20.48560471173082
 30
0.0
 10
15.00616745258584
 20
20.56880502809708
 30
0.0
 10
15.20066918078288
 20
20.61791232300284
 30
0.0
 10
15.37575442637762
 20
20.63407211059226
 30
0.0
 10
15.51759173975338
 20
20.63141397601851
 30
0.0
 10
15.6721903951508
 20
20.60872813293501
 30
0.0
 10
15.81133148020509
 20
20.56662118363767
 30
0.0
 10
15.92537727048738
 20
20.51403573772633
 30
0.0
 10
16.02465891806611
 20
20.45716995847473
 30
0.0
 10
16.12735165356791
 20
20.38131888727579
 30
0.0
 10
16.22162260084744
 20
20.29288656116559
 30
0.0
 10
16.31956452424971
 20
20.18342236101617
 30
0.0
 10
16.38855269501111
 20
20.08732734957608
 30
0.0
 10
16.43733604074334
 20
20.01383218766588
 30
0.0
 10
16.46385705267614
 20
19.97325517855046
 30
0.0
 10
16.49007559515332
 20
19.93380510025313
 30
0.0
 10
16.52584063773629
 20
19.88052181197559
 30
0.0
 10
16.57145215739926
 20
19.81359877210472
 30
0.0
 10
16.64641017212678
 20
19.70532340849978
 30
0.0
 10
16.74334926992473
 20
19.56743276579442
 30
0.0
 10
16.86068356344622
 20
19.40263605281831
 30
0.0
 10
16.97948344557521
 20
19.2377064425456
 30
0.0
 10
17.09942240394264
 20
19.0727162132144
 30
0.0
 10
17.22036773663141
 20
18.9075168431326
 30
0.0
 10
17.38279025488624
 20
18.68677223302078
 30
0.0
 10
17.58716908026215
 20
18.41011506223893
 30
0.0
 10
17.83316949918715
 20
18.07775583007928
 30
0.0
 10
18.07968953258245
 20
17.74450165556919
 30
0.0
 10
18.32626925308351
 20
17.40964434252847
 30
0.0
 10
18.65239658118052
 20
16.96572353077437
 30
0.0
 10
19.05774075230106
 20
16.41830447760433
 30
0.0
 10
19.47140724401107
 20
15.88217358946268
 30
0.0
 10
19.80980086631838
 20
15.45186692278344
 30
0.0
 10
20.06521216728569
 20
15.12924351154921
 30
0.0
 10
20.32231422750905
 20
14.80611506536346
 30
0.0
 10
20.57919852356187
 20
14.48316323720483
 30
0.0
 10
20.83145135885762
 20
14.17337079812249
 30
0.0
 10
21.08524778059097
 20
13.87827481494487
 30
0.0
 10
21.29875464586206
 20
13.64993022796315
 30
0.0
 10
21.47611335905262
 20
13.47522120536077
 30
0.0
 10
21.63928972531595
 20
13.32674976433968
 30
0.0
 10
21.78958895360033
 20
13.21747001304134
 30
0.0
 10
21.93903970443085
 20
13.14014502697183
 30
0.0
 10
22.04794937164898
 20
13.09856910738457
 30
0.0
 10
22.168529532018
 20
13.06795892816087
 30
0.0
 10
22.29207144281158
 20
13.05060848696596
 30
0.0
 10
22.41743380020586
 20
13.04501714076457
 30
0.0
 10
22.52824790362714
 20
13.04544585527184
 30
0.0
 10
22.58873506729154
 20
13.04707680668546
 30
0.0
 10
22.61833192374192
 20
13.04810199900227
 30
0.0
  0
MTEXT
  5
74
330
1F
100
AcDbEntity
  8
0
  6
Continuous
 62
     7
100
AcDbMText
 10
0.0256660394
 20
-0.0401404091
 30
0.0
 40
0.1903
 41
0.0
 71
     1
 72
     1
  1
SOLIDWORKS Educational Product.
  7
SLDTEXTSTYLE0
 73
     1
 44
1.0
  0
MTEXT
  5
75
330
1F
100
AcDbEntity
  8
0
  6
Continuous
 62
     7
100
AcDbMText
 10
0.0256660394
 20
-0.3255904091
 30
0.0
 40
0.1903
 41
0.0
 71
     1
 72
     1
  1
For Instructional Use Only.
  7
SLDTEXTSTYLE0
 73
     1
 44
1.0
  0
ENDSEC
  0
SECTION
  2
OBJECTS
  0
DICTIONARY
  5
C
330
0
100
AcDbDictionary
281
     1
  3
ACAD_GROUP
350
D
  3
ACAD_LAYOUT
350
1A
  3
ACAD_MLINESTYLE
350
17
  3
ACAD_PLOTSETTINGS
350
19
  3
ACAD_PLOTSTYLENAME
350
E
  3
ACAD_SCALELIST
350
47
  3
DWGPROPS
350
76
  0
DICTIONARY
  5
D
102
{ACAD_REACTORS
330
C
102
}
330
C
100
AcDbDictionary
281
     1
  0
DICTIONARY
  5
1A
102
{ACAD_REACTORS
330
C
102
}
330
C
100
AcDbDictionary
281
     1
  3
Layout1
350
1E
  3
Layout2
350
26
  3
Model
350
22
  0
DICTIONARY
  5
17
102
{ACAD_REACTORS
330
C
102
}
330
C
100
AcDbDictionary
281
     1
  3
Standard
350
18
  0
DICTIONARY
  5
19
102
{ACAD_REACTORS
330
C
102
}
330
C
100
AcDbDictionary
281
     1
  0
ACDBDICTIONARYWDFLT
  5
E
102
{ACAD_REACTORS
330
C
102
}
330
C
100
AcDbDictionary
281
     1
  3
Normal
350
F
100
AcDbDictionaryWithDefault
340
F
  0
DICTIONARY
  5
47
102
{ACAD_REACTORS
330
C
102
}
330
C
100
AcDbDictionary
281
     1
  3
A0
350
48
  3
A1
350
49
  3
A2
350
4A
  3
A3
350
4B
  3
A4
350
4C
  3
A5
350
4D
  3
A6
350
4E
  3
A7
350
4F
  3
A8
350
50
  3
A9
350
51
  3
B1
350
52
  3
B2
350
53
  3
B3
350
54
  3
B4
350
55
  3
B5
350
56
  3
B6
350
57
  3
B7
350
58
  0
XRECORD
  5
76
102
{ACAD_REACTORS
330
C
102
}
330
C
100
AcDbXrecord
280
     1
  1
DWGPROPS COOKIE
  2

  3

  4

  6

  7

  8
jakob
  9

300
=
301
=
302
=
303
=
304
=
305
=
306
=
307
=
308
=
309
=
 40
0.0
 41
2460251.143889792
 42
2460251.144067535
  1

 90
        0
  0
LAYOUT
  5
1E
102
{ACAD_REACTORS
330
1A
102
}
330
1A
100
AcDbPlotSettings
  1

  2
none_device
  4

  6

 40
0.0
 41
0.0
 42
0.0
 43
0.0
 44
0.0
 45
0.0
 46
0.0
 47
0.0
 48
0.0
 49
0.0
140
0.0
141
0.0
142
1.0
143
1.0
 70
   688
 72
     0
 73
     0
 74
     5
  7

 75
    16
147
1.0
148
0.0
149
0.0
100
AcDbLayout
  1
Layout1
 70
     1
 71
     1
 10
0.0
 20
0.0
 11
12.0
 21
9.0
 12
0.0
 22
0.0
 32
0.0
 14
1.0000000000E+20
 24
1.0000000000E+20
 34
1.0000000000E+20
 15
-1.0000000000E+20
 25
-1.0000000000E+20
 35
-1.0000000000E+20
146
0.0
 13
0.0
 23
0.0
 33
0.0
 16
1.0
 26
0.0
 36
0.0
 17
0.0
 27
1.0
 37
0.0
 76
     0
330
1B
  0
LAYOUT
  5
26
102
{ACAD_REACTORS
330
1A
102
}
330
1A
100
AcDbPlotSettings
  1

  2
none_device
  4

  6

 40
0.0
 41
0.0
 42
0.0
 43
0.0
 44
0.0
 45
0.0
 46
0.0
 47
0.0
 48
0.0
 49
0.0
140
0.0
141
0.0
142
1.0
143
1.0
 70
   688
 72
     0
 73
     0
 74
     5
  7

 75
    16
147
1.0
148
0.0
149
0.0
100
AcDbLayout
  1
Layout2
 70
     1
 71
     2
 10
0.0
 20
0.0
 11
0.0
 21
0.0
 12
0.0
 22
0.0
 32
0.0
 14
0.0
 24
0.0
 34
0.0
 15
0.0
 25
0.0
 35
0.0
146
0.0
 13
0.0
 23
0.0
 33
0.0
 16
1.0
 26
0.0
 36
0.0
 17
0.0
 27
1.0
 37
0.0
 76
     0
330
23
  0
LAYOUT
  5
22
102
{ACAD_REACTORS
330
1A
102
}
330
1A
100
AcDbPlotSettings
  1

  2
none_device
  4
ANSI_A_(11.00_x_8.50_Inches)
  6

 40
6.35
 41
19.05
 42
6.35000508
 43
19.05000254
 44
279.4
 45
215.9
 46
-5.1504937137
 47
-9.2849455203
 48
0.0
 49
0.0
140
0.0
141
0.0
142
0.3029389518
143
1.0
 70
  1696
 72
     0
 73
     0
 74
     0
  7

 75
     0
147
0.5913241897
148
-39.4088153714
149
0.0
100
AcDbLayout
  1
Model
 70
     1
 71
     0
 10
0.0
 20
0.0
 11
12.0
 21
9.0
 12
0.0
 22
0.0
 32
0.0
 14
0.0256660394
 24
0.0
 34
0.0
 15
35.9735028427
 25
25.5203166414
 35
0.0
146
0.0
 13
0.0
 23
0.0
 33
0.0
 16
1.0
 26
0.0
 36
0.0
 17
0.0
 27
1.0
 37
0.0
 76
     0
330
1F
331
29
  0
MLINESTYLE
  5
18
102
{ACAD_REACTORS
330
17
102
}
330
17
100
AcDbMlineStyle
  2
Standard
 70
     0
  3

 62
   256
 51
90.0
 52
90.0
 71
     2
 49
0.5
 62
   256
  6
BYLAYER
 49
-0.5
 62
   256
  6
BYLAYER
  0
ACDBPLACEHOLDER
  5
F
102
{ACAD_REACTORS
330
E
102
}
330
E
  0
SCALE
  5
48
102
{ACAD_REACTORS
330
47
102
}
330
47
100
AcDbScale
 70
     0
300
1:1
140
1.0
141
1.0
290
     1
  0
SCALE
  5
49
102
{ACAD_REACTORS
330
47
102
}
330
47
100
AcDbScale
 70
     0
300
1/128" = 1'-0"
140
0.0078125
141
12.0
290
     0
  0
SCALE
  5
4A
102
{ACAD_REACTORS
330
47
102
}
330
47
100
AcDbScale
 70
     0
300
1/64" = 1'-0"
140
0.015625
141
12.0
290
     0
  0
SCALE
  5
4B
102
{ACAD_REACTORS
330
47
102
}
330
47
100
AcDbScale
 70
     0
300
1/32" = 1'-0"
140
0.03125
141
12.0
290
     0
  0
SCALE
  5
4C
102
{ACAD_REACTORS
330
47
102
}
330
47
100
AcDbScale
 70
     0
300
1/16" = 1'-0"
140
0.0625
141
12.0
290
     0
  0
SCALE
  5
4D
102
{ACAD_REACTORS
330
47
102
}
330
47
100
AcDbScale
 70
     0
300
3/32" = 1'-0"
140
0.09375
141
12.0
290
     0
  0
SCALE
  5
4E
102
{ACAD_REACTORS
330
47
102
}
330
47
100
AcDbScale
 70
     0
300
1/8" = 1'-0"
140
0.125
141
12.0
290
     0
  0
SCALE
  5
4F
102
{ACAD_REACTORS
330
47
102
}
330
47
100
AcDbScale
 70
     0
300
3/16" = 1'-0"
140
0.1875
141
12.0
290
     0
  0
SCALE
  5
50
102
{ACAD_REACTORS
330
47
102
}
330
47
100
AcDbScale
 70
     0
300
1/4" = 1'-0"
140
0.25
141
12.0
290
     0
  0
SCALE
  5
51
102
{ACAD_REACTORS
330
47
102
}
330
47
100
AcDbScale
 70
     0
300
3/8" = 1'-0"
140
0.375
141
12.0
290
     0
  0
SCALE
  5
52
102
{ACAD_REACTORS
330
47
102
}
330
47
100
AcDbScale
 70
     0
300
1/2" = 1'-0"
140
0.5
141
12.0
290
     0
  0
SCALE
  5
53
102
{ACAD_REACTORS
330
47
102
}
330
47
100
AcDbScale
 70
     0
300
3/4" = 1'-0"
140
0.75
141
12.0
290
     0
  0
SCALE
  5
54
102
{ACAD_REACTORS
330
47
102
}
330
47
100
AcDbScale
 70
     0
300
1" = 1'-0"
140
1.0
141
12.0
290
     0
  0
SCALE
  5
55
102
{ACAD_REACTORS
330
47
102
}
330
47
100
AcDbScale
 70
     0
300
1-1/2" = 1'-0"
140
1.5
141
12.0
290
     0
  0
SCALE
  5
56
102
{ACAD_REACTORS
330
47
102
}
330
47
100
AcDbScale
 70
     0
300
3" = 1'-0"
140
3.0
141
12.0
290
     0
  0
SCALE
  5
57
102
{ACAD_REACTORS
330
47
102
}
330
47
100
AcDbScale
 70
     0
300
6" = 1'-0"
140
6.0
141
12.0
290
     0
  0
SCALE
  5
58
102
{ACAD_REACTORS
330
47
102
}
330
47
100
AcDbScale
 70
     0
300
1'-0" = 1'-0"
140
12.0
141
12.0
290
     0
  0
ENDSEC
  0
EOF
