<?xml version="1.0" encoding="UTF-8" standalone="yes"?>
<!-- Created with sK1/UniConvertor (http://sk1project.org/) -->
<svg xmlns="http://www.w3.org/2000/svg" xmlns:xlink="http://www.w3.org/1999/xlink"
  width="595.276pt" height="841.89pt" viewBox="0 0 595.276 841.89"
  fill-rule="evenodd">
<g>
<path style="stroke:#000000; stroke-width:0.850394; stroke-linejoin:round; stroke-linecap:round; fill:none" d="M 76.6422 841.89C 77.7894 841.907 78.5839 841.931 79.3288 841.897C 80.0737 841.863 80.7688 841.771 81.3513 841.663C 81.9338 841.555 82.4036 841.431 82.8258 841.228C 83.2481 841.024 83.6228 840.74 83.9374 840.427C 84.2521 840.115 84.5066 839.772 84.7182 839.417C 84.9297 839.062 85.0983 838.694 85.2332 838.303C 85.368 837.911 85.4691 837.496 85.5091 837.081C 85.549 836.666 85.5278 836.251 85.52 835.854C 85.5122 835.458 85.5179 835.08 85.4727 834.69C 85.4275 834.3 85.3314 833.899 85.2172 833.378C 85.1029 832.857 84.9704 832.216 84.7835 831.486C 84.5965 830.756 84.3551 829.938 84.1355 829.151C 83.9158 828.365 83.718 827.61 83.5535 826.954C 83.3889 826.298 83.2576 825.741 83.1311 825.268C 83.0046 824.795 82.883 824.406 82.8178 823.962C 82.7526 823.518 82.7439 823.02 82.7482 822.549C 82.7525 822.079 82.7699 821.637 82.852 821.22C 82.9341 820.803 83.0809 820.411 83.2363 820.064C 83.3917 819.717 83.5557 819.415 83.7485 819.133C 83.9414 818.852 84.1632 818.591 84.4492 818.281C 84.7353 817.972 85.0855 817.613 85.5159 817.24C 85.9463 816.868 86.4568 816.48 86.9334 816.02C 87.4101 815.56 87.853 815.027 88.2306 814.469C 88.6081 813.911 88.9203 813.328 89.211 812.7C 89.5016 812.072 89.7708 811.398 90.0656 810.703C 90.3605 810.008 90.6811 809.292 90.9163 808.585C 91.1514 807.879 91.3012 807.183 91.3733 806.588C 91.4454 805.994 91.4398 805.501 91.3744 805.056C 91.3089 804.61 91.1836 804.212 90.9646 803.855C 90.7455 803.498 90.4327 803.181 89.9521 802.857C 89.4716 802.533 88.8232 802.202 87.7931 801.872C 86.763 801.542 85.3511 801.214 83.9325 800.785C 82.5139 800.357 81.0885 799.828 79.7677 799.307C 78.4469 798.786 77.2306 798.273 76.3495 797.879C 75.4683 797.484 74.9222 797.207 74.4413 796.965C 73.9604 796.724 73.5446 796.516 73.1535 796.302C 72.7623 796.088 72.3958 795.866 71.9991 795.625C 71.6024 795.384 71.1756 795.123 70.6504 794.835C 70.1251 794.547 69.5014 794.231 68.8931 793.848C 68.2847 793.466 67.6918 793.016 67.0129 792.466C 66.334 791.915 65.5692 791.264 64.8401 790.536C 64.111 789.807 63.4177 789.002 62.5602 788.118C 61.7028 787.233 60.6812 786.27 59.6123 785.33C 58.5433 784.389 57.427 783.471 56.3549 782.604C 55.2829 781.737 54.2551 780.92 53.3768 780.186C 52.4985 779.452 51.7698 778.801 51.1101 778.344C 50.4505 777.888 49.86 777.626 49.2761 777.444C 48.6921 777.261 48.1148 777.157 47.5683 777.102C 47.0218 777.048 46.5062 777.043 46.002 777.079C 45.4978 777.115 45.0052 777.191 44.5922 777.263"/>
<path style="stroke:#000000; stroke-width:0.850394; stroke-linejoin:round; stroke-linecap:round; fill:none" d="M 27.0894 780.285C 26.4333 780.399 25.7181 780.596 24.9753 780.838C 24.2325 781.08 23.462 781.368 22.7456 781.788C 22.0293 782.207 21.3672 782.76 20.7841 783.394C 20.201 784.028 19.6971 784.745 19.3471 785.568C 18.997 786.391 18.8009 787.321 18.7757 788.293C 18.7504 789.266 18.8959 790.281 19.1919 791.248C 19.4879 792.215 19.9343 793.133 20.5167 793.936C 21.0991 794.739 21.8175 795.426 22.6977 795.99C 23.578 796.554 24.6201 796.995 25.6641 797.202C 26.7082 797.408 27.7541 797.381 28.8259 797.195C 29.8976 797.008 30.9953 796.663 31.8919 796.205C 32.7885 795.747 33.4841 795.175 34.193 794.625C 34.9018 794.075 35.624 793.547 36.1912 793.144C 36.7584 792.741 37.1708 792.463 37.5231 792.216C 37.8753 791.968 38.1676 791.75 38.4143 791.612C 38.6609 791.475 38.862 791.418 39.0418 791.398C 39.2217 791.379 39.3803 791.397 39.5237 791.459C 39.6671 791.522 39.7952 791.629 39.9202 791.777C 40.0452 791.926 40.1672 792.117 40.3765 792.427C 40.5858 792.737 40.8825 793.166 41.2824 793.724C 41.6823 794.282 42.1854 794.969 42.7859 795.782C 43.3863 796.595 44.0841 797.534 44.7755 798.473C 45.4669 799.412 46.152 800.352 46.8085 801.223C 47.465 802.094 48.0929 802.896 48.737 803.713C 49.3812 804.53 50.0416 805.36 50.6243 806.092C 51.207 806.823 51.712 807.455 52.2038 807.995C 52.6955 808.536 53.1741 808.983 53.5255 809.292C 53.8769 809.602 54.1012 809.772 54.3603 809.933C 54.6193 810.094 54.913 810.245 55.2408 810.365C 55.5686 810.486 55.9303 810.576 56.3127 810.621C 56.6951 810.666 57.0981 810.666 57.5165 810.651"/>
<path style="stroke:#000000; stroke-width:0.850394; stroke-linejoin:round; stroke-linecap:round; fill:none" d="M 11.6353 840.913L 76.6422 841.89"/>
<path style="stroke:#000000; stroke-width:0.850394; stroke-linejoin:round; stroke-linecap:round; fill:none" d="M 57.5165 810.651L 66.6313 810.336"/>
<path style="stroke:#000000; stroke-width:0.850394; stroke-linejoin:round; stroke-linecap:round; fill:none" d="M 44.5922 777.263L 27.0894 780.285"/>
<path style="stroke:#000000; stroke-width:0.850394; stroke-linejoin:round; stroke-linecap:round; fill:none" d="M 68.6981 812.52L 68.9434 825.422"/>
<path style="stroke:#000000; stroke-width:0.850394; stroke-linejoin:round; stroke-linecap:round; fill:none" d="M 68.9434 825.422C 68.951 825.825 68.9538 826.21 68.8626 826.534C 68.7714 826.857 68.5863 827.12 68.3831 827.27C 68.18 827.421 67.959 827.46 67.741 827.473C 67.523 827.486 67.3081 827.474 67.0001 827.415C 66.6921 827.355 66.291 827.249 65.6958 827.106C 65.1007 826.963 64.3116 826.785 63.2858 826.522C 62.26 826.259 60.9975 825.913 59.6341 825.535C 58.2708 825.158 56.8066 824.749 55.3596 824.304C 53.9127 823.858 52.483 823.375 50.6283 822.688C 48.7736 822.001 46.4939 821.109 44.1368 820.192C 41.7797 819.276 39.3452 818.336 36.7324 817.393C 34.1196 816.451 31.3285 815.506 28.9397 814.824C 26.5509 814.143 24.5645 813.725 22.6641 813.318C 20.7636 812.911 18.9491 812.515 17.1136 812.176C 15.2782 811.838 13.4217 811.557 11.772 811.313C 10.1222 811.069 8.6792 810.862 7.38135 810.681C 6.0835 810.499 4.93081 810.344 4.11045 810.305C 3.29009 810.265 2.80207 810.342 2.38351 810.474C 1.96495 810.606 1.61586 810.794 1.32942 811.012C 1.04298 811.229 0.81919 811.476 0.653513 811.733C 0.487835 811.99 0.380266 812.257 0.286822 812.543C 0.193377 812.828 0.114058 813.133 0.0885196 813.612C 0.062981 814.092 0.091223 814.746 0.091516 815.593C 0.091809 816.44 0.064153 817.479 0.0664475 818.71C 0.068742 819.941 0.100987 821.365 0.207857 822.796C 0.314727 824.227 0.496222 825.666 0.715198 827.146C 0.934175 828.626 1.19063 830.148 1.412 831.587C 1.63337 833.027 1.81966 834.384 2.13699 835.571C 2.45432 836.759 2.9027 837.777 3.38138 838.475C 3.86007 839.173 4.36906 839.552 4.82603 839.844C 5.28299 840.135 5.68792 840.34 6.27401 840.483C 6.8601 840.625 7.62735 840.705 8.50098 840.772C 9.37461 840.839 10.3546 840.893 11.6353 840.913"/>
<path style="stroke:#000000; stroke-width:0.850394; stroke-linejoin:round; stroke-linecap:round; fill:none" d="M 66.6313 810.336C 66.87 810.327 67.0728 810.341 67.2688 810.371C 67.4648 810.4 67.654 810.446 67.8217 810.514C 67.9895 810.583 68.1357 810.674 68.2496 810.791C 68.3634 810.907 68.4448 811.048 68.5051 811.19C 68.5653 811.331 68.6043 811.473 68.6306 811.618C 68.6568 811.762 68.6703 811.909 68.6799 812.059C 68.6894 812.209 68.6951 812.363 68.6981 812.52"/>
</g>
</svg>