  0
SECTION
  2
HEADER
  9
$ACADVER
  1
AC1015
  9
$ACADMAINTVER
 70
     6
  9
$DWGCODEPAGE
  3
ANSI_1252
  9
$INSBASE
 10
0.0
 20
0.0
 30
0.0
  9
$EXTMIN
 10
77.9614613159
 20
214.3491191779
 30
0.0
  9
$EXTMAX
 10
1443.6652570964
 20
1144.6777263491
 30
0.0
  9
$LIMMIN
 10
0.0
 20
0.0
  9
$LIMMAX
 10
420.0
 20
297.0
  9
$ORTHOMODE
 70
     0
  9
$REGENMODE
 70
     1
  9
$FILLMODE
 70
     1
  9
$QTEXTMODE
 70
     0
  9
$MIRRTEXT
 70
     1
  9
$LTSCALE
 40
1.0
  9
$ATTMODE
 70
     1
  9
$TEXTSIZE
 40
3.5
  9
$TRACEWID
 40
1.0
  9
$TEXTSTYLE
  7
Standard
  9
$CLAYER
  8
0
  9
$CELTYPE
  6
ByLayer
  9
$CECOLOR
 62
   256
  9
$CELTSCALE
 40
1.0
  9
$DISPSILH
 70
     0
  9
$DIMSCALE
 40
1.0
  9
$DIMASZ
 40
3.302
  9
$DIMEXO
 40
0.0
  9
$DIMDLI
 40
3.75
  9
$DIMRND
 40
0.0
  9
$DIMDLE
 40
0.0
  9
$DIMEXE
 40
1.0
  9
$DIMTP
 40
0.0
  9
$DIMTM
 40
0.0
  9
$DIMTXT
 40
3.5
  9
$DIMCEN
 40
2.5
  9
$DIMTSZ
 40
0.0
  9
$DIMTOL
 70
     0
  9
$DIMLIM
 70
     0
  9
$DIMTIH
 70
     1
  9
$DIMTOH
 70
     1
  9
$DIMSE1
 70
     0
  9
$DIMSE2
 70
     0
  9
$DIMTAD
 70
     1
  9
$DIMZIN
 70
     1
  9
$DIMBLK
  1

  9
$DIMASO
 70
     1
  9
$DIMSHO
 70
     1
  9
$DIMPOST
  1

  9
$DIMAPOST
  1

  9
$DIMALT
 70
     0
  9
$DIMALTD
 70
     3
  9
$DIMALTF
 40
0.0393700787
  9
$DIMLFAC
 40
1.0
  9
$DIMTOFL
 70
     1
  9
$DIMTVP
 40
0.0
  9
$DIMTIX
 70
     0
  9
$DIMSOXD
 70
     0
  9
$DIMSAH
 70
     0
  9
$DIMBLK1
  1

  9
$DIMBLK2
  1

  9
$DIMSTYLE
  2
ISO-25
  9
$DIMCLRD
 70
     0
  9
$DIMCLRE
 70
     0
  9
$DIMCLRT
 70
     0
  9
$DIMTFAC
 40
1.0
  9
$DIMGAP
 40
1.524
  9
$DIMJUST
 70
     0
  9
$DIMSD1
 70
     0
  9
$DIMSD2
 70
     0
  9
$DIMTOLJ
 70
     0
  9
$DIMTZIN
 70
     1
  9
$DIMALTZ
 70
     0
  9
$DIMALTTZ
 70
     0
  9
$DIMUPT
 70
     0
  9
$DIMDEC
 70
     2
  9
$DIMTDEC
 70
     2
  9
$DIMALTU
 70
     2
  9
$DIMALTTD
 70
     3
  9
$DIMTXSTY
  7
Standard
  9
$DIMAUNIT
 70
     0
  9
$DIMADEC
 70
     2
  9
$DIMALTRND
 40
0.0
  9
$DIMAZIN
 70
     0
  9
$DIMDSEP
 70
    44
  9
$DIMATFIT
 70
     3
  9
$DIMFRAC
 70
     0
  9
$DIMLDRBLK
  1

  9
$DIMLUNIT
 70
     2
  9
$DIMLWD
 70
    -2
  9
$DIMLWE
 70
    -2
  9
$DIMTMOVE
 70
     0
  9
$LUNITS
 70
     2
  9
$LUPREC
 70
     2
  9
$SKETCHINC
 40
1.0
  9
$FILLETRAD
 40
0.0
  9
$AUNITS
 70
     0
  9
$AUPREC
 70
     2
  9
$MENU
  1
.
  9
$ELEVATION
 40
0.0
  9
$PELEVATION
 40
0.0
  9
$THICKNESS
 40
0.0
  9
$LIMCHECK
 70
     0
  9
$CHAMFERA
 40
0.0
  9
$CHAMFERB
 40
0.0
  9
$CHAMFERC
 40
0.0
  9
$CHAMFERD
 40
0.0
  9
$SKPOLY
 70
     0
  9
$TDCREATE
 40
2460367.812948426
  9
$TDUCREATE
 40
2460368.021281759
  9
$TDUPDATE
 40
2460367.813335729
  9
$TDUUPDATE
 40
2460368.021669062
  9
$TDINDWG
 40
0.0000000116
  9
$TDUSRTIMER
 40
0.0000000116
  9
$USRTIMER
 70
     1
  9
$ANGBASE
 50
0.0
  9
$ANGDIR
 70
     0
  9
$PDMODE
 70
     0
  9
$PDSIZE
 40
-1.0
  9
$PLINEWID
 40
0.0
  9
$SPLFRAME
 70
     0
  9
$SPLINETYPE
 70
     6
  9
$SPLINESEGS
 70
     8
  9
$HANDSEED
  5
B7
  9
$SURFTAB1
 70
     6
  9
$SURFTAB2
 70
     6
  9
$SURFTYPE
 70
     6
  9
$SURFU
 70
     6
  9
$SURFV
 70
     6
  9
$UCSBASE
  2

  9
$UCSNAME
  2

  9
$UCSORG
 10
0.0
 20
0.0
 30
0.0
  9
$UCSXDIR
 10
1.0
 20
0.0
 30
0.0
  9
$UCSYDIR
 10
0.0
 20
1.0
 30
0.0
  9
$UCSORTHOREF
  2

  9
$UCSORTHOVIEW
 70
     0
  9
$UCSORGTOP
 10
0.0
 20
0.0
 30
0.0
  9
$UCSORGBOTTOM
 10
0.0
 20
0.0
 30
0.0
  9
$UCSORGLEFT
 10
0.0
 20
0.0
 30
0.0
  9
$UCSORGRIGHT
 10
0.0
 20
0.0
 30
0.0
  9
$UCSORGFRONT
 10
0.0
 20
0.0
 30
0.0
  9
$UCSORGBACK
 10
0.0
 20
0.0
 30
0.0
  9
$PUCSBASE
  2

  9
$PUCSNAME
  2

  9
$PUCSORG
 10
0.0
 20
0.0
 30
0.0
  9
$PUCSXDIR
 10
1.0
 20
0.0
 30
0.0
  9
$PUCSYDIR
 10
0.0
 20
1.0
 30
0.0
  9
$PUCSORTHOREF
  2

  9
$PUCSORTHOVIEW
 70
     0
  9
$PUCSORGTOP
 10
0.0
 20
0.0
 30
0.0
  9
$PUCSORGBOTTOM
 10
0.0
 20
0.0
 30
0.0
  9
$PUCSORGLEFT
 10
0.0
 20
0.0
 30
0.0
  9
$PUCSORGRIGHT
 10
0.0
 20
0.0
 30
0.0
  9
$PUCSORGFRONT
 10
0.0
 20
0.0
 30
0.0
  9
$PUCSORGBACK
 10
0.0
 20
0.0
 30
0.0
  9
$USERI1
 70
     0
  9
$USERI2
 70
     0
  9
$USERI3
 70
     0
  9
$USERI4
 70
     0
  9
$USERI5
 70
     0
  9
$USERR1
 40
0.0
  9
$USERR2
 40
0.0
  9
$USERR3
 40
0.0
  9
$USERR4
 40
0.0
  9
$USERR5
 40
0.0
  9
$WORLDVIEW
 70
     1
  9
$SHADEDGE
 70
     3
  9
$SHADEDIF
 70
    70
  9
$TILEMODE
 70
     1
  9
$MAXACTVP
 70
    64
  9
$PINSBASE
 10
0.0
 20
0.0
 30
0.0
  9
$PLIMCHECK
 70
     0
  9
$PEXTMIN
 10
1.0000000000E+20
 20
1.0000000000E+20
 30
1.0000000000E+20
  9
$PEXTMAX
 10
-1.0000000000E+20
 20
-1.0000000000E+20
 30
-1.0000000000E+20
  9
$PLIMMIN
 10
0.0
 20
0.0
  9
$PLIMMAX
 10
420.0
 20
297.0
  9
$UNITMODE
 70
     0
  9
$VISRETAIN
 70
     1
  9
$PLINEGEN
 70
     0
  9
$PSLTSCALE
 70
     1
  9
$TREEDEPTH
 70
  3020
  9
$CMLSTYLE
  2
Standard
  9
$CMLJUST
 70
     0
  9
$CMLSCALE
 40
20.0
  9
$PROXYGRAPHICS
 70
     1
  9
$MEASUREMENT
 70
     1
  9
$CELWEIGHT
370
    -1
  9
$ENDCAPS
280
     0
  9
$JOINSTYLE
280
     0
  9
$LWDISPLAY
290
     1
  9
$INSUNITS
 70
     4
  9
$HYPERLINKBASE
  1

  9
$STYLESHEET
  1

  9
$XEDIT
290
     1
  9
$CEPSNTYPE
380
     0
  9
$PSTYLEMODE
290
     1
  9
$FINGERPRINTGUID
  2
{5b08f076-d010-4729-8f42-8bfcbe11cc0f}
  9
$VERSIONGUID
  2
{FAEB1C32-E019-11D5-929B-00C0DF256EC4}
  9
$EXTNAMES
290
     1
  9
$PSVPSCALE
 40
0.0
  9
$OLESTARTUP
290
     0
  0
ENDSEC
  0
SECTION
  2
CLASSES
  0
CLASS
  1
ACDBDICTIONARYWDFLT
  2
AcDbDictionaryWithDefault
  3
ObjectDBX Classes
 90
        0
280
     0
281
     0
  0
CLASS
  1
VISUALSTYLE
  2
AcDbVisualStyle
  3
ObjectDBX Classes
 90
     4095
280
     0
281
     0
  0
CLASS
  1
MATERIAL
  2
AcDbMaterial
  3
ObjectDBX Classes
 90
     1153
280
     0
281
     0
  0
CLASS
  1
SCALE
  2
AcDbScale
  3
ObjectDBX Classes
 90
     1153
280
     0
281
     0
  0
CLASS
  1
TABLESTYLE
  2
AcDbTableStyle
  3
ObjectDBX Classes
 90
     4095
280
     0
281
     0
  0
CLASS
  1
MLEADERSTYLE
  2
AcDbMLeaderStyle
  3
ACDB_MLEADERSTYLE_CLASS
 90
     4095
280
     0
281
     0
  0
CLASS
  1
SUN
  2
AcDbSun
  3
SCENEOE
 90
     1153
280
     0
281
     0
  0
CLASS
  1
ACDBPLACEHOLDER
  2
AcDbPlaceHolder
  3
ObjectDBX Classes
 90
        0
280
     0
281
     0
  0
CLASS
  1
LAYOUT
  2
AcDbLayout
  3
ObjectDBX Classes
 90
        0
280
     0
281
     0
  0
ENDSEC
  0
SECTION
  2
TABLES
  0
TABLE
  2
VPORT
  5
8
330
0
100
AcDbSymbolTable
 70
     1
  0
VPORT
  5
29
330
8
100
AcDbSymbolTableRecord
100
AcDbViewportTableRecord
  2
*Active
 70
     0
 10
0.0
 20
0.0
 11
1.0
 21
1.0
 12
760.8133592061
 22
679.5134227635
 13
0.0
 23
0.0
 14
10.0
 24
10.0
 15
10.0
 25
10.0
 16
0.0
 26
0.0
 36
1.0
 17
0.0
 27
0.0
 37
0.0
 40
948.9351793146
 41
1.4679800076
 42
50.0
 43
0.0
 44
0.0
 50
0.0
 51
0.0
 71
     0
 72
   100
 73
     1
 74
     3
 75
     0
 76
     0
 77
     0
 78
     0
281
     0
 65
     1
110
0.0
120
0.0
130
0.0
111
1.0
121
0.0
131
0.0
112
0.0
122
1.0
132
0.0
 79
     0
146
0.0
  0
ENDTAB
  0
TABLE
  2
LTYPE
  5
5
330
0
100
AcDbSymbolTable
 70
     6
  0
LTYPE
  5
14
330
5
100
AcDbSymbolTableRecord
100
AcDbLinetypeTableRecord
  2
ByBlock
 70
     0
  3

 72
    65
 73
     0
 40
0.0
  0
LTYPE
  5
15
330
5
100
AcDbSymbolTableRecord
100
AcDbLinetypeTableRecord
  2
ByLayer
 70
     0
  3

 72
    65
 73
     0
 40
0.0
  0
LTYPE
  5
16
330
5
100
AcDbSymbolTableRecord
100
AcDbLinetypeTableRecord
  2
Continuous
 70
     0
  3
Solid line
 72
    65
 73
     0
 40
0.0
  0
LTYPE
  5
5E
330
5
100
AcDbSymbolTableRecord
100
AcDbLinetypeTableRecord
  2
HIDDEN
 70
     0
  3
Hidden __ __ __ __ __ __ __ __ __ __ __ __ __ __
 72
    65
 73
     2
 40
1.905
 49
1.27
 74
     0
 49
-0.635
 74
     0
  0
LTYPE
  5
5F
330
5
100
AcDbSymbolTableRecord
100
AcDbLinetypeTableRecord
  2
PHANTOM
 70
     0
  3
Phantom ______  __  __  ______  __  __  ______
 72
    65
 73
     6
 40
12.7
 49
6.35
 74
     0
 49
-1.27
 74
     0
 49
1.27
 74
     0
 49
-1.27
 74
     0
 49
1.27
 74
     0
 49
-1.27
 74
     0
  0
LTYPE
  5
60
330
5
100
AcDbSymbolTableRecord
100
AcDbLinetypeTableRecord
  2
CENTER
 70
     0
  3
Center ____ _ ____ _ ____ _ ____ _ ____ _ ____
 72
    65
 73
     4
 40
10.16
 49
6.35
 74
     0
 49
-1.27
 74
     0
 49
1.27
 74
     0
 49
-1.27
 74
     0
  0
LTYPE
  5
61
330
5
100
AcDbSymbolTableRecord
100
AcDbLinetypeTableRecord
  2
CENTERX2
 70
     0
  3
Center (2x) ________  __  ________  __  _____
 72
    65
 73
     4
 40
20.32
 49
12.7
 74
     0
 49
-2.54
 74
     0
 49
2.54
 74
     0
 49
-2.54
 74
     0
  0
LTYPE
  5
62
330
5
100
AcDbSymbolTableRecord
100
AcDbLinetypeTableRecord
  2
DOT2
 70
     0
  3
Dot (.5x) ........................................
 72
    65
 73
     2
 40
0.635
 49
0.0
 74
     0
 49
-0.635
 74
     0
  0
ENDTAB
  0
TABLE
  2
LAYER
  5
2
330
0
100
AcDbSymbolTable
 70
     1
  0
LAYER
  5
10
330
2
100
AcDbSymbolTableRecord
100
AcDbLayerTableRecord
  2
0
 70
     0
 62
     7
  6
Continuous
370
    -3
390
F
  0
ENDTAB
  0
TABLE
  2
STYLE
  5
3
330
0
100
AcDbSymbolTable
 70
     2
  0
STYLE
  5
11
330
3
100
AcDbSymbolTableRecord
100
AcDbTextStyleTableRecord
  2
Standard
 70
     0
 40
0.0
 41
1.0
 50
0.0
 71
     0
 42
3.5
  3
txt
  4

  0
STYLE
  5
B3
330
3
100
AcDbSymbolTableRecord
100
AcDbTextStyleTableRecord
  2
SLDTEXTSTYLE0
 70
     0
 40
0.0
 41
0.7
 50
0.0
 71
     0
 42
3.5
  3
TXT
  4

  0
ENDTAB
  0
TABLE
  2
VIEW
  5
6
330
0
100
AcDbSymbolTable
 70
     0
  0
ENDTAB
  0
TABLE
  2
UCS
  5
7
330
0
100
AcDbSymbolTable
 70
     0
  0
ENDTAB
  0
TABLE
  2
APPID
  5
9
330
0
100
AcDbSymbolTable
 70
     1
  0
APPID
  5
12
330
9
100
AcDbSymbolTableRecord
100
AcDbRegAppTableRecord
  2
ACAD
 70
     0
  0
ENDTAB
  0
TABLE
  2
DIMSTYLE
  5
A
330
0
100
AcDbSymbolTable
 70
     1
100
AcDbDimStyleTable
  0
DIMSTYLE
105
27
330
A
100
AcDbSymbolTableRecord
100
AcDbDimStyleTableRecord
  2
ISO-25
 70
     0
 41
2.5
 42
0.625
 43
3.75
 44
1.25
 73
     0
 74
     0
 77
     1
 78
     8
140
2.5
141
2.5
143
0.0393700787
147
0.625
171
     3
172
     1
178
     0
271
     2
272
     2
274
     3
278
    44
283
     0
284
     8
340
11
  0
ENDTAB
  0
TABLE
  2
BLOCK_RECORD
  5
1
330
0
100
AcDbSymbolTable
 70
     1
  0
BLOCK_RECORD
  5
1F
330
1
100
AcDbSymbolTableRecord
100
AcDbBlockTableRecord
  2
*Model_Space
340
22
  0
BLOCK_RECORD
  5
1B
330
1
100
AcDbSymbolTableRecord
100
AcDbBlockTableRecord
  2
*Paper_Space
340
1E
  0
BLOCK_RECORD
  5
23
330
1
100
AcDbSymbolTableRecord
100
AcDbBlockTableRecord
  2
*Paper_Space0
340
26
  0
ENDTAB
  0
ENDSEC
  0
SECTION
  2
BLOCKS
  0
BLOCK
  5
20
330
1F
100
AcDbEntity
  8
0
100
AcDbBlockBegin
  2
*Model_Space
 70
     0
 10
0.0
 20
0.0
 30
0.0
  3
*Model_Space
  1

  0
ENDBLK
  5
21
330
1F
100
AcDbEntity
  8
0
100
AcDbBlockEnd
  0
BLOCK
  5
1C
330
1B
100
AcDbEntity
 67
     1
  8
0
100
AcDbBlockBegin
  2
*Paper_Space
 70
     0
 10
0.0
 20
0.0
 30
0.0
  3
*Paper_Space
  1

  0
ENDBLK
  5
1D
330
1B
100
AcDbEntity
 67
     1
  8
0
100
AcDbBlockEnd
  0
BLOCK
  5
24
330
23
100
AcDbEntity
  8
0
100
AcDbBlockBegin
  2
*Paper_Space0
 70
     0
 10
0.0
 20
0.0
 30
0.0
  3
*Paper_Space0
  1

  0
ENDBLK
  5
25
330
23
100
AcDbEntity
  8
0
100
AcDbBlockEnd
  0
ENDSEC
  0
SECTION
  2
ENTITIES
  0
LINE
  5
63
330
1F
100
AcDbEntity
  8
0
  6
Continuous
 62
     7
370
    25
100
AcDbLine
 10
369.7744640941
 20
327.2308497749
 30
0.0
 11
369.7744640941
 21
734.140908261
 31
0.0
  0
SPLINE
  5
64
330
1F
100
AcDbEntity
  8
0
  6
Continuous
 62
     7
370
    25
100
AcDbSpline
210
0.0
220
0.0
230
1.0
 70
     8
 71
    15
 72
    32
 73
    16
 74
     0
 42
0.00000001
 43
0.00000001
 40
0.0
 40
0.0
 40
0.0
 40
0.0
 40
0.0
 40
0.0
 40
0.0
 40
0.0
 40
0.0
 40
0.0
 40
0.0
 40
0.0
 40
0.0
 40
0.0
 40
0.0
 40
0.0
 40
1.0
 40
1.0
 40
1.0
 40
1.0
 40
1.0
 40
1.0
 40
1.0
 40
1.0
 40
1.0
 40
1.0
 40
1.0
 40
1.0
 40
1.0
 40
1.0
 40
1.0
 40
1.0
 10
369.7744640940901
 20
734.1409082609867
 30
0.0
 10
369.7744640940901
 20
861.5642338855022
 30
0.0
 10
440.3302528000796
 20
945.8306440478264
 30
0.0
 10
653.6152955104604
 20
929.1023709237671
 30
0.0
 10
752.7547285030658
 20
862.50842536897
 30
0.0
 10
723.5776179010331
 20
724.3704026625622
 30
0.0
 10
668.9713087504088
 20
657.2724541637558
 30
0.0
 10
662.5470370856294
 20
502.0192222649219
 30
0.0
 10
567.9674820208227
 20
469.5409599596486
 30
0.0
 10
547.7181380774401
 20
605.8584528465557
 30
0.0
 10
439.6968520473607
 20
715.5320721237492
 30
0.0
 10
334.7786536745605
 20
551.113740786655
 30
0.0
 10
312.5679817396837
 20
364.0251827116808
 30
0.0
 10
374.6689713627464
 20
249.5418633798865
 30
0.0
 10
464.4586153432006
 20
214.3491191779177
 30
0.0
 10
556.729279282934
 20
214.3491191779176
 30
0.0
  0
LINE
  5
65
330
1F
100
AcDbEntity
  8
0
  6
Continuous
 62
     7
370
    25
100
AcDbLine
 10
669.9923017205
 20
214.3491191779
 30
0.0
 11
556.7292792829
 21
214.3491191779
 31
0.0
  0
ARC
  5
66
330
1F
100
AcDbEntity
  8
0
  6
Continuous
 62
     7
370
    25
100
AcDbCircle
 10
669.9923017205
 20
320.9192572718
 30
0.0
 40
106.5701380939036
100
AcDbArc
 50
270.0
 51
340.9169114655
  0
LINE
  5
67
330
1F
100
AcDbEntity
  8
0
  6
Continuous
 62
     7
370
    25
100
AcDbLine
 10
968.3180807257
 20
857.2923952839
 30
0.0
 11
770.7059261385
 21
286.077325782
 31
0.0
  0
ARC
  5
68
330
1F
100
AcDbEntity
  8
0
  6
Continuous
 62
     7
370
    25
100
AcDbCircle
 10
1007.1307887811
 20
843.86511846
 30
0.0
 40
41.06967335519582
100
AcDbArc
 50
19.0830885345
 51
160.9169114655
  0
LINE
  5
69
330
1F
100
AcDbEntity
  8
0
  6
Continuous
 62
     7
370
    25
100
AcDbLine
 10
1173.1366880908
 20
489.6294459363
 30
0.0
 11
1045.9434968366
 21
857.2923952839
 31
0.0
  0
ARC
  5
6A
330
1F
100
AcDbEntity
  8
0
  6
Continuous
 62
     7
370
    25
100
AcDbCircle
 10
1150.5330187789
 20
481.8096946153
 30
0.0
 40
23.9180763667988
100
AcDbArc
 50
270.0
 51
19.0830885345
  0
LINE
  5
6B
330
1F
100
AcDbEntity
  8
0
  6
Continuous
 62
     7
370
    25
100
AcDbLine
 10
953.7610422825
 20
457.8916182485
 30
0.0
 11
1150.5330187789
 21
457.8916182485
 31
0.0
  0
ARC
  5
6C
330
1F
100
AcDbEntity
  8
0
  6
Continuous
 62
     7
370
    25
100
AcDbCircle
 10
953.7610422825
 20
336.1203687132
 30
0.0
 40
121.7712495352798
100
AcDbArc
 50
90.0
 51
270.0
  0
LINE
  5
6D
330
1F
100
AcDbEntity
  8
0
  6
Continuous
 62
     7
370
    25
100
AcDbLine
 10
1328.3767439327
 20
214.3491191779
 30
0.0
 11
953.7610422825
 21
214.3491191779
 31
0.0
  0
ARC
  5
6E
330
1F
100
AcDbEntity
  8
0
  6
Continuous
 62
     7
370
    25
100
AcDbCircle
 10
1328.3767439327
 20
329.6376323417
 30
0.0
 40
115.2885131637854
100
AcDbArc
 50
270.0
 51
0.0
  0
LINE
  5
6F
330
1F
100
AcDbEntity
  8
0
  6
Continuous
 62
     7
370
    25
100
AcDbLine
 10
1443.6652570964
 20
983.2590328597
 30
0.0
 11
1443.6652570964
 21
329.6376323417
 31
0.0
  0
ARC
  5
70
330
1F
100
AcDbEntity
  8
0
  6
Continuous
 62
     7
370
    25
100
AcDbCircle
 10
1282.2465636071
 20
983.2590328597
 30
0.0
 40
161.4186934893507
100
AcDbArc
 50
0.0
 51
90.0
  0
LINE
  5
71
330
1F
100
AcDbEntity
  8
0
  6
Continuous
 62
     7
370
    25
100
AcDbLine
 10
239.3801548052
 20
1144.6777263491
 30
0.0
 11
1282.2465636071
 21
1144.6777263491
 31
0.0
  0
ARC
  5
72
330
1F
100
AcDbEntity
  8
0
  6
Continuous
 62
     7
370
    25
100
AcDbCircle
 10
239.3801548052
 20
983.2590328597
 30
0.0
 40
161.418693489351
100
AcDbArc
 50
90.0
 51
180.0
  0
LINE
  5
73
330
1F
100
AcDbEntity
  8
0
  6
Continuous
 62
     7
370
    25
100
AcDbLine
 10
77.9614613159
 20
327.2308497749
 30
0.0
 11
77.9614613159
 21
983.2590328597
 31
0.0
  0
ARC
  5
74
330
1F
100
AcDbEntity
  8
0
  6
Continuous
 62
     7
370
    25
100
AcDbCircle
 10
190.8431919128
 20
327.2308497749
 30
0.0
 40
112.8817305969815
100
AcDbArc
 50
180.0
 51
270.0
  0
LINE
  5
75
330
1F
100
AcDbEntity
  8
0
  6
Continuous
 62
     7
370
    25
100
AcDbLine
 10
190.8431919128
 20
214.3491191779
 30
0.0
 11
256.8927334971
 21
214.3491191779
 31
0.0
  0
ARC
  5
76
330
1F
100
AcDbEntity
  8
0
  6
Continuous
 62
     7
370
    25
100
AcDbCircle
 10
256.8927334971
 20
327.2308497749
 30
0.0
 40
112.8817305969815
100
AcDbArc
 50
270.0
 51
0.0
  0
LINE
  5
77
330
1F
100
AcDbEntity
  8
0
  6
Continuous
 62
     7
370
    25
100
AcDbLine
 10
669.9923017205
 20
249.3491191779
 30
0.0
 11
556.7292792829
 21
249.3491191779
 31
0.0
  0
SPLINE
  5
78
330
1F
100
AcDbEntity
  8
0
  6
Continuous
 62
     7
370
    25
100
AcDbSpline
210
0.0
220
0.0
230
1.0
 70
     8
 71
     3
 72
    53
 73
    49
 74
     0
 42
0.00000001
 43
0.00000001
 40
0.0
 40
0.0
 40
0.0
 40
0.0
 40
0.00390625
 40
0.0078125
 40
0.015625
 40
0.0234375
 40
0.03125
 40
0.046875
 40
0.0625
 40
0.078125
 40
0.09375
 40
0.109375
 40
0.125
 40
0.15625
 40
0.1875
 40
0.21875
 40
0.25
 40
0.28125
 40
0.3125
 40
0.34375
 40
0.375
 40
0.40625
 40
0.4375
 40
0.46875
 40
0.5
 40
0.53125
 40
0.5625
 40
0.59375
 40
0.625
 40
0.65625
 40
0.6875
 40
0.71875
 40
0.75
 40
0.78125
 40
0.8125
 40
0.84375
 40
0.875
 40
0.890625
 40
0.90625
 40
0.921875
 40
0.9375
 40
0.953125
 40
0.96875
 40
0.9765625
 40
0.984375
 40
0.9921875
 40
0.99609375
 40
1.0
 40
1.0
 40
1.0
 40
1.0
 10
556.729279282934
 20
249.3491191779176
 30
0.0
 10
555.1799426699556
 20
249.3491191779176
 30
0.0
 10
552.0673942275887
 20
249.3816499219555
 30
0.0
 10
545.9554027092088
 20
249.5819892104762
 30
0.0
 10
538.4579939017796
 20
250.0948623621022
 30
0.0
 10
529.7335817081131
 20
251.1525403152717
 30
0.0
 10
518.4790591281094
 20
253.1731664065159
 30
0.0
 10
505.1599871214728
 20
256.8714508898648
 30
0.0
 10
490.4196466303395
 20
263.2375149999415
 30
0.0
 10
476.9011616807174
 20
271.5817701807268
 30
0.0
 10
464.5912454297053
 20
281.9692729126425
 30
0.0
 10
453.5518183913065
 20
294.436160671435
 30
0.0
 10
440.7197449525947
 20
313.7325154719078
 30
0.0
 10
428.7230454909064
 20
342.4053423853018
 30
0.0
 10
422.0845529539455
 20
380.8769487482006
 30
0.0
 10
423.3684390282197
 20
419.1557614563565
 30
0.0
 10
431.5855539632437
 20
453.3646935805218
 30
0.0
 10
444.9451675533741
 20
480.9191067853395
 30
0.0
 10
461.5353479605192
 20
501.2647513323365
 30
0.0
 10
480.4985296688315
 20
515.8057020726291
 30
0.0
 10
502.293690238889
 20
526.4157759403461
 30
0.0
 10
527.2484200819866
 20
534.5914311141462
 30
0.0
 10
554.8980330451266
 20
542.1604040540975
 30
0.0
 10
584.3707721847261
 20
551.6374909149408
 30
0.0
 10
614.2698390977022
 20
565.8225791891571
 30
0.0
 10
642.2478553663028
 20
586.665640224264
 30
0.0
 10
665.8745976497954
 20
614.202326060545
 30
0.0
 10
683.8823217076017
 20
647.315962793008
 30
0.0
 10
695.7026620183302
 20
684.8501603213202
 30
0.0
 10
700.5989057861109
 20
725.63989339665
 30
0.0
 10
697.3804673482083
 20
768.2454316125711
 30
0.0
 10
684.4848018307562
 20
810.6840000785397
 30
0.0
 10
660.4978511670707
 20
850.0764269621036
 30
0.0
 10
625.2623294217443
 20
882.7524186193177
 30
0.0
 10
580.4823771276585
 20
905.4331486609005
 30
0.0
 10
528.9533428517732
 20
916.010008770559
 30
0.0
 10
483.1251470855696
 20
913.4183734218506
 30
0.0
 10
446.8429310046023
 20
903.5285379075181
 30
0.0
 10
420.5162750551135
 20
891.8922837687577
 30
0.0
 10
395.9098491106726
 20
875.7332837621854
 30
0.0
 10
374.0788595678726
 20
854.8585405437672
 30
0.0
 10
356.2337439460641
 20
829.4181185806948
 30
0.0
 10
345.5766462032203
 20
804.9895893510208
 30
0.0
 10
339.8013582109043
 20
784.0558379550374
 30
0.0
 10
336.8172966660934
 20
767.8049482112797
 30
0.0
 10
335.4027873941287
 20
753.910626780017
 30
0.0
 10
334.8606042913251
 20
742.6558312878159
 30
0.0
 10
334.77446409409
 20
736.9751163596051
 30
0.0
 10
334.77446409409
 20
734.1409082609867
 30
0.0
  0
LINE
  5
79
330
1F
100
AcDbEntity
  8
0
  6
Continuous
 62
     7
370
    25
100
AcDbLine
 10
334.7744640941
 20
327.2308497749
 30
0.0
 11
334.7744640941
 21
734.140908261
 31
0.0
  0
ARC
  5
7A
330
1F
100
AcDbEntity
  8
0
  6
Continuous
 62
     7
370
    25
100
AcDbCircle
 10
256.8927334971
 20
327.2308497749
 30
0.0
 40
77.88173059698153
100
AcDbArc
 50
270.0
 51
0.0
  0
LINE
  5
7B
330
1F
100
AcDbEntity
  8
0
  6
Continuous
 62
     7
370
    25
100
AcDbLine
 10
190.8431919128
 20
249.3491191779
 30
0.0
 11
256.8927334971
 21
249.3491191779
 31
0.0
  0
ARC
  5
7C
330
1F
100
AcDbEntity
  8
0
  6
Continuous
 62
     7
370
    25
100
AcDbCircle
 10
190.8431919128
 20
327.2308497749
 30
0.0
 40
77.88173059698153
100
AcDbArc
 50
180.0
 51
270.0
  0
LINE
  5
7D
330
1F
100
AcDbEntity
  8
0
  6
Continuous
 62
     7
370
    25
100
AcDbLine
 10
112.9614613159
 20
327.2308497749
 30
0.0
 11
112.9614613159
 21
983.2590328597
 31
0.0
  0
ARC
  5
7E
330
1F
100
AcDbEntity
  8
0
  6
Continuous
 62
     7
370
    25
100
AcDbCircle
 10
239.3801548052
 20
983.2590328597
 30
0.0
 40
126.4186934893507
100
AcDbArc
 50
90.0
 51
180.0
  0
LINE
  5
7F
330
1F
100
AcDbEntity
  8
0
  6
Continuous
 62
     7
370
    25
100
AcDbLine
 10
239.3801548052
 20
1109.6777263491
 30
0.0
 11
1282.2465636071
 21
1109.6777263491
 31
0.0
  0
ARC
  5
80
330
1F
100
AcDbEntity
  8
0
  6
Continuous
 62
     7
370
    25
100
AcDbCircle
 10
1282.2465636071
 20
983.2590328597
 30
0.0
 40
126.4186934893507
100
AcDbArc
 50
0.0
 51
90.0
  0
LINE
  5
81
330
1F
100
AcDbEntity
  8
0
  6
Continuous
 62
     7
370
    25
100
AcDbLine
 10
1408.6652570964
 20
983.2590328597
 30
0.0
 11
1408.6652570964
 21
329.6376323417
 31
0.0
  0
ARC
  5
82
330
1F
100
AcDbEntity
  8
0
  6
Continuous
 62
     7
370
    25
100
AcDbCircle
 10
1328.3767439327
 20
329.6376323417
 30
0.0
 40
80.28851316378518
100
AcDbArc
 50
270.0
 51
0.0
  0
LINE
  5
83
330
1F
100
AcDbEntity
  8
0
  6
Continuous
 62
     7
370
    25
100
AcDbLine
 10
1328.3767439327
 20
249.3491191779
 30
0.0
 11
953.7610422825
 21
249.3491191779
 31
0.0
  0
ARC
  5
84
330
1F
100
AcDbEntity
  8
0
  6
Continuous
 62
     7
370
    25
100
AcDbCircle
 10
953.7610422825
 20
336.1203687132
 30
0.0
 40
86.77124953527971
100
AcDbArc
 50
90.0
 51
270.0
  0
LINE
  5
85
330
1F
100
AcDbEntity
  8
0
  6
Continuous
 62
     7
370
    25
100
AcDbLine
 10
953.7610422825
 20
422.8916182485
 30
0.0
 11
1150.5330187789
 21
422.8916182485
 31
0.0
  0
ARC
  5
86
330
1F
100
AcDbEntity
  8
0
  6
Continuous
 62
     7
370
    25
100
AcDbCircle
 10
1150.5330187789
 20
481.8096946153
 30
0.0
 40
58.91807636679891
100
AcDbArc
 50
270.0
 51
19.0830885345
  0
LINE
  5
87
330
1F
100
AcDbEntity
  8
0
  6
Continuous
 62
     7
370
    25
100
AcDbLine
 10
1206.2132789415
 20
501.0723099876
 30
0.0
 11
1079.0200876872
 21
868.7352593352
 31
0.0
  0
ARC
  5
88
330
1F
100
AcDbEntity
  8
0
  6
Continuous
 62
     7
370
    25
100
AcDbCircle
 10
1007.1307887811
 20
843.86511846
 30
0.0
 40
76.06967335519585
100
AcDbArc
 50
19.0830885345
 51
160.9169114655
  0
LINE
  5
89
330
1F
100
AcDbEntity
  8
0
  6
Continuous
 62
     7
370
    25
100
AcDbLine
 10
935.2414898751
 20
868.7352593352
 30
0.0
 11
737.6293352878
 21
297.5201898334
 31
0.0
  0
ARC
  5
8A
330
1F
100
AcDbEntity
  8
0
  6
Continuous
 62
     7
370
    25
100
AcDbCircle
 10
669.9923017205
 20
320.9192572718
 30
0.0
 40
71.57013809390344
100
AcDbArc
 50
270.0
 51
340.9169114655
  0
SPLINE
  5
8B
330
1F
100
AcDbEntity
  8
0
  6
Continuous
 62
     7
370
    25
100
AcDbSpline
210
0.0
220
0.0
230
1.0
 70
     8
 71
     3
 72
    61
 73
    57
 74
     0
 42
0.00000001
 43
0.00000001
 40
0.0
 40
0.0
 40
0.0
 40
0.0
 40
0.00390625
 40
0.0078125
 40
0.015625
 40
0.0234375
 40
0.03125
 40
0.0390625
 40
0.046875
 40
0.0625
 40
0.078125
 40
0.09375
 40
0.109375
 40
0.125
 40
0.140625
 40
0.15625
 40
0.1875
 40
0.21875
 40
0.25
 40
0.265625
 40
0.28125
 40
0.296875
 40
0.3125
 40
0.34375
 40
0.375
 40
0.40625
 40
0.4375
 40
0.46875
 40
0.484375
 40
0.5
 40
0.515625
 40
0.53125
 40
0.546875
 40
0.5625
 40
0.59375
 40
0.625
 40
0.65625
 40
0.6875
 40
0.71875
 40
0.734375
 40
0.75
 40
0.765625
 40
0.78125
 40
0.8125
 40
0.84375
 40
0.875
 40
0.890625
 40
0.90625
 40
0.921875
 40
0.9375
 40
0.953125
 40
0.96875
 40
0.984375
 40
0.9921875
 40
0.99609375
 40
1.0
 40
1.0
 40
1.0
 40
1.0
 10
556.729279282934
 20
284.3491191779176
 30
0.0
 10
555.4313135655424
 20
284.3491191779176
 30
0.0
 10
552.8100091310258
 20
284.3765768384785
 30
0.0
 10
547.7721378671773
 20
284.5423619470715
 30
0.0
 10
541.7204122668318
 20
284.9584196555716
 30
0.0
 10
534.8987171458184
 20
285.7885094278992
 30
0.0
 10
528.5013366792551
 20
286.9401924823664
 30
0.0
 10
522.5173012032042
 20
288.4014414431221
 30
0.0
 10
515.0545785035878
 20
290.7487209241594
 30
0.0
 10
506.6085296172313
 20
294.4102467554494
 30
0.0
 10
497.5283024735268
 20
300.0185358103458
 30
0.0
 10
489.1829731385911
 20
307.0488304232726
 30
0.0
 10
481.443877564711
 20
315.762711011902
 30
0.0
 10
474.4031669279606
 20
326.3219406884654
 30
0.0
 10
468.3000678221695
 20
338.686900745341
 30
0.0
 10
461.7688513691238
 20
357.2352750967567
 30
0.0
 10
457.2354172309107
 20
383.2552769416689
 30
0.0
 10
458.3041020699861
 20
414.6200824526662
 30
0.0
 10
463.8089851877426
 20
437.2941566153369
 30
0.0
 10
469.9323234083527
 20
452.073073405976
 30
0.0
 10
475.0955620834737
 20
461.4249589584933
 30
0.0
 10
480.6080286022337
 20
469.1394553012903
 30
0.0
 10
488.3107374928802
 20
477.5905904449121
 30
0.0
 10
498.7519927163283
 20
485.6455482262683
 30
0.0
 10
514.9332371317023
 20
493.6659557092822
 30
0.0
 10
536.7669531330483
 20
500.9063578116484
 30
0.0
 10
564.3872706063933
 20
508.4650090065179
 30
0.0
 10
591.5059127907413
 20
517.1343944295797
 30
0.0
 10
614.5852462284013
 20
527.1823764132955
 30
0.0
 10
632.1165847005603
 20
536.6306081016417
 30
0.0
 10
649.3353091155315
 20
548.2035790442766
 30
0.0
 10
665.6867999509337
 20
561.9202012335878
 30
0.0
 10
680.7094536541822
 20
577.6269623586253
 30
0.0
 10
698.5613092749753
 20
600.9004102335891
 30
0.0
 10
716.3621133264888
 20
633.7009419077053
 30
0.0
 10
730.1241919015517
 20
677.499600639551
 30
0.0
 10
735.8075010743539
 20
724.824378689814
 30
0.0
 10
732.0819505606166
 20
774.6280855429441
 30
0.0
 10
719.3492790889568
 20
816.6418578846004
 30
0.0
 10
702.3983664732386
 20
848.7741548141272
 30
0.0
 10
686.2293245582249
 20
871.5084319179101
 30
0.0
 10
666.6845336515345
 20
892.2427317993477
 30
0.0
 10
636.4821559023861
 20
916.4360502035157
 30
0.0
 10
591.9609264731331
 20
938.9396983112835
 30
0.0
 10
531.4379498434461
 20
951.3068662108373
 30
0.0
 10
477.9146590694766
 20
948.2954904267684
 30
0.0
 10
435.1364108717471
 20
936.6520700935829
 30
0.0
 10
403.7615233220921
 20
922.8020017850525
 30
0.0
 10
374.0450248461269
 20
903.3118169594923
 30
0.0
 10
347.367072810063
 20
877.8249013398882
 30
0.0
 10
325.4736968731489
 20
846.6075032693731
 30
0.0
 10
309.9361424854184
 20
810.9245312204943
 30
0.0
 10
302.7724460982153
 20
779.1206937946339
 30
0.0
 10
300.4893718524837
 20
756.6001647379085
 30
0.0
 10
299.8712572250983
 20
743.740130294442
 30
0.0
 10
299.7744640940901
 20
737.3438498984458
 30
0.0
 10
299.7744640940901
 20
734.1409082609867
 30
0.0
  0
LINE
  5
8C
330
1F
100
AcDbEntity
  8
0
  6
Continuous
 62
     7
370
    25
100
AcDbLine
 10
669.9923017205
 20
284.3491191779
 30
0.0
 11
556.7292792829
 21
284.3491191779
 31
0.0
  0
ARC
  5
8D
330
1F
100
AcDbEntity
  8
0
  6
Continuous
 62
     7
370
    25
100
AcDbCircle
 10
669.9923017205
 20
320.9192572718
 30
0.0
 40
36.57013809390344
100
AcDbArc
 50
270.0
 51
340.9169114655
  0
LINE
  5
8E
330
1F
100
AcDbEntity
  8
0
  6
Continuous
 62
     7
370
    25
100
AcDbLine
 10
902.1648990244
 20
880.1781233866
 30
0.0
 11
704.5527444372
 21
308.9630538847
 31
0.0
  0
ARC
  5
8F
330
1F
100
AcDbEntity
  8
0
  6
Continuous
 62
     7
370
    25
100
AcDbCircle
 10
1007.1307887811
 20
843.86511846
 30
0.0
 40
111.0696733551958
100
AcDbArc
 50
19.0830885345
 51
160.9169114655
  0
LINE
  5
90
330
1F
100
AcDbEntity
  8
0
  6
Continuous
 62
     7
370
    25
100
AcDbLine
 10
1239.2898697922
 20
512.515174039
 30
0.0
 11
1112.0966785379
 21
880.1781233866
 31
0.0
  0
ARC
  5
91
330
1F
100
AcDbEntity
  8
0
  6
Continuous
 62
     7
370
    25
100
AcDbCircle
 10
1150.5330187789
 20
481.8096946153
 30
0.0
 40
93.91807636679886
100
AcDbArc
 50
270.0
 51
19.0830885345
  0
LINE
  5
92
330
1F
100
AcDbEntity
  8
0
  6
Continuous
 62
     7
370
    25
100
AcDbLine
 10
953.7610422825
 20
387.8916182485
 30
0.0
 11
1150.5330187789
 21
387.8916182485
 31
0.0
  0
ARC
  5
93
330
1F
100
AcDbEntity
  8
0
  6
Continuous
 62
     7
370
    25
100
AcDbCircle
 10
953.7610422825
 20
336.1203687132
 30
0.0
 40
51.77124953527976
100
AcDbArc
 50
90.0
 51
270.0
  0
LINE
  5
94
330
1F
100
AcDbEntity
  8
0
  6
Continuous
 62
     7
370
    25
100
AcDbLine
 10
1328.3767439327
 20
284.3491191779
 30
0.0
 11
953.7610422825
 21
284.3491191779
 31
0.0
  0
ARC
  5
95
330
1F
100
AcDbEntity
  8
0
  6
Continuous
 62
     7
370
    25
100
AcDbCircle
 10
1328.3767439327
 20
329.6376323417
 30
0.0
 40
45.28851316378518
100
AcDbArc
 50
270.0
 51
0.0
  0
LINE
  5
96
330
1F
100
AcDbEntity
  8
0
  6
Continuous
 62
     7
370
    25
100
AcDbLine
 10
1373.6652570964
 20
983.2590328597
 30
0.0
 11
1373.6652570964
 21
329.6376323417
 31
0.0
  0
ARC
  5
97
330
1F
100
AcDbEntity
  8
0
  6
Continuous
 62
     7
370
    25
100
AcDbCircle
 10
1282.2465636071
 20
983.2590328597
 30
0.0
 40
91.41869348935097
100
AcDbArc
 50
0.0
 51
90.0
  0
LINE
  5
98
330
1F
100
AcDbEntity
  8
0
  6
Continuous
 62
     7
370
    25
100
AcDbLine
 10
239.3801548052
 20
1074.6777263491
 30
0.0
 11
1282.2465636071
 21
1074.6777263491
 31
0.0
  0
ARC
  5
99
330
1F
100
AcDbEntity
  8
0
  6
Continuous
 62
     7
370
    25
100
AcDbCircle
 10
239.3801548052
 20
983.2590328597
 30
0.0
 40
91.41869348935074
100
AcDbArc
 50
90.0
 51
180.0
  0
LINE
  5
9A
330
1F
100
AcDbEntity
  8
0
  6
Continuous
 62
     7
370
    25
100
AcDbLine
 10
147.9614613159
 20
327.2308497749
 30
0.0
 11
147.9614613159
 21
983.2590328597
 31
0.0
  0
ARC
  5
9B
330
1F
100
AcDbEntity
  8
0
  6
Continuous
 62
     7
370
    25
100
AcDbCircle
 10
190.8431919128
 20
327.2308497749
 30
0.0
 40
42.88173059698153
100
AcDbArc
 50
180.0
 51
270.0
  0
LINE
  5
9C
330
1F
100
AcDbEntity
  8
0
  6
Continuous
 62
     7
370
    25
100
AcDbLine
 10
190.8431919128
 20
284.3491191779
 30
0.0
 11
256.8927334971
 21
284.3491191779
 31
0.0
  0
ARC
  5
9D
330
1F
100
AcDbEntity
  8
0
  6
Continuous
 62
     7
370
    25
100
AcDbCircle
 10
256.8927334971
 20
327.2308497749
 30
0.0
 40
42.88173059698153
100
AcDbArc
 50
270.0
 51
0.0
  0
LINE
  5
9E
330
1F
100
AcDbEntity
  8
0
  6
Continuous
 62
     7
370
    25
100
AcDbLine
 10
299.7744640941
 20
327.2308497749
 30
0.0
 11
299.7744640941
 21
734.140908261
 31
0.0
  0
LINE
  5
9F
330
1F
100
AcDbEntity
  8
0
  6
Continuous
 62
     7
370
    25
100
AcDbLine
 10
669.9923017205
 20
319.3491191779
 30
0.0
 11
556.7292792829
 21
319.3491191779
 31
0.0
  0
SPLINE
  5
A0
330
1F
100
AcDbEntity
  8
0
  6
Continuous
 62
     7
370
    25
100
AcDbSpline
210
0.0
220
0.0
230
1.0
 70
     8
 71
     3
 72
    76
 73
    72
 74
     0
 42
0.00000001
 43
0.00000001
 40
0.0
 40
0.0
 40
0.0
 40
0.0
 40
0.001953125
 40
0.00390625
 40
0.0078125
 40
0.01171875
 40
0.015625
 40
0.0234375
 40
0.03125
 40
0.0390625
 40
0.046875
 40
0.0625
 40
0.078125
 40
0.09375
 40
0.109375
 40
0.125
 40
0.140625
 40
0.15625
 40
0.1875
 40
0.21875
 40
0.234375
 40
0.25
 40
0.265625
 40
0.28125
 40
0.296875
 40
0.3125
 40
0.328125
 40
0.34375
 40
0.359375
 40
0.375
 40
0.390625
 40
0.40625
 40
0.421875
 40
0.4375
 40
0.453125
 40
0.46875
 40
0.484375
 40
0.5
 40
0.515625
 40
0.53125
 40
0.546875
 40
0.5625
 40
0.59375
 40
0.625
 40
0.65625
 40
0.6875
 40
0.703125
 40
0.71875
 40
0.734375
 40
0.75
 40
0.765625
 40
0.78125
 40
0.796875
 40
0.8125
 40
0.84375
 40
0.859375
 40
0.875
 40
0.890625
 40
0.90625
 40
0.921875
 40
0.9375
 40
0.953125
 40
0.9609375
 40
0.96875
 40
0.9765625
 40
0.984375
 40
0.98828125
 40
0.9921875
 40
0.99609375
 40
0.998046875
 40
1.0
 40
1.0
 40
1.0
 40
1.0
 10
556.7292792829342
 20
319.3491191779177
 30
0.0
 10
556.1996120046005
 20
319.3491191779177
 30
0.0
 10
555.1310157439617
 20
319.3547112384612
 30
0.0
 10
553.0680921034576
 20
319.3879084450705
 30
0.0
 10
550.5771463235471
 20
319.4699399542642
 30
0.0
 10
547.7434566585766
 20
319.6303811905311
 30
0.0
 10
544.1647286715705
 20
319.9224210670576
 30
0.0
 10
540.0633002001264
 20
320.4244858620316
 30
0.0
 10
535.7100093850147
 20
321.2123146359868
 30
0.0
 10
531.8836212658922
 20
322.1506371450482
 30
0.0
 10
527.4056345955815
 20
323.564846890719
 30
0.0
 10
522.7974950272232
 20
325.5830066621614
 30
0.0
 10
518.1554405049274
 20
328.4553545246558
 30
0.0
 10
513.7746294700121
 20
332.128147443934
 30
0.0
 10
509.3362250093836
 20
337.0901702275523
 30
0.0
 10
504.8774888360422
 20
343.732059594376
 30
0.0
 10
500.6831090355769
 20
352.1848264212942
 30
0.0
 10
495.9188163897858
 20
365.6454709428415
 30
0.0
 10
492.3863952355297
 20
385.6404715397328
 30
0.0
 10
493.0994329418599
 20
405.9964736544366
 30
0.0
 10
495.7335974646607
 20
420.2104872371974
 30
0.0
 10
498.4526553926473
 20
429.4421000519235
 30
0.0
 10
501.5972271713276
 20
436.9937572077879
 30
0.0
 10
504.8446675095196
 20
442.8369240585508
 30
0.0
 10
507.9677313422965
 20
447.1774035862715
 30
0.0
 10
510.9349762499569
 20
450.4228994694785
 30
0.0
 10
513.9782931243279
 20
453.0736953380426
 30
0.0
 10
517.5648154797173
 20
455.571991104384
 30
0.0
 10
522.2666769724798
 20
458.1904996872137
 30
0.0
 10
528.5993898818018
 20
461.025319778882
 30
0.0
 10
536.9178415463099
 20
464.07944199919
 30
0.0
 10
547.3989791901844
 20
467.3704433836166
 30
0.0
 10
560.0774786215685
 20
471.0096719401027
 30
0.0
 10
574.8851320239896
 20
475.2391273714875
 30
0.0
 10
591.662022407719
 20
480.4326110322939
 30
0.0
 10
610.1314744985157
 20
487.064966400661
 30
0.0
 10
629.8544922085422
 20
495.6437292134146
 30
0.0
 10
650.2037218652532
 20
506.6012970474467
 30
0.0
 10
670.4064246809553
 20
520.1744104292426
 30
0.0
 10
689.672794717199
 20
536.3349779946145
 30
0.0
 10
707.3504633844375
 20
554.820904120047
 30
0.0
 10
728.2508780060541
 20
582.0790292581139
 30
0.0
 10
748.840691984968
 20
620.0858395343766
 30
0.0
 10
764.545357695684
 20
670.1499814440105
 30
0.0
 10
771.0187656793636
 20
724.0051835260892
 30
0.0
 10
767.4807281091001
 20
771.5212979332176
 30
0.0
 10
757.9661958743413
 20
810.1891502667744
 30
0.0
 10
747.1235229622228
 20
839.051087162042
 30
0.0
 10
732.2960222204007
 20
867.1691066562126
 30
0.0
 10
713.3714407187948
 20
893.7809967851558
 30
0.0
 10
690.4800756989813
 20
918.0660082271231
 30
0.0
 10
663.9983411574526
 20
939.2681293678123
 30
0.0
 10
634.4754119713265
 20
956.8044715130828
 30
0.0
 10
591.854017335951
 20
974.7912400769509
 30
0.0
 10
545.502099291592
 20
984.2573094937868
 30
0.0
 10
497.2029204337865
 20
984.5256617435997
 30
0.0
 10
460.3825396421846
 20
979.8285541442103
 30
0.0
 10
423.4307410014876
 20
969.7742024533726
 30
0.0
 10
387.0064318712638
 20
953.7121211059142
 30
0.0
 10
352.1807091902131
 20
930.8901447648065
 30
0.0
 10
320.6535913355333
 20
900.7916823994132
 30
0.0
 10
299.0421986046568
 20
869.9614573135912
 30
0.0
 10
285.5617960291977
 20
842.7730368077123
 30
0.0
 10
277.48014359324
 20
821.4734804385856
 30
0.0
 10
271.4614365372099
 20
799.6227053535392
 30
0.0
 10
268.0992000759423
 20
781.2464369987819
 30
0.0
 10
266.3156370737125
 20
766.598378435871
 30
0.0
 10
265.4022085245995
 20
755.6708971088499
 30
0.0
 10
264.9686885331878
 20
746.6425225916929
 30
0.0
 10
264.8013321703587
 20
739.4731609415745
 30
0.0
 10
264.7744640940901
 20
735.9210964944014
 30
0.0
 10
264.7744640940901
 20
734.1409082609867
 30
0.0
  0
LINE
  5
A1
330
1F
100
AcDbEntity
  8
0
  6
Continuous
 62
     7
370
    25
100
AcDbLine
 10
264.7744640941
 20
327.2308497749
 30
0.0
 11
264.7744640941
 21
734.140908261
 31
0.0
  0
ARC
  5
A2
330
1F
100
AcDbEntity
  8
0
  6
Continuous
 62
     7
370
    25
100
AcDbCircle
 10
256.8927334971
 20
327.2308497749
 30
0.0
 40
7.881730596981527
100
AcDbArc
 50
270.0
 51
0.0
  0
LINE
  5
A3
330
1F
100
AcDbEntity
  8
0
  6
Continuous
 62
     7
370
    25
100
AcDbLine
 10
190.8431919128
 20
319.3491191779
 30
0.0
 11
256.8927334971
 21
319.3491191779
 31
0.0
  0
ARC
  5
A4
330
1F
100
AcDbEntity
  8
0
  6
Continuous
 62
     7
370
    25
100
AcDbCircle
 10
190.8431919128
 20
327.2308497749
 30
0.0
 40
7.881730596981527
100
AcDbArc
 50
180.0
 51
270.0
  0
LINE
  5
A5
330
1F
100
AcDbEntity
  8
0
  6
Continuous
 62
     7
370
    25
100
AcDbLine
 10
182.9614613159
 20
327.2308497749
 30
0.0
 11
182.9614613159
 21
983.2590328597
 31
0.0
  0
ARC
  5
A6
330
1F
100
AcDbEntity
  8
0
  6
Continuous
 62
     7
370
    25
100
AcDbCircle
 10
239.3801548052
 20
983.2590328597
 30
0.0
 40
56.41869348935097
100
AcDbArc
 50
90.0
 51
180.0
  0
LINE
  5
A7
330
1F
100
AcDbEntity
  8
0
  6
Continuous
 62
     7
370
    25
100
AcDbLine
 10
239.3801548052
 20
1039.6777263491
 30
0.0
 11
1282.2465636071
 21
1039.6777263491
 31
0.0
  0
ARC
  5
A8
330
1F
100
AcDbEntity
  8
0
  6
Continuous
 62
     7
370
    25
100
AcDbCircle
 10
1282.2465636071
 20
983.2590328597
 30
0.0
 40
56.41869348935074
100
AcDbArc
 50
0.0
 51
90.0
  0
LINE
  5
A9
330
1F
100
AcDbEntity
  8
0
  6
Continuous
 62
     7
370
    25
100
AcDbLine
 10
1338.6652570964
 20
983.2590328597
 30
0.0
 11
1338.6652570964
 21
329.6376323417
 31
0.0
  0
ARC
  5
AA
330
1F
100
AcDbEntity
  8
0
  6
Continuous
 62
     7
370
    25
100
AcDbCircle
 10
1328.3767439327
 20
329.6376323417
 30
0.0
 40
10.28851316378518
100
AcDbArc
 50
270.0
 51
0.0
  0
LINE
  5
AB
330
1F
100
AcDbEntity
  8
0
  6
Continuous
 62
     7
370
    25
100
AcDbLine
 10
1328.3767439327
 20
319.3491191779
 30
0.0
 11
953.7610422825
 21
319.3491191779
 31
0.0
  0
ARC
  5
AC
330
1F
100
AcDbEntity
  8
0
  6
Continuous
 62
     7
370
    25
100
AcDbCircle
 10
953.7610422825
 20
336.1203687132
 30
0.0
 40
16.77124953527976
100
AcDbArc
 50
90.0
 51
270.0
  0
LINE
  5
AD
330
1F
100
AcDbEntity
  8
0
  6
Continuous
 62
     7
370
    25
100
AcDbLine
 10
953.7610422825
 20
352.8916182485
 30
0.0
 11
1150.5330187789
 21
352.8916182485
 31
0.0
  0
ARC
  5
AE
330
1F
100
AcDbEntity
  8
0
  6
Continuous
 62
     7
370
    25
100
AcDbCircle
 10
1150.5330187789
 20
481.8096946153
 30
0.0
 40
128.9180763667989
100
AcDbArc
 50
270.0
 51
19.0830885345
  0
LINE
  5
AF
330
1F
100
AcDbEntity
  8
0
  6
Continuous
 62
     7
370
    25
100
AcDbLine
 10
1272.3664606428
 20
523.9580380904
 30
0.0
 11
1145.1732693886
 21
891.620987438
 31
0.0
  0
ARC
  5
B0
330
1F
100
AcDbEntity
  8
0
  6
Continuous
 62
     7
370
    25
100
AcDbCircle
 10
1007.1307887811
 20
843.86511846
 30
0.0
 40
146.0696733551958
100
AcDbArc
 50
19.0830885345
 51
160.9169114655
  0
LINE
  5
B1
330
1F
100
AcDbEntity
  8
0
  6
Continuous
 62
     7
370
    25
100
AcDbLine
 10
869.0883081737
 20
891.620987438
 30
0.0
 11
671.4761535865
 21
320.4059179361
 31
0.0
  0
ARC
  5
B2
330
1F
100
AcDbEntity
  8
0
  6
Continuous
 62
     7
370
    25
100
AcDbCircle
 10
669.9923017205
 20
320.9192572718
 30
0.0
 40
1.570138093903438
100
AcDbArc
 50
270.0
 51
340.9169114655
  0
MTEXT
  5
B4
330
1F
100
AcDbEntity
  8
0
  6
Continuous
 62
     7
100
AcDbMText
 10
77.9614613159
 20
213.3295527862
 30
0.0
 40
4.83362
 41
0.0
 71
     1
 72
     1
  1
SOLIDWORKS Educational Product.
  7
SLDTEXTSTYLE0
 73
     1
 44
1.0
  0
MTEXT
  5
B5
330
1F
100
AcDbEntity
  8
0
  6
Continuous
 62
     7
100
AcDbMText
 10
77.9614613159
 20
206.0791227862
 30
0.0
 40
4.83362
 41
0.0
 71
     1
 72
     1
  1
For Instructional Use Only.
  7
SLDTEXTSTYLE0
 73
     1
 44
1.0
  0
ENDSEC
  0
SECTION
  2
OBJECTS
  0
DICTIONARY
  5
C
330
0
100
AcDbDictionary
281
     1
  3
ACAD_GROUP
350
D
  3
ACAD_LAYOUT
350
1A
  3
ACAD_MLINESTYLE
350
17
  3
ACAD_PLOTSETTINGS
350
19
  3
ACAD_PLOTSTYLENAME
350
E
  3
ACAD_SCALELIST
350
47
  3
DWGPROPS
350
B6
  0
DICTIONARY
  5
D
102
{ACAD_REACTORS
330
C
102
}
330
C
100
AcDbDictionary
281
     1
  0
DICTIONARY
  5
1A
102
{ACAD_REACTORS
330
C
102
}
330
C
100
AcDbDictionary
281
     1
  3
Layout1
350
1E
  3
Layout2
350
26
  3
Model
350
22
  0
DICTIONARY
  5
17
102
{ACAD_REACTORS
330
C
102
}
330
C
100
AcDbDictionary
281
     1
  3
Standard
350
18
  0
DICTIONARY
  5
19
102
{ACAD_REACTORS
330
C
102
}
330
C
100
AcDbDictionary
281
     1
  0
ACDBDICTIONARYWDFLT
  5
E
102
{ACAD_REACTORS
330
C
102
}
330
C
100
AcDbDictionary
281
     1
  3
Normal
350
F
100
AcDbDictionaryWithDefault
340
F
  0
DICTIONARY
  5
47
102
{ACAD_REACTORS
330
C
102
}
330
C
100
AcDbDictionary
281
     1
  3
A0
350
48
  3
A1
350
49
  3
A2
350
4A
  3
A3
350
4B
  3
A4
350
4C
  3
A5
350
4D
  3
A6
350
4E
  3
A7
350
4F
  3
A8
350
50
  3
A9
350
51
  3
B0
350
52
  3
B1
350
53
  3
B2
350
54
  3
B3
350
55
  3
B4
350
56
  3
B5
350
57
  3
B6
350
58
  0
XRECORD
  5
B6
102
{ACAD_REACTORS
330
C
102
}
330
C
100
AcDbXrecord
280
     1
  1
DWGPROPS COOKIE
  2

  3

  4

  6

  7

  8
jakob
  9

300
=
301
=
302
=
303
=
304
=
305
=
306
=
307
=
308
=
309
=
 40
0.0
 41
2460368.021281759
 42
2460368.021669062
  1

 90
        0
  0
LAYOUT
  5
1E
102
{ACAD_REACTORS
330
1A
102
}
330
1A
100
AcDbPlotSettings
  1

  2
none_device
  4

  6

 40
0.0
 41
0.0
 42
0.0
 43
0.0
 44
0.0
 45
0.0
 46
0.0
 47
0.0
 48
0.0
 49
0.0
140
0.0
141
0.0
142
1.0
143
1.0
 70
   688
 72
     1
 73
     0
 74
     5
  7

 75
    16
147
1.0
148
0.0
149
0.0
100
AcDbLayout
  1
Layout1
 70
     1
 71
     1
 10
0.0
 20
0.0
 11
420.0
 21
297.0
 12
0.0
 22
0.0
 32
0.0
 14
1.0000000000E+20
 24
1.0000000000E+20
 34
1.0000000000E+20
 15
-1.0000000000E+20
 25
-1.0000000000E+20
 35
-1.0000000000E+20
146
0.0
 13
0.0
 23
0.0
 33
0.0
 16
1.0
 26
0.0
 36
0.0
 17
0.0
 27
1.0
 37
0.0
 76
     0
330
1B
  0
LAYOUT
  5
26
102
{ACAD_REACTORS
330
1A
102
}
330
1A
100
AcDbPlotSettings
  1

  2
none_device
  4

  6

 40
0.0
 41
0.0
 42
0.0
 43
0.0
 44
0.0
 45
0.0
 46
0.0
 47
0.0
 48
0.0
 49
0.0
140
0.0
141
0.0
142
1.0
143
1.0
 70
   688
 72
     1
 73
     0
 74
     5
  7

 75
    16
147
1.0
148
0.0
149
0.0
100
AcDbLayout
  1
Layout2
 70
     1
 71
     2
 10
0.0
 20
0.0
 11
0.0
 21
0.0
 12
0.0
 22
0.0
 32
0.0
 14
0.0
 24
0.0
 34
0.0
 15
0.0
 25
0.0
 35
0.0
146
0.0
 13
0.0
 23
0.0
 33
0.0
 16
1.0
 26
0.0
 36
0.0
 17
0.0
 27
1.0
 37
0.0
 76
     0
330
23
  0
LAYOUT
  5
22
102
{ACAD_REACTORS
330
1A
102
}
330
1A
100
AcDbPlotSettings
  1

  2
none_device
  4
ANSI_A_(11.00_x_8.50_Inches)
  6

 40
6.35
 41
19.05
 42
6.35000508
 43
19.05000254
 44
279.4
 45
215.9
 46
-20.7431087368
 47
-48.7268354324
 48
0.0
 49
0.0
140
0.0
141
0.0
142
0.0079739106
143
1.0
 70
  1696
 72
     0
 73
     0
 74
     0
  7

 75
     0
147
0.0179189148
148
-1300.4909072572
149
0.0
100
AcDbLayout
  1
Model
 70
     1
 71
     0
 10
0.0
 20
0.0
 11
420.0
 21
297.0
 12
0.0
 22
0.0
 32
0.0
 14
77.9614613159
 24
214.3491191779
 34
0.0
 15
1443.6652570964
 25
1144.6777263491
 35
0.0
146
0.0
 13
0.0
 23
0.0
 33
0.0
 16
1.0
 26
0.0
 36
0.0
 17
0.0
 27
1.0
 37
0.0
 76
     0
330
1F
331
29
  0
MLINESTYLE
  5
18
102
{ACAD_REACTORS
330
17
102
}
330
17
100
AcDbMlineStyle
  2
Standard
 70
     0
  3

 62
   256
 51
90.0
 52
90.0
 71
     2
 49
0.5
 62
   256
  6
BYLAYER
 49
-0.5
 62
   256
  6
BYLAYER
  0
ACDBPLACEHOLDER
  5
F
102
{ACAD_REACTORS
330
E
102
}
330
E
  0
SCALE
  5
48
102
{ACAD_REACTORS
330
47
102
}
330
47
100
AcDbScale
 70
     0
300
1:1
140
1.0
141
1.0
290
     1
  0
SCALE
  5
49
102
{ACAD_REACTORS
330
47
102
}
330
47
100
AcDbScale
 70
     0
300
1:2
140
1.0
141
2.0
290
     0
  0
SCALE
  5
4A
102
{ACAD_REACTORS
330
47
102
}
330
47
100
AcDbScale
 70
     0
300
1:4
140
1.0
141
4.0
290
     0
  0
SCALE
  5
4B
102
{ACAD_REACTORS
330
47
102
}
330
47
100
AcDbScale
 70
     0
300
1:5
140
1.0
141
5.0
290
     0
  0
SCALE
  5
4C
102
{ACAD_REACTORS
330
47
102
}
330
47
100
AcDbScale
 70
     0
300
1:8
140
1.0
141
8.0
290
     0
  0
SCALE
  5
4D
102
{ACAD_REACTORS
330
47
102
}
330
47
100
AcDbScale
 70
     0
300
1:10
140
1.0
141
10.0
290
     0
  0
SCALE
  5
4E
102
{ACAD_REACTORS
330
47
102
}
330
47
100
AcDbScale
 70
     0
300
1:16
140
1.0
141
16.0
290
     0
  0
SCALE
  5
4F
102
{ACAD_REACTORS
330
47
102
}
330
47
100
AcDbScale
 70
     0
300
1:20
140
1.0
141
20.0
290
     0
  0
SCALE
  5
50
102
{ACAD_REACTORS
330
47
102
}
330
47
100
AcDbScale
 70
     0
300
1:30
140
1.0
141
30.0
290
     0
  0
SCALE
  5
51
102
{ACAD_REACTORS
330
47
102
}
330
47
100
AcDbScale
 70
     0
300
1:40
140
1.0
141
40.0
290
     0
  0
SCALE
  5
52
102
{ACAD_REACTORS
330
47
102
}
330
47
100
AcDbScale
 70
     0
300
1:50
140
1.0
141
50.0
290
     0
  0
SCALE
  5
53
102
{ACAD_REACTORS
330
47
102
}
330
47
100
AcDbScale
 70
     0
300
1:100
140
1.0
141
100.0
290
     0
  0
SCALE
  5
54
102
{ACAD_REACTORS
330
47
102
}
330
47
100
AcDbScale
 70
     0
300
2:1
140
2.0
141
1.0
290
     0
  0
SCALE
  5
55
102
{ACAD_REACTORS
330
47
102
}
330
47
100
AcDbScale
 70
     0
300
4:1
140
4.0
141
1.0
290
     0
  0
SCALE
  5
56
102
{ACAD_REACTORS
330
47
102
}
330
47
100
AcDbScale
 70
     0
300
8:1
140
8.0
141
1.0
290
     0
  0
SCALE
  5
57
102
{ACAD_REACTORS
330
47
102
}
330
47
100
AcDbScale
 70
     0
300
10:1
140
10.0
141
1.0
290
     0
  0
SCALE
  5
58
102
{ACAD_REACTORS
330
47
102
}
330
47
100
AcDbScale
 70
     0
300
100:1
140
100.0
141
1.0
290
     0
  0
ENDSEC
  0
EOF
