<?xml version="1.0" encoding="UTF-8" standalone="yes"?>
<!-- Created with sK1/UniConvertor (http://sk1project.org/) -->
<svg xmlns="http://www.w3.org/2000/svg" xmlns:xlink="http://www.w3.org/1999/xlink"
  width="595.276pt" height="841.89pt" viewBox="0 0 595.276 841.89"
  fill-rule="evenodd">
<g>
<path style="stroke:#000000; stroke-width:0.850394; stroke-linejoin:round; stroke-linecap:round; fill:none" d="M 704.484 841.89C 715.038 842.048 722.347 842.273 729.2 841.96C 736.052 841.647 742.448 840.795 747.806 839.801C 753.165 838.807 757.487 837.671 761.371 835.798C 765.256 833.925 768.704 831.315 771.598 828.437C 774.492 825.558 776.834 822.41 778.78 819.144C 780.727 815.877 782.278 812.492 783.518 808.891C 784.759 805.29 785.689 801.473 786.056 797.654C 786.424 793.835 786.228 790.015 786.157 786.367C 786.085 782.718 786.138 779.24 785.722 775.654C 785.306 772.069 784.422 768.376 783.371 763.582C 782.32 758.787 781.101 752.891 779.381 746.178C 777.661 739.466 775.44 731.937 773.42 724.701C 771.399 717.464 769.579 710.52 768.065 704.486C 766.552 698.452 765.344 693.329 764.18 688.976C 763.017 684.623 761.897 681.04 761.297 676.957C 760.698 672.874 760.617 668.29 760.657 663.963C 760.697 659.636 760.857 655.567 761.612 651.731C 762.368 647.896 763.718 644.294 765.148 641.102C 766.577 637.91 768.086 635.128 769.86 632.537C 771.635 629.946 773.675 627.547 776.306 624.698C 778.938 621.85 782.16 618.554 786.119 615.124C 790.079 611.695 794.775 608.132 799.16 603.899C 803.546 599.666 807.62 594.764 811.094 589.631C 814.567 584.498 817.439 579.135 820.113 573.354C 822.787 567.573 825.263 561.374 827.975 554.98C 830.688 548.586 833.637 541.998 835.801 535.501C 837.964 529.003 839.342 522.597 840.005 517.127C 840.669 511.658 840.617 507.124 840.015 503.028C 839.413 498.931 838.261 495.27 836.245 491.984C 834.23 488.698 831.352 485.785 826.931 482.804C 822.51 479.822 816.546 476.771 807.069 473.736C 797.592 470.701 784.604 467.682 771.553 463.741C 758.502 459.8 745.389 454.937 733.238 450.145C 721.087 445.354 709.897 440.634 701.791 437.002C 693.684 433.37 688.661 430.826 684.236 428.6C 679.812 426.375 675.988 424.467 672.389 422.496C 668.791 420.525 665.418 418.49 661.769 416.272C 658.12 414.055 654.193 411.655 649.361 409.002C 644.529 406.349 638.791 403.444 633.194 399.923C 627.598 396.403 622.143 392.267 615.898 387.203C 609.652 382.14 602.616 376.149 595.909 369.449C 589.201 362.748 582.823 355.339 574.935 347.204C 567.046 339.069 557.648 330.208 547.814 321.555C 537.98 312.903 527.71 304.459 517.848 296.48C 507.985 288.501 498.53 280.988 490.45 274.235C 482.37 267.483 475.666 261.49 469.597 257.292C 463.529 253.093 458.096 250.687 452.724 249.006C 447.352 247.325 442.041 246.368 437.013 245.867C 431.986 245.365 427.242 245.319 422.604 245.649C 417.966 245.979 413.433 246.685 409.634 247.341"/>
<path style="stroke:#000000; stroke-width:0.850394; stroke-linejoin:round; stroke-linecap:round; fill:none" d="M 409.634 247.341L 248.614 275.148"/>
<path style="stroke:#000000; stroke-width:0.850394; stroke-linejoin:round; stroke-linecap:round; fill:none" d="M 248.614 275.148C 242.578 276.191 235.999 278.005 229.165 280.234C 222.331 282.463 215.243 285.108 208.653 288.97C 202.063 292.832 195.971 297.91 190.607 303.745C 185.243 309.581 180.607 316.172 177.387 323.745C 174.167 331.318 172.363 339.872 172.13 348.819C 171.898 357.766 173.237 367.105 175.96 376C 178.683 384.896 182.789 393.347 188.147 400.734C 193.505 408.12 200.114 414.441 208.212 419.629C 216.31 424.817 225.897 428.872 235.502 430.773C 245.107 432.674 254.729 432.423 264.589 430.709C 274.449 428.996 284.547 425.822 292.795 421.605C 301.044 417.388 307.443 412.129 313.965 407.071C 320.486 402.012 327.129 397.155 332.348 393.448C 337.566 389.74 341.359 387.183 344.6 384.902C 347.841 382.622 350.53 380.617 352.799 379.353C 355.068 378.089 356.918 377.565 358.573 377.386C 360.227 377.207 361.687 377.373 363.006 377.947C 364.325 378.521 365.504 379.503 366.654 380.871C 367.804 382.24 368.925 383.994 370.851 386.846C 372.776 389.697 375.506 393.646 379.185 398.781C 382.864 403.915 387.493 410.235 393.016 417.715C 398.54 425.194 404.96 433.834 411.321 442.473C 417.681 451.112 423.984 459.752 430.023 467.765C 436.063 475.778 441.839 483.164 447.766 490.677C 453.692 498.191 459.767 505.831 465.128 512.56C 470.488 519.288 475.134 525.105 479.658 530.073C 484.182 535.041 488.585 539.162 491.818 542.005C 495.051 544.849 497.114 546.415 499.497 547.895C 501.88 549.375 504.583 550.767 507.598 551.875C 510.613 552.984 513.942 553.809 517.459 554.223C 520.977 554.637 524.685 554.641 528.534 554.507"/>
<path style="stroke:#000000; stroke-width:0.850394; stroke-linejoin:round; stroke-linecap:round; fill:none" d="M 528.534 554.507L 612.387 551.603"/>
<path style="stroke:#000000; stroke-width:0.850394; stroke-linejoin:round; stroke-linecap:round; fill:none" d="M 612.387 551.603C 614.583 551.527 616.449 551.652 618.252 551.924C 620.055 552.196 621.795 552.614 623.338 553.245C 624.882 553.875 626.227 554.719 627.275 555.789C 628.322 556.859 629.071 558.156 629.625 559.458C 630.179 560.761 630.538 562.069 630.78 563.398C 631.021 564.726 631.145 566.074 631.233 567.456C 631.321 568.839 631.374 570.255 631.401 571.7"/>
<path style="stroke:#000000; stroke-width:0.850394; stroke-linejoin:round; stroke-linecap:round; fill:none" d="M 631.401 571.7L 633.657 690.389"/>
<path style="stroke:#000000; stroke-width:0.850394; stroke-linejoin:round; stroke-linecap:round; fill:none" d="M 633.657 690.389C 633.728 694.102 633.753 697.641 632.914 700.618C 632.075 703.595 630.372 706.01 628.503 707.395C 626.635 708.781 624.601 709.137 622.596 709.259C 620.591 709.381 618.613 709.269 615.78 708.722C 612.946 708.176 609.256 707.195 603.781 705.883C 598.306 704.571 591.047 702.927 581.609 700.511C 572.172 698.095 560.557 694.906 548.015 691.432C 535.473 687.958 522.003 684.201 508.691 680.102C 495.38 676.003 482.227 671.563 465.164 665.24C 448.102 658.917 427.13 650.71 405.445 642.281C 383.76 633.852 361.363 625.201 337.326 616.529C 313.289 607.857 287.612 599.163 265.636 592.894C 243.66 586.625 225.386 582.78 207.902 579.035C 190.419 575.291 173.726 571.647 156.84 568.534C 139.955 565.421 122.876 562.84 107.698 560.595C 92.5214 558.351 79.2461 556.443 67.3063 554.776C 55.3665 553.108 44.7621 551.679 37.2151 551.317C 29.6681 550.955 25.1784 551.66 21.3278 552.876C 17.4772 554.092 14.2656 555.82 11.6305 557.821C 8.9953 559.821 6.93655 562.093 5.41237 564.457C 3.88819 566.822 2.89858 569.277 2.03892 571.906C 1.17927 574.534 0.449556 577.335 0.214609 581.746C -0.0203383 586.156 0.239479 592.176 0.242175 599.966C 0.24487 607.755 -0.00955577 617.315 0.0115526 628.643C 0.032661 639.97 0.329304 653.064 1.31247 666.231C 2.29564 679.397 3.96534 692.634 5.97985 706.253C 7.99437 719.872 10.3537 733.871 12.3902 747.112C 14.4268 760.353 16.1405 772.835 19.0599 783.76C 21.9792 794.685 26.1042 804.051 30.5079 810.476C 34.9117 816.9 39.5943 820.383 43.7982 823.066C 48.0021 825.75 51.7273 827.636 57.1192 828.945C 62.511 830.255 69.5695 830.987 77.6066 831.605C 85.6436 832.222 94.6594 832.725 106.442 832.902"/>
<path style="stroke:#000000; stroke-width:0.850394; stroke-linejoin:round; stroke-linecap:round; fill:none" d="M 106.442 832.902L 704.484 841.89"/>
<path style="stroke:#000000; stroke-width:0.850394; stroke-linejoin:round; stroke-linecap:round; fill:none" d="M 412.616 264.611L 251.597 292.418"/>
<path style="stroke:#000000; stroke-width:0.850394; stroke-linejoin:round; stroke-linecap:round; fill:none" d="M 704.748 824.366C 705.99 824.385 707.24 824.406 708.678 824.43C 710.116 824.455 711.741 824.482 713.544 824.507C 715.347 824.532 717.329 824.555 719.462 824.555C 721.596 824.554 723.882 824.531 726.121 824.467C 728.36 824.404 730.552 824.302 732.526 824.164C 734.499 824.027 736.253 823.854 737.816 823.668C 739.379 823.482 740.75 823.283 742.124 823.061C 743.497 822.839 744.873 822.593 746.163 822.325C 747.453 822.057 748.658 821.767 749.732 821.452C 750.807 821.138 751.75 820.799 752.501 820.5C 753.251 820.201 753.808 819.943 754.36 819.651C 754.912 819.358 755.459 819.032 756.007 818.667C 756.555 818.301 757.103 817.897 757.641 817.46C 758.178 817.022 758.704 816.552 759.294 815.967C 759.884 815.382 760.538 814.683 761.17 813.913C 761.802 813.143 762.413 812.303 762.989 811.405C 763.566 810.508 764.109 809.553 764.562 808.698C 765.015 807.844 765.379 807.089 765.721 806.313C 766.063 805.538 766.384 804.741 766.682 803.93C 766.98 803.118 767.255 802.291 767.493 801.486C 767.732 800.681 767.934 799.897 768.1 799.136C 768.266 798.375 768.396 797.636 768.491 796.926C 768.587 796.215 768.647 795.534 768.686 794.731C 768.724 793.927 768.741 793.001 768.739 792.072C 768.737 791.142 768.718 790.21 768.698 789.319C 768.678 788.428 768.658 787.58 768.642 786.7C 768.626 785.82 768.613 784.91 768.603 783.975C 768.594 783.039 768.587 782.079 768.567 781.213C 768.547 780.347 768.514 779.575 768.474 778.95C 768.434 778.324 768.388 777.845 768.334 777.386C 768.28 776.927 768.218 776.487 768.126 775.963C 768.034 775.438 767.914 774.827 767.771 774.158C 767.627 773.489 767.462 772.762 767.284 771.98C 767.105 771.198 766.914 770.363 766.704 769.429C 766.494 768.496 766.266 767.465 766.021 766.349C 765.776 765.233 765.514 764.032 765.211 762.652C 764.909 761.272 764.565 759.714 764.175 758.009C 763.786 756.305 763.349 754.454 762.834 752.39C 762.318 750.326 761.723 748.049 761.107 745.754C 760.49 743.459 759.853 741.146 759.202 738.812C 758.551 736.478 757.887 734.122 757.219 731.739C 756.551 729.356 755.879 726.945 755.218 724.528C 754.556 722.112 753.905 719.69 753.316 717.465C 752.728 715.241 752.202 713.213 751.736 711.388C 751.269 709.562 750.861 707.939 750.506 706.513C 750.151 705.086 749.85 703.857 749.555 702.644C 749.26 701.432 748.973 700.236 748.691 699.075C 748.409 697.915 748.132 696.791 747.854 695.706C 747.575 694.621 747.294 693.576 746.982 692.436C 746.669 691.296 746.324 690.062 745.973 688.747C 745.622 687.432 745.264 686.036 744.951 684.68C 744.638 683.324 744.37 682.008 744.157 680.776C 743.943 679.543 743.784 678.394 743.653 677.274C 743.521 676.154 743.416 675.062 743.339 674.001C 743.263 672.941 743.216 671.912 743.185 670.917C 743.154 669.922 743.139 668.961 743.131 668.139C 743.124 667.318 743.123 666.635 743.125 665.962C 743.128 665.289 743.132 664.627 743.143 663.83C 743.154 663.034 743.17 662.104 743.203 661.031C 743.236 659.958 743.285 658.742 743.378 657.357C 743.471 655.971 743.608 654.418 743.8 652.825C 743.993 651.232 744.241 649.601 744.573 647.921C 744.906 646.24 745.323 644.512 745.805 642.844C 746.287 641.177 746.834 639.572 747.417 638.033C 748 636.493 748.62 635.02 749.277 633.575C 749.934 632.13 750.629 630.713 751.385 629.291C 752.14 627.869 752.957 626.442 753.843 625.029C 754.729 623.616 755.685 622.217 756.649 620.902C 757.613 619.588 758.587 618.357 759.557 617.19C 760.528 616.022 761.495 614.916 762.445 613.861C 763.395 612.805 764.329 611.8 765.289 610.794C 766.25 609.788 767.237 608.781 768.252 607.781C 769.268 606.781 770.312 605.787 771.347 604.833C 772.383 603.878 773.41 602.963 774.583 601.94C 775.756 600.917 777.074 599.785 778.344 598.707C 779.613 597.628 780.833 596.601 781.987 595.605C 783.141 594.609 784.229 593.643 785.261 592.698C 786.294 591.753 787.273 590.83 788.335 589.76C 789.398 588.69 790.545 587.473 791.744 586.085C 792.943 584.698 794.194 583.139 795.364 581.554C 796.534 579.969 797.621 578.358 798.661 576.668C 799.7 574.977 800.691 573.206 801.654 571.349C 802.617 569.491 803.553 567.547 804.476 565.523C 805.398 563.5 806.307 561.397 807.148 559.411C 807.988 557.425 808.758 555.557 809.471 553.841C 810.184 552.126 810.839 550.564 811.489 549.025C 812.138 547.487 812.781 545.973 813.487 544.304C 814.192 542.636 814.96 540.812 815.753 538.856C 816.545 536.899 817.362 534.81 818.107 532.766C 818.852 530.722 819.525 528.724 820.116 526.752C 820.707 524.781 821.215 522.836 821.633 520.916C 822.05 518.997 822.377 517.104 822.604 515.248C 822.83 513.391 822.956 511.573 822.976 510.026C 822.996 508.479 822.91 507.204 822.776 506.116C 822.642 505.027 822.46 504.125 822.305 503.477C 822.15 502.83 822.021 502.437 821.91 502.137C 821.799 501.837 821.705 501.628 821.635 501.481C 821.565 501.334 821.519 501.248 821.464 501.158C 821.41 501.067 821.348 500.972 821.246 500.831C 821.143 500.69 821 500.504 820.785 500.259C 820.569 500.014 820.282 499.709 819.784 499.261C 819.286 498.813 818.577 498.221 817.442 497.427C 816.308 496.633 814.748 495.636 812.386 494.486C 810.024 493.335 806.86 492.031 803.478 490.857C 800.095 489.684 796.494 488.643 793.123 487.707C 789.752 486.771 786.61 485.94 783.387 485.074C 780.165 484.208 776.861 483.307 773.174 482.238C 769.486 481.17 765.415 479.934 760.17 478.237C 754.926 476.54 748.509 474.382 742.552 472.257C 736.594 470.132 731.097 468.04 726.031 466.057C 720.965 464.074 716.33 462.2 712.854 460.786C 709.378 459.371 707.061 458.415 704.73 457.437C 702.4 456.459 700.056 455.458 697.702 454.426C 695.348 453.394 692.983 452.331 690.632 451.236C 688.281 450.142 685.943 449.016 683.655 447.891C 681.368 446.767 679.13 445.643 677.107 444.63C 675.084 443.617 673.275 442.713 671.595 441.864C 669.914 441.015 668.362 440.22 666.981 439.497C 665.6 438.775 664.391 438.126 663.191 437.461C 661.992 436.796 660.802 436.114 659.648 435.44C 658.494 434.766 657.376 434.098 656.284 433.441C 655.193 432.784 654.128 432.137 652.905 431.395C 651.682 430.652 650.302 429.814 648.943 428.997C 647.585 428.18 646.25 427.384 644.935 426.622C 643.62 425.861 642.326 425.133 641.159 424.486C 639.991 423.84 638.951 423.274 637.884 422.696C 636.818 422.118 635.726 421.528 634.61 420.92C 633.494 420.311 632.355 419.685 631.194 419.033C 630.033 418.382 628.85 417.705 627.457 416.876C 626.064 416.048 624.461 415.067 622.712 413.939C 620.963 412.812 619.068 411.537 617.039 410.101C 615.01 408.666 612.848 407.07 610.742 405.462C 608.636 403.854 606.587 402.234 604.57 400.606C 602.553 398.979 600.567 397.345 598.578 395.664C 596.588 393.984 594.595 392.257 592.285 390.168C 589.976 388.078 587.35 385.626 584.543 382.843C 581.736 380.061 578.747 376.949 575.589 373.578C 572.431 370.208 569.103 366.579 565.829 363.101C 562.554 359.623 559.333 356.296 556.011 353.01C 552.689 349.724 549.266 346.478 545.781 343.271C 542.296 340.064 538.748 336.894 535.149 333.753C 531.549 330.612 527.898 327.5 524.207 324.405C 520.516 321.31 516.785 318.233 513.026 315.165C 509.268 312.098 505.481 309.039 501.988 306.223C 498.495 303.407 495.295 300.834 492.409 298.497C 489.522 296.16 486.949 294.059 484.697 292.209C 482.445 290.358 480.515 288.757 478.744 287.275C 476.972 285.792 475.36 284.428 473.916 283.194C 472.472 281.96 471.196 280.856 470.111 279.919C 469.027 278.982 468.134 278.213 467.262 277.473C 466.39 276.733 465.54 276.022 464.71 275.347C 463.88 274.672 463.072 274.033 462.279 273.432C 461.487 272.831 460.711 272.267 459.958 271.749C 459.205 271.23 458.474 270.756 457.727 270.303C 456.979 269.85 456.215 269.418 455.297 268.939C 454.379 268.461 453.308 267.936 452.066 267.4C 450.824 266.863 449.41 266.314 447.815 265.803C 446.221 265.292 444.446 264.819 442.604 264.427C 440.763 264.035 438.857 263.724 436.906 263.49C 434.956 263.257 432.961 263.101 430.981 263.028C 429 262.954 427.033 262.963 425.249 263.042C 423.465 263.121 421.865 263.27 420.443 263.435C 419.021 263.6 417.778 263.781 416.788 263.931C 415.799 264.08 415.064 264.199 414.41 264.307C 413.756 264.416 413.183 264.513 412.616 264.611"/>
<path style="stroke:#000000; stroke-width:0.850394; stroke-linejoin:round; stroke-linecap:round; fill:none" d="M 106.705 815.378L 704.748 824.366"/>
<path style="stroke:#000000; stroke-width:0.850394; stroke-linejoin:round; stroke-linecap:round; fill:none" d="M 651.18 690.056C 651.186 690.395 651.192 690.721 651.198 691.136C 651.203 691.551 651.209 692.054 651.209 692.656C 651.209 693.259 651.205 693.962 651.179 694.797C 651.153 695.632 651.105 696.599 651.02 697.625C 650.935 698.65 650.813 699.733 650.635 700.869C 650.457 702.006 650.222 703.196 649.907 704.435C 649.591 705.673 649.195 706.959 648.699 708.263C 648.204 709.566 647.609 710.886 646.893 712.211C 646.177 713.536 645.34 714.864 644.43 716.077C 643.521 717.289 642.541 718.385 641.547 719.339C 640.553 720.294 639.547 721.106 638.607 721.788C 637.668 722.47 636.796 723.022 635.865 723.526C 634.933 724.031 633.942 724.487 633 724.858C 632.058 725.228 631.165 725.513 630.315 725.745C 629.465 725.977 628.659 726.155 627.897 726.295C 627.136 726.435 626.42 726.536 625.755 726.613C 625.091 726.69 624.477 726.742 623.78 726.785C 623.083 726.827 622.301 726.859 621.442 726.863C 620.582 726.868 619.645 726.844 618.655 726.781C 617.665 726.718 616.622 726.614 615.624 726.485C 614.625 726.356 613.669 726.202 612.764 726.035C 611.858 725.869 611.002 725.689 610.192 725.508C 609.382 725.327 608.617 725.143 607.898 724.964C 607.179 724.786 606.506 724.614 605.773 724.427C 605.04 724.239 604.246 724.038 603.335 723.81C 602.424 723.583 601.395 723.329 600.259 723.054C 599.124 722.778 597.883 722.48 596.631 722.182C 595.38 721.883 594.118 721.585 592.636 721.234C 591.154 720.883 589.451 720.479 587.512 720.013C 585.573 719.548 583.399 719.019 581.022 718.425C 578.645 717.831 576.064 717.171 573.492 716.503C 570.919 715.834 568.354 715.155 565.797 714.471C 563.24 713.786 560.692 713.096 558.151 712.402C 555.611 711.708 553.078 711.01 550.552 710.313C 548.026 709.616 545.507 708.919 542.561 708.102C 539.616 707.285 536.244 706.347 532.445 705.28C 528.646 704.212 524.419 703.016 519.763 701.666C 515.106 700.316 510.02 698.812 504.932 697.259C 499.844 695.705 494.754 694.101 489.683 692.449C 484.611 690.797 479.559 689.096 474.518 687.344C 469.477 685.591 464.449 683.787 459.457 681.945C 454.464 680.102 449.509 678.221 444.588 676.327C 439.667 674.434 434.78 672.528 429.911 670.629C 425.043 668.73 420.192 666.838 414.528 664.635C 408.865 662.432 402.389 659.919 395.106 657.108C 387.822 654.298 379.731 651.189 370.825 647.812C 361.92 644.435 352.2 640.788 342.462 637.198C 332.724 633.607 322.968 630.073 314.027 626.895C 305.087 623.717 296.962 620.895 289.669 618.467C 282.376 616.039 275.914 614.006 269.461 612.077C 263.007 610.147 256.561 608.322 250.027 606.627C 243.493 604.931 236.87 603.365 230.188 601.85C 223.506 600.334 216.765 598.869 209.981 597.405C 203.196 595.941 196.367 594.478 189.576 593.02C 182.785 591.561 176.03 590.107 169.315 588.743C 162.6 587.379 155.925 586.104 150.071 585.046C 144.217 583.987 139.184 583.144 134.114 582.333C 129.044 581.521 123.937 580.741 118.807 579.97C 113.677 579.2 108.524 578.438 103.376 577.682C 98.2279 576.926 93.0849 576.175 88.3685 575.493C 83.652 574.811 79.3621 574.197 75.4999 573.648C 71.6377 573.099 68.2034 572.615 65.196 572.193C 62.1886 571.771 59.6081 571.411 57.245 571.083C 54.8819 570.756 52.7362 570.461 50.7961 570.194C 48.8561 569.928 47.1216 569.689 45.4574 569.466C 43.7931 569.244 42.199 569.036 40.5331 568.859C 38.8673 568.681 37.1297 568.533 35.5601 568.49C 33.9906 568.447 32.5891 568.509 31.3884 568.628C 30.1877 568.747 29.1877 568.923 28.254 569.134C 27.3204 569.345 26.4531 569.59 25.6557 569.89C 24.8583 570.19 24.1308 570.544 23.4805 570.935C 22.8303 571.325 22.2573 571.752 21.8291 572.105C 21.4008 572.459 21.1174 572.739 20.8914 572.984C 20.6655 573.229 20.4971 573.437 20.3662 573.61C 20.2353 573.783 20.1418 573.92 20.0569 574.055C 19.9719 574.191 19.8953 574.324 19.8005 574.508C 19.7057 574.693 19.5927 574.929 19.4732 575.203C 19.3538 575.477 19.228 575.789 19.0926 576.154C 18.9572 576.519 18.8122 576.936 18.6752 577.355C 18.5382 577.773 18.4093 578.193 18.2964 578.588C 18.1836 578.983 18.0869 579.354 18.0036 579.707C 17.9204 580.061 17.8506 580.398 17.7952 580.704C 17.7398 581.009 17.6988 581.282 17.6631 581.585C 17.6273 581.889 17.5968 582.224 17.5697 582.665C 17.5427 583.107 17.5192 583.655 17.5104 584.277C 17.5015 584.898 17.5074 585.593 17.5223 586.357C 17.5371 587.122 17.5609 587.956 17.5852 588.837C 17.6095 589.718 17.6341 590.647 17.6563 591.679C 17.6784 592.712 17.698 593.848 17.7152 595.322C 17.7325 596.795 17.7474 598.605 17.7514 600.625C 17.7553 602.644 17.7483 604.873 17.731 607.301C 17.7136 609.729 17.686 612.358 17.6586 614.963C 17.6312 617.568 17.604 620.15 17.5865 623.136C 17.5689 626.122 17.561 629.511 17.5893 633.319C 17.6176 637.128 17.682 641.354 17.8271 645.977C 17.9721 650.599 18.1976 655.616 18.5878 661.443C 18.9779 667.269 19.5327 673.904 20.2582 680.581C 20.9838 687.257 21.8802 693.974 22.8642 700.736C 23.8482 707.497 24.9197 714.303 25.8035 719.853C 26.6872 725.404 27.3831 729.701 28.002 733.59C 28.6208 737.48 29.1626 740.963 29.6925 744.408C 30.2224 747.852 30.7406 751.258 31.2712 754.596C 31.8019 757.934 32.3451 761.205 32.9495 764.411C 33.5539 767.617 34.2194 770.758 34.8421 773.47C 35.4648 776.183 36.0447 778.466 36.6803 780.734C 37.3159 783.002 38.0073 785.254 38.7436 787.412C 39.48 789.571 40.2615 791.635 41.0896 793.539C 41.9178 795.443 42.7927 797.186 43.5827 798.563C 44.3726 799.94 45.0777 800.951 45.6727 801.732C 46.2677 802.514 46.7526 803.067 47.155 803.509C 47.5574 803.951 47.8773 804.282 48.2702 804.655C 48.6631 805.028 49.129 805.444 49.6495 805.867C 50.17 806.29 50.7449 806.72 51.2897 807.107C 51.8345 807.494 52.3491 807.837 52.8838 808.182C 53.4185 808.526 53.9734 808.872 54.5804 809.229C 55.1875 809.585 55.8467 809.953 56.4783 810.276C 57.1099 810.598 57.7138 810.875 58.2375 811.096C 58.7613 811.317 59.2049 811.483 59.6287 811.63C 60.0525 811.777 60.4564 811.905 60.9694 812.043C 61.4823 812.18 62.1043 812.327 62.8836 812.473C 63.6629 812.619 64.5995 812.764 65.6297 812.896C 66.6598 813.027 67.7834 813.145 68.9945 813.261C 70.2055 813.378 71.504 813.492 72.7938 813.602C 74.0835 813.712 75.3644 813.817 76.65 813.918C 77.9356 814.019 79.2257 814.116 80.7287 814.222C 82.2316 814.328 83.9473 814.444 85.8708 814.561C 87.7944 814.679 89.9257 814.8 92.0316 814.902C 94.1376 815.005 96.218 815.09 98.0698 815.156C 99.9216 815.222 101.545 815.268 102.944 815.303C 104.343 815.337 105.519 815.36 106.705 815.378"/>
<path style="stroke:#000000; stroke-width:0.850394; stroke-linejoin:round; stroke-linecap:round; fill:none" d="M 648.923 571.367L 651.18 690.056"/>
<path style="stroke:#000000; stroke-width:0.850394; stroke-linejoin:round; stroke-linecap:round; fill:none" d="M 611.78 534.088C 613.859 534.016 615.42 534.06 616.806 534.156C 618.193 534.251 619.406 534.398 620.354 534.529C 621.302 534.659 621.986 534.774 622.704 534.908C 623.423 535.041 624.176 535.194 625.085 535.414C 625.994 535.635 627.06 535.923 628.302 536.363C 629.545 536.802 630.964 537.394 632.264 538.051C 633.563 538.709 634.742 539.432 635.793 540.173C 636.845 540.913 637.769 541.671 638.572 542.394C 639.376 543.117 640.058 543.805 640.688 544.512C 641.319 545.219 641.897 545.945 642.499 546.786C 643.101 547.628 643.728 548.587 644.321 549.645C 644.915 550.703 645.476 551.86 645.975 553.093C 646.474 554.326 646.911 555.634 647.264 556.91C 647.617 558.186 647.885 559.43 648.086 560.599C 648.288 561.768 648.423 562.862 648.533 563.995C 648.643 565.128 648.726 566.298 648.789 567.457C 648.851 568.615 648.893 569.761 648.923 571.367"/>
<path style="stroke:#000000; stroke-width:0.850394; stroke-linejoin:round; stroke-linecap:round; fill:none" d="M 527.927 536.992L 611.78 534.088"/>
<path style="stroke:#000000; stroke-width:0.850394; stroke-linejoin:round; stroke-linecap:round; fill:none" d="M 251.597 292.418C 250.953 292.529 250.317 292.648 249.562 292.799C 248.807 292.95 247.932 293.134 246.935 293.363C 245.938 293.592 244.818 293.866 243.567 294.198C 242.317 294.53 240.936 294.919 239.289 295.412C 237.643 295.905 235.731 296.501 233.643 297.194C 231.555 297.887 229.292 298.678 227.174 299.518C 225.056 300.358 223.084 301.247 221.397 302.089C 219.71 302.932 218.307 303.728 216.914 304.582C 215.521 305.436 214.137 306.346 212.782 307.333C 211.428 308.319 210.102 309.38 208.814 310.507C 207.525 311.634 206.275 312.826 205.048 314.062C 203.821 315.298 202.618 316.579 201.351 318.054C 200.085 319.53 198.755 321.201 197.602 322.866C 196.448 324.531 195.472 326.19 194.699 327.683C 193.927 329.176 193.359 330.502 192.835 331.889C 192.311 333.275 191.831 334.722 191.387 336.431C 190.944 338.139 190.536 340.11 190.212 342.787C 189.887 345.463 189.647 348.846 189.756 352.683C 189.865 356.52 190.325 360.811 191.251 365.089C 192.178 369.367 193.572 373.631 195.055 377.267C 196.538 380.903 198.11 383.911 199.592 386.416C 201.075 388.92 202.467 390.922 203.996 392.826C 205.524 394.73 207.188 396.536 208.97 398.23C 210.752 399.924 212.653 401.505 214.652 402.954C 216.651 404.403 218.747 405.721 220.937 406.907C 223.128 408.094 225.411 409.15 227.759 410.062C 230.106 410.974 232.517 411.742 235.383 412.437C 238.248 413.132 241.569 413.754 244.977 414.083C 248.386 414.412 251.883 414.449 255.381 414.204C 258.879 413.958 262.377 413.431 265.191 412.894C 268.004 412.358 270.132 411.811 271.99 411.26C 273.848 410.708 275.436 410.151 276.976 409.557C 278.517 408.963 280.01 408.332 281.699 407.51C 283.389 406.687 285.276 405.673 287.392 404.39C 289.509 403.107 291.856 401.557 294.25 399.876C 296.644 398.196 299.085 396.386 301.377 394.653C 303.67 392.92 305.815 391.265 307.784 389.763C 309.752 388.262 311.545 386.914 313.114 385.745C 314.683 384.577 316.028 383.587 317.379 382.604C 318.73 381.621 320.086 380.645 321.449 379.675C 322.813 378.706 324.184 377.743 325.426 376.877C 326.668 376.011 327.78 375.243 328.771 374.557C 329.763 373.871 330.634 373.268 331.391 372.742C 332.148 372.216 332.791 371.768 333.376 371.358C 333.96 370.949 334.487 370.578 334.958 370.245C 335.43 369.911 335.847 369.614 336.208 369.356C 336.569 369.098 336.874 368.879 337.187 368.653C 337.5 368.427 337.821 368.194 338.236 367.895C 338.651 367.596 339.159 367.231 339.798 366.785C 340.437 366.338 341.207 365.81 342.187 365.199C 343.168 364.588 344.36 363.893 345.706 363.222C 347.052 362.551 348.552 361.903 350.06 361.387C 351.567 360.872 353.082 360.49 354.522 360.235C 355.961 359.981 357.325 359.855 358.559 359.803C 359.793 359.75 360.898 359.771 362.052 359.87C 363.207 359.968 364.411 360.145 365.555 360.397C 366.699 360.65 367.783 360.978 368.769 361.346C 369.755 361.715 370.643 362.125 371.474 362.551C 372.305 362.977 373.078 363.42 373.865 363.937C 374.651 364.454 375.451 365.045 376.218 365.685C 376.985 366.324 377.72 367.013 378.468 367.784C 379.217 368.555 379.98 369.407 380.63 370.208C 381.28 371.008 381.817 371.757 382.276 372.417C 382.735 373.078 383.115 373.65 383.408 374.095C 383.701 374.539 383.908 374.855 384.113 375.167C 384.319 375.478 384.523 375.785 384.764 376.147C 385.006 376.508 385.284 376.923 385.601 377.391C 385.918 377.859 386.273 378.38 386.743 379.063C 387.212 379.745 387.796 380.588 388.466 381.547C 389.135 382.506 389.89 383.58 390.725 384.759C 391.559 385.937 392.473 387.221 393.393 388.505C 394.312 389.789 395.238 391.074 396.168 392.359C 397.097 393.644 398.031 394.929 398.97 396.215C 399.908 397.501 400.85 398.787 401.953 400.29C 403.057 401.794 404.322 403.513 405.751 405.45C 407.179 407.387 408.771 409.542 410.525 411.914C 412.279 414.286 414.195 416.875 416.113 419.467C 418.031 422.059 419.952 424.655 421.872 427.257C 423.792 429.859 425.713 432.467 427.944 435.5C 430.174 438.533 432.714 441.991 435.563 445.852C 438.412 449.712 441.569 453.976 444.759 458.196C 447.948 462.416 451.17 466.592 454.099 470.356C 457.028 474.12 459.664 477.471 461.977 480.404C 464.289 483.336 466.279 485.849 468.275 488.364C 470.271 490.879 472.273 493.396 474.275 495.912C 476.277 498.428 478.277 500.943 480.26 503.408C 482.243 505.872 484.208 508.285 486.179 510.641C 488.15 512.996 490.126 515.295 491.946 517.333C 493.766 519.372 495.429 521.151 496.952 522.72C 498.474 524.29 499.855 525.651 501.181 526.91C 502.508 528.168 503.779 529.325 505 530.328C 506.22 531.332 507.391 532.183 508.558 532.91C 509.726 533.637 510.89 534.239 511.896 534.702C 512.902 535.165 513.751 535.489 514.644 535.77C 515.538 536.051 516.477 536.29 517.428 536.477C 518.379 536.663 519.341 536.799 520.31 536.888C 521.28 536.977 522.256 537.021 523.176 537.041C 524.096 537.061 524.959 537.058 525.744 537.047C 526.529 537.035 527.236 537.016 527.927 536.992"/>
</g>
</svg>