<?xml version="1.0" standalone="no"?>
<!DOCTYPE svg PUBLIC "-//W3C//DTD SVG 20010904//EN"
 "http://www.w3.org/TR/2001/REC-SVG-20010904/DTD/svg10.dtd">
<svg version="1.0" xmlns="http://www.w3.org/2000/svg"
 width="1772.000000pt" height="1212.000000pt" viewBox="0 0 1772.000000 1212.000000"
 preserveAspectRatio="xMidYMid meet">

<g transform="translate(0.000000,1212.000000) scale(0.100000,-0.100000)"
fill="#000000" stroke="none">
<path d="M9215 11553 c-38 -2 -119 -7 -180 -13 -165 -14 -3038 -512 -3240
-561 -231 -57 -458 -143 -604 -232 -230 -138 -449 -374 -550 -590 -216 -463
-104 -1126 260 -1545 305 -351 785 -522 1284 -458 300 39 545 145 846 366 85
63 264 193 399 290 412 296 450 319 531 320 66 0 102 -29 184 -145 93 -134
662 -914 793 -1090 247 -329 838 -1095 980 -1270 85 -104 211 -250 280 -324
235 -250 366 -337 577 -387 l120 -28 838 28 c461 16 877 26 924 22 137 -10
209 -52 243 -142 24 -62 30 -213 51 -1331 21 -1123 21 -1165 4 -1229 -20 -75
-61 -129 -112 -150 -53 -22 -142 -16 -300 20 -319 75 -1140 293 -1563 417
-581 170 -1042 333 -2185 771 -1708 656 -2353 871 -3185 1062 -1050 240 -1629
346 -2895 527 -597 85 -754 96 -894 59 -103 -26 -190 -69 -258 -127 -64 -55
-102 -113 -145 -223 l-33 -85 -3 -525 c-6 -953 22 -1346 158 -2216 131 -838
175 -1052 267 -1296 91 -240 199 -380 382 -493 175 -109 325 -140 801 -165 91
-4 2748 -48 5906 -96 6271 -96 5929 -94 6189 -38 286 61 468 201 587 454 73
156 98 272 98 463 0 237 -19 352 -130 795 -54 219 -119 471 -144 562 -156 575
-186 719 -186 906 0 268 52 442 186 629 70 97 202 230 485 488 124 113 256
284 343 445 77 143 251 546 327 757 73 203 109 375 109 525 0 303 -87 439
-375 582 -119 60 -241 100 -785 263 -437 130 -907 304 -1326 491 -290 129
-530 255 -1099 577 -375 212 -687 469 -1136 935 -166 173 -386 387 -525 513
-278 251 -207 192 -939 793 -641 527 -693 563 -905 631 -127 41 -336 72 -455
68z m210 -29 c75 -9 167 -30 245 -55 213 -68 266 -105 957 -674 736 -605 1029
-868 1400 -1254 449 -467 768 -729 1143 -941 578 -326 806 -446 1095 -575 407
-181 891 -362 1274 -476 545 -162 732 -224 848 -282 121 -62 213 -130 263
-197 136 -179 131 -497 -13 -895 -85 -232 -249 -610 -330 -758 -75 -137 -214
-325 -290 -393 -23 -20 -135 -125 -250 -232 -243 -229 -327 -334 -396 -498
-62 -150 -82 -285 -71 -492 10 -197 29 -283 191 -884 133 -496 236 -935 253
-1080 35 -302 13 -497 -80 -693 -120 -255 -295 -395 -569 -454 -55 -11 -185
-28 -290 -37 -183 -16 -389 -13 -5860 70 -3523 54 -5774 92 -5945 101 -358 18
-512 37 -623 74 -109 37 -251 124 -335 205 -123 119 -232 344 -307 636 -67
261 -226 1254 -285 1784 -47 429 -64 850 -58 1521 l3 440 32 89 c56 154 128
239 259 304 108 54 172 66 344 66 138 -1 214 -9 695 -78 1260 -180 1829 -283
2870 -522 841 -193 1478 -405 3195 -1064 1139 -437 1626 -609 2210 -779 414
-120 1118 -308 1505 -401 294 -71 390 -52 451 85 27 61 28 289 5 1455 -23
1112 -24 1129 -77 1209 -36 56 -109 90 -211 100 -48 5 -383 -2 -868 -19 -459
-15 -832 -24 -890 -20 -275 19 -430 107 -707 402 -70 73 -195 219 -280 323
-169 208 -870 1120 -1069 1390 -246 334 -636 872 -702 967 -37 53 -79 106 -93
117 -65 51 -152 45 -259 -20 -63 -38 -385 -267 -715 -509 -272 -199 -418 -282
-605 -343 -688 -225 -1399 22 -1730 601 -138 241 -218 559 -208 832 10 286 79
485 243 699 227 295 521 472 980 590 103 27 629 122 1580 286 784 135 1466
253 1515 262 183 32 394 39 560 17z"/>
<path d="M9020 11223 c-14 -2 -704 -121 -1534 -264 -1064 -183 -1553 -272
-1660 -300 -330 -87 -526 -190 -703 -371 -175 -179 -247 -327 -267 -553 -22
-256 38 -530 165 -748 257 -443 785 -630 1332 -472 169 49 309 127 570 321
269 199 673 485 745 527 97 57 183 81 292 81 186 1 305 -70 430 -254 86 -127
542 -752 890 -1220 528 -710 990 -1290 1184 -1488 222 -227 311 -272 538 -272
59 0 430 12 825 26 409 14 765 23 828 19 276 -16 453 -130 539 -348 49 -125
54 -233 76 -1467 19 -1037 19 -1142 5 -1220 -57 -312 -267 -487 -560 -466 -49
4 -139 18 -200 31 -418 90 -1735 451 -2095 573 -561 191 -925 325 -1710 627
-1628 626 -2351 870 -3100 1044 -642 149 -1312 285 -1780 361 -471 76 -1465
222 -1675 245 -153 16 -262 8 -330 -26 -60 -30 -84 -57 -108 -126 -19 -54 -21
-85 -25 -458 -6 -594 17 -1109 69 -1545 73 -603 213 -1456 281 -1705 45 -165
116 -337 168 -406 56 -73 177 -158 270 -187 68 -22 299 -42 660 -58 344 -15
10727 -174 11338 -174 439 0 667 40 781 136 71 60 156 218 187 349 4 17 6 106
5 199 -3 246 -26 356 -290 1348 -152 574 -171 674 -171 907 0 462 177 788 654
1206 283 247 378 389 574 856 152 360 196 496 216 659 20 162 10 239 -37 288
-86 90 -260 158 -803 316 -847 246 -1652 586 -2364 999 -678 393 -884 557
-1500 1196 -294 305 -631 605 -1255 1116 -685 562 -682 560 -790 612 -143 69
-267 93 -475 91 -91 0 -176 -3 -190 -5z m445 -27 c179 -37 257 -77 468 -246
378 -301 1030 -842 1247 -1034 132 -117 406 -381 660 -636 596 -599 714 -690
1380 -1077 710 -412 1535 -760 2375 -1003 592 -171 777 -251 820 -354 32 -76
8 -306 -50 -486 -57 -177 -269 -669 -348 -810 -89 -158 -199 -285 -383 -447
-481 -420 -654 -741 -654 -1213 0 -85 7 -209 16 -274 15 -115 33 -189 229
-924 101 -380 141 -549 185 -767 31 -152 32 -168 28 -335 -4 -162 -7 -180 -33
-250 -53 -139 -134 -244 -223 -289 -67 -34 -184 -59 -358 -77 -168 -17 -239
-16 -5910 70 -3156 49 -5815 92 -5909 97 -93 4 -242 16 -330 25 -185 19 -272
48 -367 125 -71 58 -111 111 -159 217 -93 201 -148 452 -269 1217 -142 904
-169 1245 -170 2161 0 512 1 532 21 592 25 75 68 114 149 138 92 27 250 14
840 -71 1213 -173 1911 -301 2900 -532 734 -171 1439 -408 3101 -1046 788
-302 1573 -588 1874 -681 415 -128 1601 -445 1948 -520 261 -57 440 -21 579
116 88 88 141 193 165 333 16 95 15 161 -6 1275 -24 1259 -26 1295 -78 1428
-62 158 -191 274 -360 323 -113 33 -283 33 -1118 4 -843 -29 -865 -29 -973 20
-159 73 -357 286 -877 945 -307 388 -1195 1586 -1458 1965 -88 126 -117 158
-191 206 -156 103 -337 106 -531 9 -81 -40 -422 -278 -778 -543 -344 -256
-535 -342 -818 -368 -645 -60 -1138 339 -1225 991 -14 105 -15 145 -6 255 20
230 86 368 261 549 180 184 378 289 711 375 106 27 625 121 1635 295 814 140
1507 259 1540 264 119 19 331 13 450 -12z"/>
</g>
</svg>
